<?xml version="1.0" standalone="no"?>
<!DOCTYPE svg PUBLIC "-//W3C//DTD SVG 1.1//EN" "http://www.w3.org/Graphics/SVG/1.1/DTD/svg11.dtd" >
<svg>
<metadata>
Created by FontForge 20090914 at Mon Oct  3 04:05:51 2016
 By www-data
Underware copyright (c) 2004. All rights reserved.
</metadata>
<defs>
<font id="Bello-Pro" horiz-adv-x="474" >
  <font-face 
    font-family="Bello Pro"
    font-weight="400"
    font-stretch="normal"
    units-per-em="1000"
    panose-1="2 0 5 5 2 0 0 2 0 3"
    ascent="750"
    descent="-250"
    x-height="458"
    cap-height="726"
    bbox="-1826 -470 4764 1080"
    underline-thickness="70"
    underline-position="-30"
    stemh="93"
    stemv="92"
    unicode-range="U+000D-U+FB06"
  />
<missing-glyph horiz-adv-x="406" 
d="M220 93h-44v53h44v-53zM215 185h-37l-1 13c0 29 3 51 10 64c7 14 19 30 37 47c34 33 39 46 39 67c0 37 -28 67 -60 67c-33 0 -59 -21 -65 -76l-40 7c8 74 51 108 107 108s98 -41 98 -104c0 -34 -10 -57 -50 -95c-20 -16 -31 -30 -34 -41c-2 -10 -4 -29 -4 -57zM39 39h327
v489h-327v-489zM0 569h406v-569h-406v569z" />
    <glyph glyph-name="f_f" unicode="ff" horiz-adv-x="700" 
d="M195 233c-22 -139 -73 -283 -94 -334c-1 -3 -2 -7 -2 -9c0 -7 5 -10 12 -10c38 0 114 148 114 256c0 47 -12 82 -30 97zM552 260c-18 -113 -47 -219 -69 -284c-1 -3 -2 -7 -2 -9c0 -7 5 -10 12 -10c38 0 89 98 89 206c0 47 -12 82 -30 97zM307 403c56 8 116 27 146 46
c30 202 39 226 79 226c58 0 135 -62 135 -115c0 -38 -30 -80 -97 -138c31 1 138 5 151 8c12 -9 19 -27 19 -42c0 -38 -25 -67 -58 -67c-23 0 -43 1 -63 3c38 -21 64 -71 64 -141c0 -180 -130 -343 -262 -343c-55 0 -81 32 -81 87c0 26 13 90 46 206c25 88 41 155 50 219
c-42 -21 -114 -39 -186 -43c38 -21 76 -83 76 -153c0 -180 -145 -407 -277 -407c-68 0 -100 32 -100 87c0 38 5 64 61 231c24 71 56 176 68 238c-19 1 -28 9 -28 25c0 28 21 58 43 60c43 327 91 390 157 390c78 0 169 -70 169 -172c0 -66 -45 -136 -112 -205zM281 652
c-15 -30 -51 -183 -59 -239c70 69 109 134 109 170s-18 56 -50 69z" />
    <glyph glyph-name="fi" unicode="fi" horiz-adv-x="597" 
d="M201 260c-22 -139 -65 -267 -83 -320c-1 -3 -2 -7 -2 -9c0 -7 4 -10 11 -10c33 0 104 134 104 242c0 47 -12 82 -30 97zM531 451c42 0 61 -10 61 -52c0 -26 -21 -90 -38 -132c-27 -65 -41 -106 -41 -124c0 -11 5 -15 14 -15c14 0 69 32 136 127c19 0 39 -16 39 -36
c0 -63 -169 -232 -261 -232c-56 0 -79 28 -79 81c0 28 6 58 16 92c14 47 32 102 50 170c1 4 2 9 2 10c0 7 -4 10 -23 10c-28 0 -110 -7 -152 -13c48 -24 77 -84 77 -154c0 -180 -135 -393 -267 -393c-68 0 -100 32 -100 87c0 36 5 63 47 190c24 71 58 197 70 259
c-19 1 -28 9 -28 25c0 28 21 58 43 60c4 35 10 76 14 117c14 139 30 157 81 157c53 0 115 -62 115 -125c0 -24 -25 -70 -65 -136c80 13 222 27 289 27zM516 595c0 81 17 110 49 110c40 0 85 -44 85 -75c0 -24 -19 -63 -67 -122c-39 0 -67 29 -67 87z" />
    <glyph glyph-name="fl" unicode="fl" horiz-adv-x="609" 
d="M99 417c4 35 8 70 12 111c14 139 30 157 81 157c53 0 115 -62 115 -125c0 -25 -28 -86 -78 -168c41 -17 86 -24 117 -24c26 0 39 1 56 4c4 47 5 104 11 144c18 135 102 216 181 216s121 -43 121 -134c0 -86 -65 -180 -175 -264c-9 -86 -37 -167 -37 -191
c0 -11 5 -15 14 -15c28 0 107 45 159 126c19 0 38 -14 38 -34c0 -76 -182 -233 -283 -233c-59 0 -79 26 -79 81c0 56 27 144 38 218c-11 -3 -26 -4 -45 -4c-27 0 -54 3 -74 10c30 -29 44 -89 44 -159c0 -172 -136 -343 -250 -343c-68 0 -100 32 -100 87c0 38 5 64 61 231
c24 71 45 158 57 220c-17 6 -27 12 -27 29c0 28 21 58 43 60zM195 230c-17 -102 -63 -251 -77 -290c-1 -3 -2 -7 -2 -9c0 -7 4 -10 11 -10c28 0 87 102 87 202c0 47 -6 83 -19 107zM542 435c45 36 65 89 65 126c0 34 -11 62 -34 62c-17 0 -22 -23 -25 -62
c-3 -37 -6 -126 -6 -126z" />
    <glyph glyph-name="f_f_i" unicode="ffi" horiz-adv-x="951" 
d="M93 390c43 327 91 390 157 390c78 0 169 -70 169 -172c0 -66 -45 -136 -112 -205c56 8 116 27 146 46c30 202 39 226 79 226c58 0 135 -62 135 -115c0 -38 -30 -81 -97 -139c80 13 248 30 315 30c42 0 61 -10 61 -52c0 -26 -21 -90 -38 -132c-27 -65 -41 -106 -41 -124
c0 -11 5 -15 14 -15c14 0 69 32 136 127c19 0 39 -16 39 -36c0 -63 -169 -232 -261 -232c-56 0 -79 28 -79 81c0 28 6 58 16 92c14 47 32 102 50 170c1 4 2 9 2 10c0 7 -4 10 -23 10c-28 0 -117 -7 -159 -13c38 -21 81 -84 81 -154c0 -180 -130 -343 -262 -343
c-55 0 -81 32 -81 87c0 26 13 90 46 206c25 88 41 155 50 219c-42 -21 -114 -39 -186 -43c38 -21 76 -83 76 -153c0 -180 -145 -407 -277 -407c-68 0 -100 32 -100 87c0 38 5 64 61 231c24 71 56 176 68 238c-19 1 -28 9 -28 25c0 28 21 58 43 60zM195 233
c-22 -139 -73 -283 -94 -334c-1 -3 -2 -7 -2 -9c0 -7 5 -10 12 -10c38 0 114 148 114 256c0 47 -12 82 -30 97zM552 260c-18 -113 -47 -219 -69 -284c-1 -3 -2 -7 -2 -9c0 -7 5 -10 12 -10c38 0 89 98 89 206c0 47 -12 82 -30 97zM870 595c0 81 17 110 49 110
c40 0 85 -44 85 -75c0 -24 -19 -63 -67 -122c-39 0 -67 29 -67 87zM281 652c-15 -30 -51 -183 -59 -239c70 69 109 134 109 170s-18 56 -50 69z" />
    <glyph glyph-name="f_f_l" unicode="ffl" horiz-adv-x="960" 
d="M761 289c9 51 18 93 26 142c-53 -37 -130 -75 -185 -94c38 -21 81 -84 81 -154c0 -180 -130 -343 -262 -343c-55 0 -81 32 -81 87c0 26 13 90 46 206c25 88 41 155 50 219c-42 -21 -114 -39 -186 -43c38 -21 76 -83 76 -153c0 -180 -145 -407 -277 -407
c-68 0 -100 32 -100 87c0 38 5 64 61 231c24 71 56 176 68 238c-19 1 -28 9 -28 25c0 28 21 58 43 60c43 327 91 390 157 390c78 0 169 -70 169 -172c0 -66 -45 -136 -112 -205c56 8 116 27 146 46c30 202 39 226 79 226c58 0 135 -62 135 -115c0 -38 -30 -81 -97 -139
c64 17 146 59 237 123c30 114 91 188 161 188c37 0 52 -18 52 -53c0 -33 -23 -89 -66 -150c-27 -97 -85 -373 -85 -398c0 -11 5 -15 14 -15c31 0 90 57 142 138c19 0 38 -14 38 -34c0 -76 -162 -233 -263 -233c-58 0 -79 25 -79 77c0 67 32 183 40 225zM195 233
c-22 -139 -73 -283 -94 -334c-1 -3 -2 -7 -2 -9c0 -7 5 -10 12 -10c38 0 114 148 114 256c0 47 -12 82 -30 97zM552 260c-18 -113 -47 -219 -69 -284c-1 -3 -2 -7 -2 -9c0 -7 5 -10 12 -10c38 0 89 98 89 206c0 47 -12 82 -30 97zM281 652c-15 -30 -51 -183 -59 -239
c70 69 109 134 109 170s-18 56 -50 69z" />
    <glyph glyph-name="s_t" unicode="st" horiz-adv-x="696" 
d="M209 497c0 99 62 169 169 169c38 0 67 -9 158 -47c29 40 59 62 96 62c46 0 72 -22 72 -59c0 -34 -18 -81 -85 -197c31 1 73 4 86 7c12 -9 19 -27 19 -42c0 -38 -25 -67 -58 -67c-23 0 -44 1 -73 6c-27 -110 -35 -168 -35 -183c0 -24 6 -35 27 -35c41 0 110 48 178 144
c19 0 40 -14 40 -34c0 -59 -153 -238 -268 -238c-77 0 -129 40 -129 132c0 29 10 92 48 219c-20 2 -37 4 -37 26c0 31 22 59 63 60c7 36 15 72 24 106c-75 16 -122 22 -143 22c-37 0 -59 -25 -61 -73c58 0 91 -12 91 -42c0 -38 -41 -95 -79 -95c-21 0 -42 15 -59 37
c6 -16 14 -33 23 -51c42 -85 60 -144 60 -187c0 -104 -78 -158 -177 -158c-78 0 -151 53 -151 152c0 59 16 156 65 156c35 0 63 -45 63 -70c0 -21 -9 -36 -26 -55c8 -44 42 -74 65 -74c10 0 21 6 21 23c0 51 -60 192 -60 254c0 42 22 78 76 101c-2 10 -3 21 -3 31z" />
    <glyph glyph-name="C_h" unicode="Ch" horiz-adv-x="969" 
d="M825 681c50 19 78 31 111 68c39 -5 61 -33 61 -69c0 -71 -56 -115 -234 -146c-18 -42 -29 -86 -44 -198c72 66 134 98 173 98c38 0 58 -24 58 -59c0 -31 -9 -62 -24 -100c-17 -44 -50 -125 -50 -150c0 -11 5 -15 14 -15c18 0 80 49 145 142c19 0 39 -13 39 -33
c0 -63 -170 -238 -262 -238c-59 0 -79 26 -79 81c0 66 52 181 52 203c0 8 -3 16 -14 16c-17 0 -41 -11 -68 -34c-10 -71 -17 -146 -18 -239c-9 -10 -26 -14 -46 -14c-58 0 -101 53 -102 105c0 31 8 67 33 110c11 111 29 246 42 302c-16 -3 -63 -17 -85 -24
c-33 -55 -65 -88 -98 -88c-40 0 -68 46 -68 77c0 23 19 46 69 69c-8 41 -23 72 -52 72c-55 0 -162 -202 -162 -375c0 -80 18 -130 84 -130c52 0 102 43 168 145c21 0 38 -15 38 -42c0 -76 -92 -261 -267 -261c-134 0 -197 85 -197 244c0 250 204 529 378 529
c93 0 131 -64 131 -145c18 6 62 19 82 25c24 56 74 115 129 115c41 0 59 -22 63 -41z" />
    <glyph glyph-name="C_l" unicode="Cl" horiz-adv-x="769" 
d="M778 549c-46 -134 -99 -393 -99 -418c0 -11 5 -15 14 -15c31 0 90 57 142 138c19 0 38 -14 38 -34c0 -76 -162 -233 -263 -233c-58 0 -79 25 -79 77c0 49 40 268 77 447c-24 -9 -55 -24 -82 -36c-33 -55 -65 -88 -98 -88c-40 0 -68 46 -68 77c0 23 19 46 69 69
c-8 41 -22 84 -51 84c-55 0 -162 -202 -162 -375c0 -80 18 -130 84 -130c52 0 102 43 168 145c21 0 38 -15 38 -42c0 -76 -92 -261 -267 -261c-134 0 -197 85 -197 244c0 250 204 529 378 529c93 0 130 -73 130 -154c28 13 53 25 78 38c16 87 51 153 99 153
c45 0 79 -31 86 -52c21 8 45 28 57 41c39 -9 55 -37 55 -73c0 -53 -52 -99 -147 -131z" />
    <glyph glyph-name="F_l" unicode="Fl" horiz-adv-x="864" 
d="M325 204c-115 -107 -144 -160 -144 -197c0 -41 15 -56 37 -56c37 0 76 82 107 253zM849 519c-27 -97 -75 -363 -75 -388c0 -11 5 -15 14 -15c31 0 90 57 142 138c19 0 38 -14 38 -34c0 -76 -162 -233 -263 -233c-58 0 -77 25 -77 77c0 38 21 147 36 225l46 227
c-45 3 -103 13 -150 27c-15 -45 -22 -77 -33 -140c44 0 70 2 95 10c13 -11 21 -31 21 -51c0 -61 -46 -87 -100 -87c-12 0 -23 1 -37 3c-3 -17 -25 -106 -28 -120c-40 -178 -129 -308 -271 -308c-100 0 -153 56 -153 143c0 75 47 159 284 317c-17 14 -27 35 -27 55
c0 17 8 34 27 44c9 5 21 7 35 8c14 57 32 98 65 156c-106 34 -178 45 -232 45s-79 -26 -79 -73c0 -40 23 -80 92 -120c0 -36 -27 -68 -81 -68c-61 0 -124 74 -124 164c0 112 75 216 218 216c49 0 81 -2 158 -16c202 -38 280 -66 356 -75c48 147 124 183 178 183
c85 0 139 -77 139 -140c0 -69 -76 -143 -214 -170zM961 679c0 18 -30 52 -54 52c-15 0 -29 -27 -42 -95c64 6 96 22 96 43z" />
    <glyph glyph-name="Q_u" unicode="Qu" horiz-adv-x="1098" 
d="M-10 46c0 38 19 60 97 60c38 0 104 -11 164 -32c181 128 283 278 283 417c0 54 -17 96 -55 116c0 -214 -125 -421 -251 -421c-80 0 -127 56 -127 163c0 141 86 307 260 354c-17 27 -55 51 -134 51c-12 0 -45 -2 -58 -3c-6 8 -9 17 -9 32c0 41 40 74 106 74
c120 0 185 -62 210 -138c16 4 32 6 47 6c112 0 168 -90 168 -193c0 -163 -94 -328 -331 -504c265 -90 389 -169 544 -169c71 0 104 28 127 107c51 0 72 -29 72 -69c0 -114 -100 -211 -239 -211s-308 74 -628 255c-39 -21 -85 -33 -130 -33c-58 0 -116 70 -116 138zM958 447
c10 13 27 19 42 19c56 0 97 -40 97 -81c0 -18 -4 -38 -19 -78c-21 -57 -63 -150 -63 -169c0 -13 6 -16 14 -16c23 0 71 40 135 130c21 0 41 -13 41 -31c0 -36 -50 -101 -108 -152c-47 -42 -100 -74 -142 -74c-41 0 -66 13 -66 65c0 14 2 31 6 52
c-48 -91 -109 -133 -154 -133c-59 0 -73 34 -73 94c0 30 14 88 40 152c-11 21 -13 42 -13 62c0 62 96 174 166 174c31 0 48 -10 48 -40c0 -32 -26 -92 -77 -175c-10 -36 -16 -66 -16 -82s6 -26 20 -26c17 0 49 24 69 45c34 108 48 178 53 264zM241 340c0 -23 2 -47 6 -56
c70 49 117 171 131 330c-97 -53 -137 -165 -137 -274z" />
    <glyph glyph-name="T_h" unicode="Th" horiz-adv-x="1069" 
d="M670 209c14 131 27 237 43 313c-25 2 -73 9 -94 14c-29 -85 -66 -313 -97 -416c-41 -138 -131 -204 -240 -204c-83 0 -145 54 -145 126c0 46 29 78 80 79c28 -37 70 -73 94 -73c32 0 51 47 73 142c39 169 47 222 62 269c-80 -38 -195 -70 -284 -70
c-90 0 -147 51 -147 150c0 121 103 233 206 233c75 0 162 -22 234 -47c156 -54 227 -71 287 -81c48 147 124 181 178 181c85 0 139 -73 139 -136c0 -69 -76 -139 -214 -166l-26 -187c72 66 134 98 173 98c38 0 58 -24 58 -59c0 -31 -9 -62 -24 -100
c-17 -44 -50 -125 -50 -150c0 -11 5 -15 14 -15c18 0 80 49 145 142c19 0 39 -13 39 -33c0 -63 -170 -238 -262 -238c-59 0 -79 26 -79 81c0 66 52 181 52 203c0 8 -3 16 -14 16c-17 0 -41 -11 -68 -34c-10 -71 -17 -146 -18 -239c-9 -10 -26 -14 -46 -14
c-58 0 -101 53 -102 105c0 31 8 67 33 110zM235 509c72 0 164 19 188 19c17 0 35 -5 42 -15c6 18 18 41 31 54c-207 71 -248 83 -295 83c-38 0 -63 -25 -63 -65c0 -52 37 -76 97 -76zM957 675c0 18 -30 52 -54 52c-15 0 -29 -27 -42 -95c64 6 96 22 96 43z" />
    <glyph glyph-name="a_a" unicode="aa" horiz-adv-x="878" 
d="M676 116c-32 -91 -78 -116 -113 -116c-45 0 -79 33 -92 91c-45 -56 -118 -96 -164 -96c-52 0 -73 27 -73 75c0 8 1 17 3 29c-41 -67 -87 -97 -127 -97c-57 0 -85 45 -85 136c0 140 125 281 218 281c14 0 21 -3 26 -7c11 64 25 78 42 78c63 0 97 -45 97 -89
c0 -35 -22 -93 -41 -132c-8 -56 -12 -96 -12 -122c0 -20 7 -23 15 -23c25 0 58 16 97 54c20 139 138 284 229 284c14 0 21 -2 26 -7l3 61c8 9 21 13 35 13c68 0 105 -49 105 -84c0 -13 -3 -38 -11 -66c-35 -126 -56 -206 -56 -232c0 -20 4 -23 12 -23c20 0 72 38 136 128
c21 0 37 -13 37 -31c0 -65 -166 -226 -238 -226c-44 0 -72 18 -72 82c0 11 1 24 3 39zM677 165l40 225c-50 -32 -106 -132 -106 -209c0 -37 12 -41 26 -41s28 10 40 25zM234 176l27 174c-60 -55 -89 -122 -89 -179c0 -26 8 -31 17 -31c14 0 33 21 45 36z" />
    <glyph glyph-name="b_b" unicode="bb" horiz-adv-x="810" 
d="M765 628c0 -62 -58 -140 -159 -232c-10 -62 -18 -151 -18 -187c0 -87 5 -101 17 -101c37 0 92 90 92 156c0 38 -10 52 -46 63c-2 9 -3 16 -3 24c0 52 46 101 99 101c54 0 81 -33 81 -109c0 -154 -131 -353 -262 -353c-81 0 -124 55 -124 182c0 45 9 121 17 168
c-12 -6 -29 -14 -42 -19c-23 -139 -150 -347 -257 -347c-81 0 -124 55 -124 182c0 233 109 618 297 618c59 0 104 -52 104 -112c0 -101 -129 -242 -249 -369c-3 -35 -6 -80 -6 -100c0 -87 5 -101 17 -101c27 0 68 91 83 141c-11 20 -16 43 -16 62c0 41 20 57 87 84
c42 17 106 45 133 63c57 151 137 251 214 251c40 0 65 -30 65 -65zM197 407c93 121 130 184 130 228c0 22 -11 32 -24 32c-14 0 -37 -26 -106 -260z" />
    <glyph glyph-name="b_r" unicode="br" horiz-adv-x="731" 
d="M410 258c-48 -159 -152 -271 -249 -271c-81 0 -124 55 -124 182c0 248 128 563 256 563c40 0 65 -20 65 -68c0 -40 -36 -115 -158 -286c-10 -62 -17 -136 -17 -172c0 -87 5 -101 17 -101c26 0 71 65 92 144c-31 17 -47 43 -47 73c0 45 65 130 127 130
c33 0 51 -29 51 -111c10 6 25 17 31 26c2 55 46 200 96 200c34 0 68 -37 68 -58s-10 -41 -27 -73c14 -8 27 -15 49 -24c51 -21 65 -30 65 -58c0 -20 -10 -43 -26 -75c-23 -46 -51 -123 -51 -148c0 -14 4 -24 17 -24c28 0 98 62 151 145c25 0 42 -16 42 -31
c0 -63 -171 -241 -263 -241c-61 0 -95 27 -95 84c0 66 56 167 56 193c0 16 -8 28 -48 52c-16 -19 -44 -40 -78 -51z" />
    <glyph glyph-name="c_b" unicode="cb" horiz-adv-x="756" 
d="M508 632c41 75 75 110 118 110s90 -35 90 -75c0 -39 -42 -78 -119 -137c-39 -120 -63 -277 -63 -330c0 -87 5 -101 17 -101c37 0 92 93 92 159c0 38 -10 52 -46 63c-2 9 -3 16 -3 24c0 52 46 101 99 101c54 0 81 -33 81 -109c0 -154 -131 -356 -262 -356
c-81 0 -124 55 -124 182c0 119 26 256 71 363c-55 11 -115 22 -150 22c-37 0 -59 -39 -61 -94c65 0 99 -23 99 -67c0 -40 -21 -106 -76 -106c-24 0 -48 21 -67 52c-25 -37 -40 -87 -40 -141c0 -55 16 -80 50 -80c25 0 48 18 100 82c20 0 33 -15 33 -33
c0 -46 -90 -173 -190 -173c-89 0 -132 67 -132 172c0 103 58 203 143 263c-5 22 -8 44 -8 64c0 99 60 180 167 180c44 0 124 -19 181 -35z" />
    <glyph glyph-name="c_c" unicode="cc" horiz-adv-x="643" 
d="M464 -32c-70 0 -112 35 -130 94c-43 -42 -105 -81 -169 -81c-98 0 -140 70 -140 178c0 150 127 322 250 322c51 0 84 -28 84 -73c0 -40 -21 -70 -60 -79c-16 21 -38 35 -60 35c-30 0 -75 -62 -75 -165c0 -55 9 -92 48 -92c36 0 75 17 112 44c4 152 130 322 236 322
c68 0 102 -36 102 -97c0 -64 -45 -115 -93 -115c-22 0 -35 7 -43 19c7 27 10 50 10 63c0 14 -7 21 -13 21c-19 0 -60 -87 -60 -188c0 -55 15 -84 54 -84c64 0 139 80 193 164c18 0 39 -12 39 -33c0 -69 -156 -255 -285 -255z" />
    <glyph glyph-name="c_h" unicode="ch" horiz-adv-x="797" 
d="M398 209c13 128 29 231 47 312c-55 11 -101 17 -136 17c-37 0 -59 -29 -61 -84c65 0 99 -23 99 -67c0 -40 -21 -106 -76 -106c-24 0 -48 21 -67 52c-25 -37 -40 -87 -40 -141c0 -55 16 -80 50 -80c25 0 48 18 100 82c20 0 33 -15 33 -33c0 -46 -90 -173 -190 -173
c-89 0 -132 67 -132 172c0 103 58 203 143 263c-5 22 -8 44 -8 64c0 99 60 170 167 170c41 0 84 -11 146 -35c29 81 65 120 114 120c43 0 95 -35 95 -75c0 -39 -29 -72 -108 -137c-16 -59 -27 -134 -35 -200c72 66 142 104 181 104c38 0 58 -24 58 -59
c0 -31 -9 -62 -24 -100c-17 -44 -50 -125 -50 -150c0 -11 5 -15 14 -15c18 0 80 49 145 142c19 0 39 -13 39 -33c0 -63 -170 -238 -262 -238c-59 0 -79 26 -79 81c0 66 52 181 52 203c0 8 -3 16 -14 16c-17 0 -41 -11 -68 -34c-7 -52 -17 -172 -18 -239
c-7 -8 -17 -14 -37 -14c-58 0 -104 43 -105 95c0 34 9 82 27 120z" />
    <glyph glyph-name="c_k" unicode="ck" horiz-adv-x="797" 
d="M520 13c-6 -9 -22 -19 -44 -19c-58 0 -104 43 -105 95c0 34 9 82 27 120c13 128 29 231 47 312c-55 11 -101 17 -136 17c-37 0 -59 -29 -61 -84c65 0 99 -23 99 -67c0 -40 -21 -106 -76 -106c-24 0 -48 21 -67 52c-25 -37 -40 -87 -40 -141c0 -55 16 -80 50 -80
c25 0 48 18 100 82c20 0 33 -15 33 -33c0 -46 -90 -173 -190 -173c-89 0 -132 67 -132 172c0 103 58 203 143 263c-5 22 -8 44 -8 64c0 99 60 170 167 170c41 0 84 -11 146 -35c29 81 65 120 114 120c43 0 95 -35 95 -75c0 -39 -29 -72 -108 -137c-16 -59 -33 -184 -41 -263
l67 28c10 21 22 43 35 61c45 62 74 82 101 82c49 0 72 -40 72 -78c0 -46 -12 -56 -115 -107c0 -108 10 -145 34 -145c26 0 66 43 136 144c19 0 39 -11 39 -31c0 -58 -154 -245 -246 -245c-64 0 -89 43 -89 155c0 25 2 51 5 73l-45 -18c-4 -45 -6 -88 -7 -173z" />
    <glyph glyph-name="c_l" unicode="cl" horiz-adv-x="598" 
d="M594 742c43 0 98 -35 98 -75c0 -34 -19 -78 -91 -137c-27 -97 -94 -374 -94 -399c0 -11 5 -15 14 -15c31 0 90 57 142 138c19 0 38 -14 38 -34c0 -76 -162 -233 -263 -233c-58 0 -79 25 -79 77c0 67 31 183 40 225c15 71 29 148 44 227c0 2 0 3 1 5
c-55 11 -100 17 -135 17c-37 0 -59 -29 -61 -84c65 0 99 -23 99 -67c0 -40 -21 -106 -76 -106c-24 0 -48 21 -67 52c-25 -37 -40 -87 -40 -141c0 -55 17 -80 43 -80c27 0 52 12 94 71c20 0 30 -18 30 -36c0 -46 -74 -159 -174 -159c-89 0 -132 67 -132 172
c0 103 58 203 143 263c-5 22 -8 44 -8 64c0 99 60 170 167 170c41 0 83 -11 145 -34c27 70 67 119 122 119z" />
    <glyph glyph-name="c_t" unicode="ct" horiz-adv-x="667" 
d="M377 115c0 29 7 82 45 209c-20 2 -37 4 -37 26c0 31 22 59 63 60c7 36 15 72 24 106c-67 14 -122 22 -163 22c-37 0 -59 -29 -61 -84c65 0 99 -23 99 -67c0 -40 -21 -106 -76 -106c-24 0 -48 21 -67 52c-25 -37 -40 -87 -40 -141c0 -55 16 -80 50 -80c25 0 48 18 100 82
c20 0 33 -15 33 -33c0 -46 -90 -173 -190 -173c-89 0 -132 67 -132 172c0 103 58 203 143 263c-5 22 -8 44 -8 64c0 99 60 170 167 170c48 0 98 -14 178 -47c29 40 59 62 96 62c46 0 72 -22 72 -59c0 -34 -19 -82 -86 -198c31 1 73 4 86 7c12 -9 19 -27 19 -42
c0 -38 -25 -67 -58 -67c-23 0 -44 1 -73 6c-27 -110 -32 -158 -32 -173c0 -24 6 -35 27 -35c41 0 110 48 178 144c19 0 40 -14 40 -34c0 -59 -153 -238 -268 -238c-77 0 -129 40 -129 132z" />
    <glyph glyph-name="d_a" unicode="da" horiz-adv-x="854" 
d="M652 116c-32 -91 -78 -116 -113 -116c-57 0 -99 47 -99 138c0 74 30 150 73 208c-25 7 -55 18 -73 26c-40 -236 -168 -381 -278 -381c-80 0 -132 52 -132 163c0 146 121 290 201 290c31 0 46 -17 46 -43c0 -4 0 -8 -1 -12c-73 -47 -105 -153 -105 -224
c0 -34 10 -44 30 -44c42 0 103 142 103 304c0 15 -1 42 -3 56c-100 104 -125 145 -125 190c0 40 34 77 92 77c107 0 180 -141 184 -273c18 -13 87 -42 142 -53c22 13 48 23 70 23c14 0 21 -2 26 -7l3 58c8 9 21 13 35 13c68 0 105 -46 105 -81c0 -13 -3 -38 -11 -66
c-35 -126 -48 -189 -48 -215c0 -20 4 -23 12 -23c20 0 72 38 136 128c21 0 37 -13 37 -31c0 -65 -166 -226 -238 -226c-44 0 -72 18 -72 82c0 11 1 24 3 39zM653 165l29 188c-11 -17 -37 -34 -54 -40c-26 -41 -41 -92 -41 -132c0 -37 12 -41 26 -41s28 10 40 25z" />
    <glyph glyph-name="d_d" unicode="dd" horiz-adv-x="852" 
d="M648 94c-43 -58 -110 -110 -162 -110c-61 0 -94 42 -94 131c0 80 47 187 125 274c-29 4 -68 17 -89 28c-42 -244 -162 -421 -282 -421c-80 0 -116 47 -116 158c0 146 116 290 196 290c23 0 43 -13 43 -36c0 -4 0 -8 -1 -12c-68 -46 -108 -167 -108 -231
c0 -34 8 -44 20 -44c45 0 119 209 126 352c-47 84 -56 133 -56 175s43 85 102 85c50 0 83 -91 83 -228c43 -29 120 -48 188 -52c22 179 105 318 197 318c34 0 118 -18 118 -147c0 -149 -84 -280 -185 -427c7 -50 29 -59 41 -59c34 0 67 27 124 116c19 0 39 -14 39 -34
c0 -58 -135 -199 -220 -199c-44 0 -69 19 -89 73zM618 381c-60 -84 -92 -182 -92 -230c0 -20 4 -34 16 -34c20 0 52 29 82 70c-4 39 -8 91 -8 140c0 19 1 37 2 54zM815 664c-43 0 -76 -201 -76 -363c47 94 94 219 94 299c0 55 -7 64 -18 64z" />
    <glyph glyph-name="d_o" unicode="do" horiz-adv-x="830" 
d="M668 453c45 0 61 -22 61 -49c0 -6 -1 -12 -3 -18c8 8 19 12 30 12c41 0 61 -44 61 -89c0 -48 -10 -67 -31 -122c3 -3 10 -7 20 -7c29 0 58 23 91 76c18 0 39 -15 39 -36c0 -42 -67 -136 -152 -136c-18 0 -29 3 -40 10c-48 -65 -101 -101 -171 -101
c-71 0 -127 47 -127 145c0 77 24 152 60 210c-24 8 -50 17 -66 24c-40 -236 -168 -381 -278 -381c-80 0 -132 52 -132 163c0 146 121 290 201 290c31 0 46 -17 46 -43c0 -4 0 -8 -1 -12c-73 -47 -105 -153 -105 -224c0 -34 10 -44 30 -44c42 0 103 142 103 304
c0 15 -1 42 -3 56c-100 104 -125 145 -125 190c0 40 34 77 92 77c107 0 180 -136 184 -268c21 -15 84 -43 127 -53c30 17 61 26 89 26zM628 318c-24 -39 -40 -96 -40 -143c0 -49 18 -63 36 -63c24 0 48 23 66 68c-8 31 -11 60 -11 87c0 18 4 44 13 68
c-15 -10 -44 -17 -64 -17z" />
    <glyph glyph-name="d_r" unicode="dr" horiz-adv-x="864" 
d="M250 347c-64 -55 -89 -138 -89 -186c0 -25 10 -39 25 -39c17 0 45 26 72 65c-6 46 -8 106 -8 160zM449 664c-43 0 -76 -201 -76 -363c47 94 94 219 94 299c0 55 -7 64 -18 64zM385 1c-48 0 -82 32 -103 93c-43 -58 -100 -107 -152 -107c-61 0 -104 47 -104 136
c0 150 124 307 224 307c21 204 112 341 204 341c34 0 118 -18 118 -147c0 -149 -84 -280 -185 -427c7 -50 25 -69 43 -69c49 0 128 135 147 195c-8 9 -15 22 -15 41c0 52 48 193 99 193c34 0 68 -37 68 -58s-10 -41 -27 -73c14 -8 45 -21 68 -28c53 -17 66 -31 66 -54
c0 -20 -10 -43 -26 -75c-23 -46 -49 -113 -49 -138c0 -14 4 -24 17 -24c28 0 98 62 151 145c25 0 42 -16 42 -31c0 -63 -171 -241 -263 -241c-61 0 -95 27 -95 84c0 66 59 169 59 195c0 12 -11 18 -33 27c-62 -154 -139 -285 -254 -285z" />
    <glyph glyph-name="d_y" unicode="dy" horiz-adv-x="852" 
d="M544 -89c0 36 -13 102 -47 230c-14 52 -19 103 -19 147c0 18 4 50 9 67c-16 4 -43 14 -47 17c-40 -236 -168 -381 -278 -381c-80 0 -132 52 -132 163c0 146 121 290 201 290c31 0 46 -17 46 -43c0 -4 0 -8 -1 -12c-73 -47 -105 -153 -105 -224c0 -34 10 -44 30 -44
c42 0 103 142 103 304c0 15 -1 42 -3 56c-100 104 -125 145 -125 190c0 40 34 77 92 77c107 0 180 -141 184 -273c21 -14 50 -25 73 -33c33 37 68 61 109 61s63 -23 63 -56c0 -25 -22 -52 -71 -101c-1 -11 -2 -27 -2 -41c0 -52 8 -108 21 -162c19 19 38 44 45 56
c-1 10 -2 22 -2 35c0 109 27 174 71 174s84 -37 84 -79c0 -36 -15 -74 -45 -126c6 -16 20 -29 32 -29c32 0 65 40 91 82c18 0 38 -15 38 -36c0 -60 -87 -138 -159 -138c-28 0 -54 7 -71 28c-13 -19 -41 -45 -60 -62c5 -33 8 -64 8 -84c0 -133 -79 -199 -170 -199
c-70 0 -126 44 -126 114c0 49 28 94 73 94c7 0 19 -3 26 -5c7 -60 25 -95 41 -95c15 0 23 12 23 38z" />
    <glyph glyph-name="e_e" unicode="ee" horiz-adv-x="718" 
d="M524 -27c-85 0 -132 50 -145 135c-58 -61 -138 -112 -211 -112c-98 0 -143 56 -143 164c0 151 123 299 220 299c66 0 100 -38 100 -96c0 -82 -57 -143 -179 -181c0 -45 9 -70 48 -70c58 0 115 42 166 105c25 137 132 259 224 259c69 0 111 -33 111 -103
c0 -84 -60 -160 -197 -191c0 -60 19 -88 52 -88c79 0 156 72 216 163c24 -1 34 -17 34 -33c0 -77 -159 -251 -296 -251zM602 338c0 21 -11 33 -23 33c-21 0 -47 -40 -55 -115c56 10 78 52 78 82zM240 321c0 21 -8 33 -20 33c-14 0 -41 -28 -48 -98c53 15 68 34 68 65z" />
    <glyph glyph-name="f_b" unicode="fb" horiz-adv-x="755" 
d="M769 327c0 -148 -132 -340 -258 -340c-81 0 -124 55 -124 182c0 55 6 113 17 170c-42 -15 -98 -27 -154 -30c38 -21 76 -83 76 -153c0 -180 -145 -407 -277 -407c-68 0 -100 32 -100 87c0 38 5 64 61 231c24 71 56 176 68 238c-19 1 -28 9 -28 25c0 28 21 58 43 60
c43 327 91 390 157 390c78 0 169 -70 169 -172c0 -66 -45 -136 -112 -205c43 6 88 19 121 33c40 136 126 233 204 233c37 0 65 -25 65 -68c0 -45 -46 -119 -146 -211c-10 -62 -18 -148 -18 -184c0 -87 5 -101 17 -101c35 0 88 83 88 143c0 38 -10 52 -46 63
c-2 9 -3 16 -3 24c0 52 46 101 99 101c54 0 81 -33 81 -109zM195 233c-22 -139 -73 -283 -94 -334c-1 -3 -2 -7 -2 -9c0 -7 5 -10 12 -10c38 0 114 148 114 256c0 47 -12 82 -30 97zM281 652c-15 -30 -51 -183 -59 -239c70 69 109 134 109 170s-18 56 -50 69z" />
    <glyph glyph-name="f_f_j" unicode="ffj" horiz-adv-x="966" 
d="M195 233c-22 -139 -73 -283 -94 -334c-1 -3 -2 -7 -2 -9c0 -7 5 -10 12 -10c38 0 114 148 114 256c0 47 -12 82 -30 97zM552 260c-18 -113 -33 -179 -55 -244c-1 -3 -2 -7 -2 -9c0 -7 5 -10 12 -10c38 0 75 58 75 166c0 47 -12 82 -30 97zM733 -98l-35 -24
c-20 -13 -28 -22 -28 -37c0 -29 15 -48 35 -48c15 0 20 12 22 40c3 37 6 69 6 69zM899 629c0 78 13 96 40 96c40 0 84 -44 84 -75c0 -24 -8 -62 -56 -121c-47 0 -68 43 -68 100zM453 449c30 202 39 226 79 226c58 0 135 -62 135 -115c0 -38 -30 -81 -97 -139
c80 13 244 30 311 30c42 0 61 -10 61 -52c0 -34 -44 -231 -52 -286c46 30 94 72 142 139c19 0 39 -18 39 -38c0 -49 -105 -151 -193 -208c-4 -32 -12 -101 -15 -120c-18 -135 -95 -202 -182 -202c-73 0 -121 55 -121 134c0 46 26 80 109 131l72 43c19 154 46 304 46 348
c0 7 -4 10 -23 10c-28 0 -120 -7 -162 -13c38 -21 77 -84 77 -154c0 -160 -117 -303 -244 -303c-55 0 -81 32 -81 87c0 37 11 90 39 190c25 88 34 131 43 195c-42 -21 -114 -39 -186 -43c38 -21 76 -83 76 -153c0 -180 -145 -407 -277 -407c-68 0 -100 32 -100 87
c0 38 5 64 61 231c24 71 56 176 68 238c-19 1 -28 9 -28 25c0 28 21 58 43 60c43 327 91 390 157 390c78 0 169 -70 169 -172c0 -66 -45 -136 -112 -205c56 8 116 27 146 46zM281 652c-15 -30 -51 -183 -59 -239c70 69 109 134 109 170s-18 56 -50 69z" />
    <glyph glyph-name="f_h" unicode="fh" horiz-adv-x="809" 
d="M410 209c1 40 6 95 11 142c-32 -19 -94 -31 -141 -34c33 -33 53 -87 53 -134c0 -180 -152 -434 -284 -434c-68 0 -100 32 -100 87c0 38 5 64 61 231c24 71 63 203 75 265c-19 1 -28 9 -28 25c0 28 21 58 43 60c4 35 11 104 15 145c14 139 30 157 81 157
c53 0 115 -62 115 -125c0 -41 -32 -115 -88 -200c8 -1 21 -1 29 -1c64 0 128 16 179 43c42 319 70 374 133 374c73 0 159 -76 159 -172c0 -70 -53 -149 -159 -229l-8 -73c72 66 137 98 176 98c38 0 58 -24 58 -59c0 -31 -9 -62 -24 -100c-17 -44 -50 -125 -50 -150
c0 -11 5 -15 14 -15c18 0 80 49 145 142c19 0 39 -13 39 -33c0 -63 -170 -238 -262 -238c-59 0 -79 26 -79 81c0 66 52 181 52 203c0 8 -3 16 -14 16c-17 0 -41 -11 -68 -34c-10 -71 -17 -146 -18 -239c-9 -10 -26 -14 -46 -14c-58 0 -101 53 -102 105c0 31 8 67 33 110z
M202 260c-22 -139 -80 -310 -101 -361c-1 -3 -2 -7 -2 -9c0 -7 5 -10 12 -10c38 0 121 175 121 283c0 47 -12 82 -30 97zM590 685c-3 -43 -12 -125 -19 -181c38 36 61 83 61 109c0 35 -17 57 -42 72z" />
    <glyph glyph-name="f_j" unicode="fj" horiz-adv-x="574" 
d="M507 629c0 78 13 96 40 96c40 0 84 -44 84 -75c0 -24 -8 -62 -56 -121c-47 0 -68 43 -68 100zM347 -47l-35 -20c-20 -13 -33 -26 -33 -41c0 -29 20 -57 40 -57c15 0 20 12 22 40c3 37 6 78 6 78zM260 352c8 -1 21 -2 30 -2c120 0 174 98 244 98c29 0 43 -16 43 -38
s-11 -48 -43 -84c-7 -33 -28 -158 -36 -213c46 30 94 72 142 139c19 0 39 -18 39 -38c0 -49 -105 -151 -193 -208c-4 -32 -8 -64 -11 -83c-18 -135 -101 -197 -180 -197c-73 0 -126 55 -126 134c0 46 24 91 102 136l80 47c5 56 16 121 24 172c3 21 8 48 13 69
c-30 -11 -70 -16 -109 -16c-26 0 -45 2 -65 6c4 -23 6 -55 6 -89c0 -180 -136 -372 -203 -372c-30 0 -49 29 -49 71c0 46 9 80 46 193c24 71 50 171 63 233c-19 1 -28 9 -28 25c0 28 21 58 43 60c43 327 92 385 158 385c78 0 169 -70 169 -172c0 -73 -55 -156 -159 -256z
M281 652c-15 -30 -51 -183 -59 -239c70 69 109 134 109 170s-18 56 -50 69z" />
    <glyph glyph-name="f_k" unicode="fk" horiz-adv-x="809" 
d="M548 267l64 28c10 21 22 43 35 61c45 62 74 82 101 82c49 0 72 -40 72 -78c0 -46 -12 -56 -115 -107c0 -108 10 -145 34 -145c26 0 66 43 136 144c19 0 39 -11 39 -31c0 -58 -154 -245 -246 -245c-64 0 -89 43 -89 155c0 25 2 51 5 73l-45 -18c-4 -45 -6 -88 -7 -173
c-11 -12 -30 -19 -53 -19c-58 0 -101 53 -102 105c0 31 8 67 33 110c1 40 6 95 11 142c-32 -19 -94 -31 -141 -34c33 -33 53 -87 53 -134c0 -180 -152 -434 -284 -434c-68 0 -100 32 -100 87c0 38 5 64 61 231c24 71 63 203 75 265c-19 1 -28 9 -28 25c0 28 21 58 43 60
c4 35 11 104 15 145c14 139 30 157 81 157c53 0 115 -62 115 -125c0 -41 -32 -115 -88 -200c8 -1 21 -1 29 -1c74 0 123 13 179 43c42 319 70 374 133 374c73 0 159 -76 159 -172c0 -70 -54 -153 -159 -229zM202 260c-22 -139 -80 -310 -101 -361c-1 -3 -2 -7 -2 -9
c0 -7 5 -10 12 -10c38 0 121 175 121 283c0 47 -12 82 -30 97zM590 685c-3 -43 -12 -125 -19 -181c38 36 61 83 61 109c0 35 -17 57 -42 72z" />
    <glyph glyph-name="f_r" unicode="fr" horiz-adv-x="663" 
d="M559 382c59 -17 71 -31 71 -55c0 -20 -11 -44 -27 -76c-23 -46 -43 -95 -43 -120c0 -14 4 -24 17 -24c28 0 98 62 151 145c25 0 42 -16 42 -31c0 -63 -171 -241 -263 -241c-61 0 -95 27 -95 84c0 66 49 151 49 177c0 21 -43 31 -72 53c-16 -12 -45 -20 -79 -20
c-7 0 -13 0 -20 1c31 -25 40 -81 40 -112c0 -180 -149 -414 -281 -414c-68 0 -100 32 -100 87c0 38 5 64 61 231c24 71 60 189 72 251c-19 1 -28 9 -28 25c0 28 21 58 43 60c4 35 14 118 18 159c14 139 30 157 81 157c53 0 115 -62 115 -125c0 -30 -20 -95 -85 -228
c18 -10 44 -15 70 -15s51 5 66 15c13 82 106 147 154 147c34 0 57 -16 57 -43c0 -7 -1 -14 -3 -20c-24 -13 -45 -28 -58 -50c11 -6 30 -13 47 -18zM201 250c-22 -139 -79 -300 -100 -351c-1 -3 -2 -7 -2 -9c0 -7 5 -10 12 -10c38 0 118 155 118 263c0 47 -13 87 -28 107z
" />
    <glyph glyph-name="f_s" unicode="fs" horiz-adv-x="588" 
d="M604 412c0 -25 -23 -46 -86 -78c12 -47 56 -125 56 -187c0 -121 -93 -168 -183 -168c-71 0 -139 37 -139 122c0 50 35 105 93 105c12 0 20 -3 27 -10c-3 -16 -4 -34 -4 -51c0 -42 24 -57 41 -57c10 0 21 6 21 23c0 37 -33 111 -50 173c-30 -11 -71 -16 -110 -16
c-18 0 -36 2 -56 6c4 -23 6 -55 6 -89c0 -180 -136 -372 -203 -372c-30 0 -49 29 -49 71c0 46 9 80 46 193c24 71 50 171 63 233c-19 1 -28 9 -28 25c0 28 21 58 43 60c43 327 92 385 158 385c78 0 169 -70 169 -172c0 -69 -48 -146 -161 -256c6 -1 14 -1 20 -1
c36 0 70 8 96 22c18 63 72 114 137 114c66 0 93 -42 93 -75zM281 652c-15 -30 -51 -183 -59 -239c70 69 109 134 109 170s-18 56 -50 69z" />
    <glyph glyph-name="g_g" unicode="gg" horiz-adv-x="858" 
d="M485 76c-10 14 -19 40 -19 70c-26 -36 -97 -91 -139 -115c-39 -113 -88 -206 -193 -206c-52 0 -108 32 -108 86c0 53 65 84 198 140c5 20 7 33 12 62c-18 -24 -59 -55 -106 -55c-48 0 -91 35 -91 116c0 127 118 243 202 243c14 0 21 -2 26 -7c3 33 3 56 3 80
c8 8 20 12 31 12c56 0 80 -55 80 -121c0 -64 -11 -162 -23 -244c43 37 107 110 135 152c43 110 111 171 166 171c14 0 26 -5 31 -12c1 23 2 39 2 63c8 9 27 14 38 14c58 0 84 -49 84 -109c0 -84 -16 -210 -38 -320c42 30 101 87 147 156c25 0 43 -14 43 -32
c0 -49 -112 -169 -208 -231c-31 -125 -101 -217 -232 -217c-103 0 -195 62 -195 153c0 45 43 90 154 151zM649 93c-20 -27 -51 -51 -91 -51c-26 -22 -69 -68 -89 -91c18 -42 58 -64 85 -64c47 0 66 49 95 206zM657 156c9 61 21 163 28 220c-6 -25 -43 -70 -77 -101
c-8 -32 -14 -67 -14 -89c0 -34 13 -41 27 -41c13 0 25 3 36 11zM264 346c-51 -28 -87 -94 -87 -143c0 -32 10 -39 24 -39c13 0 29 6 43 19c10 62 16 119 20 163z" />
    <glyph glyph-name="h_h" unicode="hh" horiz-adv-x="912" 
d="M54 209c17 133 51 274 66 343c39 184 92 235 168 235c82 0 128 -58 128 -139c0 -67 -46 -151 -184 -282c72 66 116 83 155 83c38 0 55 -23 55 -58c0 -29 -6 -56 -21 -94c-17 -44 -61 -147 -61 -172c0 -11 5 -15 14 -15c18 0 80 59 146 152c37 326 76 470 198 470
c43 0 65 -20 65 -71c0 -44 -22 -102 -100 -231l-24 -94c72 66 109 83 148 83c38 0 62 -24 62 -67c0 -31 -7 -57 -20 -101c-21 -70 -30 -107 -30 -126c0 -11 5 -15 14 -15c18 0 80 49 145 142c19 0 39 -13 39 -33c0 -63 -170 -238 -262 -238c-59 0 -79 26 -79 81
c0 66 39 179 39 201c0 8 -3 15 -14 15c-14 0 -31 -8 -58 -31c-10 -71 -17 -136 -18 -229c-9 -10 -19 -14 -39 -14c-52 0 -80 55 -80 129c-57 -77 -151 -161 -212 -161c-59 0 -79 26 -79 81c0 66 65 212 65 234c0 8 -3 16 -14 16c-17 0 -45 -11 -72 -34
c-10 -71 -25 -177 -26 -270c-9 -10 -26 -14 -46 -14c-58 0 -101 53 -102 105c0 31 9 76 34 119zM230 460c53 65 85 124 85 160c0 27 -9 57 -30 57c-11 0 -17 -5 -27 -58c-7 -37 -28 -159 -28 -159z" />
    <glyph glyph-name="i_i" unicode="ii" horiz-adv-x="503" 
d="M60 215c8 111 54 214 114 214c43 0 71 -21 71 -50c0 -26 -19 -80 -37 -122c-28 -69 -33 -91 -33 -114c0 -11 5 -15 14 -15c13 0 55 29 117 114c-2 12 -2 24 -2 35c0 59 108 184 170 184c30 0 40 -13 40 -44c0 -38 -23 -100 -44 -150c-28 -69 -41 -101 -41 -124
c0 -11 5 -15 14 -15c14 0 59 32 126 127c19 0 39 -16 39 -36c0 -63 -159 -232 -251 -232c-59 0 -79 26 -79 81c0 9 1 27 3 37c-54 -66 -128 -118 -178 -118c-59 0 -79 26 -79 81c0 44 11 85 36 147zM458 613c0 81 17 110 49 110c40 0 85 -44 85 -75c0 -24 -19 -63 -67 -122
c-39 0 -67 29 -67 87zM191 576c0 81 17 110 49 110c40 0 85 -44 85 -75c0 -24 -19 -63 -67 -122c-39 0 -67 29 -67 87z" />
    <glyph glyph-name="j_j" unicode="jj" horiz-adv-x="532" 
d="M293 -172c5 87 16 204 28 297c-41 -43 -96 -89 -143 -119c-4 -32 -7 -59 -10 -78c-18 -135 -101 -197 -180 -197c-73 0 -122 50 -122 129c0 46 15 71 97 123l80 51c5 56 14 131 24 181c-8 19 -10 42 -10 62c0 59 101 171 163 171c38 0 49 -15 49 -47
c0 -29 -16 -77 -53 -140c-7 -33 -18 -93 -26 -148c45 29 103 79 151 145c21 82 71 170 139 170c38 0 49 -15 49 -47c0 -29 -17 -77 -54 -140c-7 -33 -13 -73 -19 -128c46 30 94 72 142 139c19 0 39 -18 39 -38c0 -49 -105 -151 -193 -208c-4 -32 -14 -111 -17 -130
c-18 -135 -99 -208 -178 -208c-61 0 -95 37 -95 84c0 44 24 79 62 87c16 -23 42 -41 58 -41c10 0 18 7 19 30zM194 595c0 81 17 110 49 110c40 0 85 -44 85 -75c0 -24 -19 -63 -67 -122c-39 0 -67 29 -67 87zM456 626c0 81 17 110 49 110c40 0 77 -24 77 -55
c0 -24 -15 -78 -58 -141c-44 0 -68 34 -68 86zM39 -56l-35 -24c-20 -13 -28 -22 -28 -37c0 -26 15 -42 32 -42c15 0 23 6 25 34c3 37 6 69 6 69z" />
    <glyph glyph-name="k_k" unicode="kk" horiz-adv-x="938" 
d="M60 209c35 314 88 466 191 466c46 0 64 -23 64 -64c0 -36 -17 -84 -70 -192c-22 -44 -44 -109 -50 -152l67 28c10 21 22 43 35 61c45 62 84 82 111 82c28 0 44 -14 44 -46c0 -35 -33 -90 -97 -139c0 -108 10 -121 34 -121c15 0 66 50 114 118c41 345 85 502 206 502
c43 0 70 -20 70 -71c0 -49 -28 -110 -118 -270c-11 -46 -21 -137 -27 -180c81 183 154 255 218 255c59 0 108 -49 108 -121c0 -56 -40 -100 -162 -156c23 -82 47 -101 70 -101c26 0 66 43 136 144c19 0 39 -11 39 -31c0 -61 -151 -255 -248 -255c-66 0 -94 57 -120 213
l-49 -83c-2 -44 -2 -48 -3 -85c-8 -9 -22 -15 -40 -15c-45 0 -75 46 -81 128c-50 -73 -129 -148 -184 -148c-64 0 -89 43 -89 155c0 25 2 51 5 73l-45 -18c-4 -45 -6 -88 -7 -173c-11 -12 -30 -19 -53 -19c-58 0 -101 53 -102 105c0 31 8 67 33 110zM735 259
c95 48 122 81 122 99c0 14 -7 28 -22 28c-23 0 -60 -55 -100 -127z" />
    <glyph glyph-name="l_l" unicode="ll" horiz-adv-x="519" 
d="M452 292c-14 -81 -20 -136 -20 -161c0 -11 5 -15 14 -15c31 0 87 57 139 138c19 0 38 -14 38 -34c0 -76 -161 -233 -262 -233c-58 0 -74 37 -74 89v12c-56 -66 -130 -114 -190 -114c-48 0 -79 27 -79 77c0 67 32 183 40 225c12 65 23 129 32 197c18 135 89 216 168 216
c43 0 70 -20 70 -71c0 -44 -20 -93 -95 -234c-27 -97 -64 -236 -64 -261c0 -11 5 -15 14 -15c22 0 73 37 121 104c25 133 43 248 52 318c24 186 80 246 156 246c79 0 140 -53 140 -144c0 -85 -90 -217 -200 -340zM467 427c53 70 78 139 78 177c0 27 -13 62 -34 62
c-11 0 -17 -5 -23 -58c-4 -37 -21 -181 -21 -181z" />
    <glyph glyph-name="m_m" unicode="mm" horiz-adv-x="1300" 
d="M841 268c73 126 127 165 171 165c38 0 60 -26 60 -59c0 -26 -7 -56 -27 -98c75 104 113 139 160 139c35 0 60 -31 60 -70c0 -27 -5 -48 -19 -99c-13 -48 -27 -96 -27 -121c0 -11 5 -15 14 -15c20 0 71 53 133 142c19 0 39 -13 39 -33c0 -63 -154 -240 -246 -240
c-59 0 -79 26 -79 81c0 48 24 148 24 170c0 8 -4 12 -12 12c-13 0 -29 -11 -60 -49c-14 -77 -23 -126 -26 -194c-10 -10 -19 -15 -40 -15c-53 0 -84 33 -85 88c0 32 9 85 27 133c8 22 14 39 14 49c0 9 -4 12 -12 12c-9 0 -24 -9 -63 -63c-14 -77 -22 -126 -25 -194
c-10 -10 -17 -13 -40 -13c-56 0 -87 53 -87 120c-53 -88 -131 -141 -187 -141c-59 0 -79 26 -79 81c0 66 54 168 54 190c0 8 -4 13 -12 13c-15 0 -56 -37 -86 -75c-14 -77 -16 -112 -19 -180c-13 -13 -28 -20 -53 -20c-53 0 -79 38 -80 93c0 31 8 70 20 119
c5 22 11 43 11 53c0 9 -4 14 -12 14c-13 0 -27 -13 -53 -44c-14 -77 -24 -138 -27 -206c-11 -13 -29 -22 -53 -22c-59 0 -84 61 -84 124c0 38 11 93 28 139c4 102 42 191 128 191c29 0 45 -10 45 -40c0 -25 -5 -58 -29 -111c63 109 114 130 158 130c38 0 59 -26 59 -59
c0 -26 -1 -49 -25 -97c82 123 130 141 174 141c46 0 68 -35 68 -74c0 -26 -6 -51 -25 -92c-24 -53 -45 -107 -45 -128c0 -8 3 -14 12 -14c21 0 100 90 147 174c17 106 60 178 106 178c29 0 48 -16 48 -46c0 -25 -19 -85 -43 -139z" />
    <glyph glyph-name="n_n" unicode="nn" horiz-adv-x="946" 
d="M60 235c-8 19 -10 42 -10 62c0 59 92 178 154 178c34 0 43 -12 43 -42c0 -25 -13 -95 -40 -144c73 126 150 178 194 178c46 0 69 -30 69 -69c0 -27 -8 -62 -29 -110c-18 -44 -61 -136 -61 -161c0 -11 5 -15 14 -15c19 0 81 49 141 134c23 104 69 189 118 189
c29 0 48 -16 48 -46c0 -25 -12 -60 -36 -114c75 104 145 147 192 147c46 0 69 -30 69 -69c0 -27 -5 -52 -26 -100c-18 -44 -52 -109 -52 -134c0 -11 5 -15 14 -15c20 0 88 59 150 148c19 0 39 -13 39 -33c0 -63 -174 -240 -266 -240c-59 0 -79 26 -79 81c0 66 53 161 53 183
c0 8 -4 12 -12 12c-15 0 -43 -16 -78 -55c-14 -77 -20 -122 -23 -190c-10 -10 -17 -13 -40 -13c-55 0 -95 50 -98 108c-57 -61 -138 -118 -191 -118c-59 0 -79 26 -79 81c0 66 62 188 62 210c0 8 -4 12 -12 12c-9 0 -50 -22 -89 -76c-14 -77 -23 -126 -26 -194
c-10 -10 -17 -13 -40 -13c-56 0 -97 53 -98 113c0 38 8 69 25 115z" />
    <glyph glyph-name="o_o" unicode="oo" horiz-adv-x="824" 
d="M759 431c41 0 61 -28 61 -67c0 -48 -18 -122 -40 -177c3 -3 10 -7 20 -7c29 0 58 23 91 76c18 0 39 -15 39 -36c0 -42 -67 -136 -152 -136c-18 0 -29 3 -40 10c-48 -65 -101 -101 -171 -101c-71 0 -127 47 -127 145c0 51 10 101 28 145c-40 -4 -74 -7 -74 -7
c-27 -127 -114 -283 -239 -283c-71 0 -127 47 -127 145c0 166 108 314 214 314c25 0 55 -12 56 -44c16 23 36 33 57 33c34 0 53 -23 53 -77c37 5 88 12 119 17c57 45 102 69 136 69c32 0 46 -23 47 -42c14 17 30 23 49 23zM170 168c0 -47 19 -61 35 -61c37 0 69 85 82 169
c-14 5 -24 24 -24 48c0 16 4 35 16 54c-59 -26 -109 -132 -109 -210zM582 175c0 -49 18 -63 36 -63c24 0 44 19 58 41c-11 23 -16 61 -16 92s11 81 25 116c-15 -20 -42 -37 -68 -47c-23 -38 -35 -95 -35 -139z" />
    <glyph glyph-name="p_p" unicode="pp" horiz-adv-x="930" 
d="M200 209c-3 -83 0 -182 -14 -267c-23 -142 -107 -216 -186 -216c-73 0 -119 54 -119 133c0 39 29 84 76 84c7 0 19 -3 26 -5c7 -60 25 -101 41 -101c15 0 21 12 22 40l13 391c6 171 97 254 168 254c41 0 67 -19 67 -48c0 -3 0 -7 -1 -11c-37 -33 -70 -82 -91 -166
c64 95 128 143 170 143c49 0 79 -37 79 -90c0 -74 -38 -156 -112 -243c11 -7 21 -11 37 -11c22 0 78 58 142 144c6 238 16 296 79 296c56 0 119 -45 119 -81c0 -28 -15 -73 -57 -161c64 95 136 146 178 146c49 0 79 -37 79 -90c0 -62 -44 -142 -110 -219
c11 -7 21 -11 37 -11c23 0 86 37 153 132c19 0 39 -13 39 -33c0 -63 -154 -209 -246 -209c-57 0 -101 48 -101 86c0 24 9 43 36 51c20 35 31 69 31 86c0 27 -7 31 -20 31s-33 -14 -70 -51c-12 -279 -19 -433 -80 -433c-47 0 -97 79 -97 129c0 24 7 52 33 96l-1 124
c-56 -64 -150 -154 -209 -154c-69 0 -90 54 -90 97c0 24 9 43 36 51c18 35 33 91 33 113c0 21 -7 28 -20 28s-32 -14 -70 -55z" />
    <glyph glyph-name="q_q" unicode="qq" horiz-adv-x="878" 
d="M234 176l27 174c-60 -55 -89 -122 -89 -179c0 -26 8 -31 17 -31c14 0 33 21 45 36zM796 90c37 29 100 93 146 162c27 0 44 -16 44 -33c0 -49 -110 -171 -198 -235c5 -59 6 -88 6 -123c0 -32 -11 -58 -49 -58c-71 0 -122 39 -122 83c0 36 16 71 36 110l17 120
c-32 -91 -78 -116 -113 -116c-39 0 -77 24 -90 82c-37 -50 -83 -105 -127 -157c-2 -47 -2 -99 -2 -150c0 -20 -15 -32 -42 -32c-66 0 -118 34 -118 78c0 23 13 67 33 101c3 23 4 107 11 168c-40 -65 -91 -88 -118 -88c-57 0 -85 45 -85 136c0 140 125 281 218 281
c14 0 21 -3 26 -7c11 64 25 78 42 78c63 0 107 -50 107 -94c0 -35 -22 -93 -41 -132c-10 -57 -17 -152 -20 -214c39 43 78 96 113 145c21 121 135 267 226 267c14 0 21 -2 26 -7l3 61c8 9 21 13 35 13c68 0 105 -49 105 -84c0 -13 -3 -38 -11 -66
c-28 -101 -51 -225 -58 -289zM677 165l40 225c-50 -32 -106 -132 -106 -209c0 -37 12 -41 26 -41s28 10 40 25z" />
    <glyph glyph-name="r_r" unicode="rr" horiz-adv-x="726" 
d="M229 393c49 -34 96 -47 96 -89c0 -18 -7 -46 -22 -85c-29 -77 -32 -86 -32 -109c0 -12 6 -17 13 -17c49 0 140 168 159 228c-8 9 -15 22 -15 41c0 52 44 195 95 195c34 0 68 -37 68 -58s-10 -41 -27 -73c14 -8 45 -21 68 -28c53 -17 66 -26 66 -54c0 -20 -10 -43 -26 -75
c-23 -46 -49 -113 -49 -138c0 -14 4 -24 17 -24c28 0 98 62 151 145c25 0 42 -16 42 -31c0 -63 -171 -241 -263 -241c-61 0 -95 27 -95 84c0 66 59 169 59 195c0 12 -11 18 -33 27c-49 -136 -177 -320 -290 -320c-61 0 -87 27 -87 84c0 66 48 149 48 175c0 13 -2 21 -27 36
c-31 -59 -51 -87 -84 -124c-25 0 -40 18 -40 39c0 8 2 17 7 24c26 37 42 55 59 96c-8 9 -15 22 -15 41c0 70 105 169 161 169c34 0 57 -16 57 -43c0 -7 -1 -14 -3 -20c-24 -13 -45 -28 -58 -50z" />
    <glyph glyph-name="s_b" unicode="sb" horiz-adv-x="770" 
d="M611 530c-39 -120 -63 -277 -63 -330c0 -87 5 -101 17 -101c37 0 92 93 92 159c0 38 -10 52 -46 63c-2 9 -3 16 -3 24c0 52 46 101 99 101c54 0 81 -33 81 -109c0 -154 -131 -356 -262 -356c-81 0 -124 55 -124 182c0 119 30 265 75 372c-53 9 -98 13 -116 13
c-37 0 -59 -25 -61 -73c58 0 91 -12 91 -42c0 -38 -41 -95 -79 -95c-21 0 -42 15 -59 37c6 -16 14 -33 23 -51c42 -85 60 -144 60 -187c0 -104 -78 -158 -177 -158c-78 0 -151 53 -151 152c0 59 16 156 65 156c35 0 63 -45 63 -70c0 -21 -9 -36 -26 -55c8 -44 42 -74 65 -74
c10 0 21 6 21 23c0 51 -60 192 -60 254c0 42 22 78 76 101c-2 10 -3 21 -3 31c0 99 62 169 169 169c33 0 77 -6 144 -34c41 75 75 110 118 110s90 -35 90 -75c0 -39 -42 -78 -119 -137z" />
    <glyph glyph-name="s_h" unicode="sh" horiz-adv-x="826" 
d="M427 209c14 135 30 243 50 326c-53 9 -98 13 -116 13c-37 0 -59 -25 -61 -73c58 0 91 -12 91 -42c0 -38 -41 -95 -79 -95c-21 0 -42 15 -59 37c6 -16 14 -33 23 -51c42 -85 60 -144 60 -187c0 -104 -78 -158 -177 -158c-78 0 -151 53 -151 152c0 59 16 156 65 156
c35 0 63 -45 63 -70c0 -21 -9 -36 -26 -55c8 -44 42 -74 65 -74c10 0 21 6 21 23c0 51 -60 192 -60 254c0 42 22 78 76 101c-2 10 -3 21 -3 31c0 99 62 169 169 169c33 0 60 -7 127 -35c29 75 64 111 111 111c43 0 95 -35 95 -75c0 -39 -29 -72 -108 -137
c-16 -59 -27 -134 -35 -200c72 66 142 104 181 104c38 0 58 -24 58 -59c0 -31 -9 -62 -24 -100c-17 -44 -50 -125 -50 -150c0 -11 5 -15 14 -15c18 0 80 49 145 142c19 0 39 -13 39 -33c0 -63 -170 -238 -262 -238c-59 0 -79 26 -79 81c0 66 52 181 52 203c0 8 -3 16 -14 16
c-17 0 -41 -11 -68 -34c-7 -52 -17 -172 -18 -239c-7 -8 -17 -14 -37 -14c-58 0 -104 43 -105 95c0 34 9 82 27 120z" />
    <glyph glyph-name="s_k" unicode="sk" horiz-adv-x="826" 
d="M549 13c-6 -9 -22 -19 -44 -19c-58 0 -104 43 -105 95c0 34 9 82 27 120c14 135 30 243 50 326c-53 9 -98 13 -116 13c-37 0 -59 -25 -61 -73c58 0 91 -12 91 -42c0 -38 -41 -95 -79 -95c-21 0 -42 15 -59 37c6 -16 14 -33 23 -51c42 -85 60 -144 60 -187
c0 -104 -78 -158 -177 -158c-78 0 -151 53 -151 152c0 59 16 156 65 156c35 0 63 -45 63 -70c0 -21 -9 -36 -26 -55c8 -44 42 -74 65 -74c10 0 21 6 21 23c0 51 -60 192 -60 254c0 42 22 78 76 101c-2 10 -3 21 -3 31c0 99 62 169 169 169c33 0 60 -7 127 -35
c29 75 64 111 111 111c43 0 95 -35 95 -75c0 -39 -29 -72 -108 -137c-16 -59 -33 -184 -41 -263l67 28c10 21 22 43 35 61c45 62 74 82 101 82c49 0 72 -40 72 -78c0 -46 -12 -56 -115 -107c0 -108 10 -145 34 -145c26 0 66 43 136 144c19 0 39 -11 39 -31
c0 -58 -154 -245 -246 -245c-64 0 -89 43 -89 155c0 25 2 51 5 73l-45 -18c-4 -45 -6 -88 -7 -173z" />
    <glyph glyph-name="s_l" unicode="sl" horiz-adv-x="627" 
d="M623 742c43 0 98 -35 98 -75c0 -34 -19 -78 -91 -137c-27 -97 -94 -374 -94 -399c0 -11 5 -15 14 -15c31 0 90 57 142 138c19 0 38 -14 38 -34c0 -76 -162 -233 -263 -233c-58 0 -79 25 -79 77c0 67 31 183 40 225c15 71 29 148 44 227c1 6 2 13 4 20
c-52 8 -97 12 -115 12c-37 0 -59 -25 -61 -73c58 0 91 -12 91 -42c0 -38 -41 -95 -79 -95c-21 0 -42 15 -59 37c6 -16 14 -33 23 -51c42 -85 60 -144 60 -187c0 -104 -78 -158 -177 -158c-78 0 -151 53 -151 152c0 59 16 156 65 156c35 0 63 -45 63 -70
c0 -21 -9 -36 -26 -55c8 -44 42 -74 65 -74c10 0 21 6 21 23c0 51 -60 192 -60 254c0 42 22 78 76 101c-2 10 -3 21 -3 31c0 99 62 169 169 169c33 0 59 -7 126 -34c27 65 66 110 119 110z" />
    <glyph glyph-name="s_p" unicode="sp" horiz-adv-x="832" 
d="M416 -22l9 224c6 138 26 250 51 333c-53 9 -97 13 -115 13c-37 0 -59 -25 -61 -73c58 0 91 -12 91 -42c0 -38 -41 -95 -79 -95c-21 0 -42 15 -59 37c6 -16 14 -33 23 -51c42 -85 60 -144 60 -187c0 -104 -78 -158 -177 -158c-78 0 -151 53 -151 152c0 59 16 156 65 156
c35 0 63 -45 63 -70c0 -21 -9 -36 -26 -55c8 -44 42 -74 65 -74c10 0 21 6 21 23c0 51 -60 192 -60 254c0 42 22 78 76 101c-2 10 -3 21 -3 31c0 99 62 169 169 169c59 0 148 -20 220 -20c33 0 55 2 82 5c8 -10 11 -21 11 -34c0 -44 -33 -79 -72 -95
c-17 -51 -43 -160 -50 -225c64 95 128 143 170 143c49 0 79 -37 79 -90c0 -62 -44 -142 -110 -219c11 -7 21 -11 37 -11c23 0 86 37 153 132c19 0 39 -13 39 -33c0 -63 -165 -220 -257 -220c-69 0 -90 54 -90 97c0 24 9 43 36 51c18 35 31 67 31 89c0 21 -7 28 -20 28
s-32 -14 -70 -55c-12 -279 -35 -466 -96 -466c-47 0 -107 39 -107 89c0 28 15 79 52 146z" />
    <glyph glyph-name="s_r" unicode="sr" horiz-adv-x="726" 
d="M196 111c0 16 -4 34 -13 62c-12 1 -34 4 -49 4s-22 -2 -22 -18c0 -34 40 -71 63 -71c10 0 21 6 21 23zM501 286c-40 -61 -95 -105 -165 -110c2 -9 4 -34 4 -42c0 -111 -82 -161 -163 -161c-94 0 -184 66 -184 192c0 59 31 98 80 98c22 0 43 -3 88 -13
c-11 35 -23 80 -23 105c0 84 64 140 155 140c58 0 92 -25 92 -73c0 -21 -9 -42 -21 -54c-19 8 -37 12 -53 12c-21 0 -28 -14 -28 -32c0 -24 16 -58 31 -96c51 2 94 33 117 74c-8 9 -15 22 -15 41c0 52 56 190 107 190c42 0 76 -41 76 -73c0 -21 -7 -39 -22 -64
c14 -8 32 -15 55 -22c53 -17 66 -26 66 -54c0 -20 -10 -43 -26 -75c-23 -46 -49 -113 -49 -138c0 -14 4 -24 17 -24c28 0 98 62 151 145c25 0 42 -16 42 -31c0 -63 -171 -241 -263 -241c-61 0 -95 27 -95 84c0 66 59 169 59 195c0 12 -11 18 -33 27z" />
    <glyph glyph-name="s_s" unicode="ss" horiz-adv-x="716" 
d="M502 371c18 63 72 116 137 116c66 0 93 -42 93 -75c0 -25 -23 -46 -86 -78c12 -47 56 -125 56 -187c0 -121 -93 -168 -183 -168c-71 0 -139 37 -139 122c0 50 35 105 93 105c12 0 20 -3 27 -10c-3 -16 -4 -34 -4 -51c0 -42 24 -57 41 -57c10 0 21 6 21 23
c0 37 -35 117 -52 179c-57 -22 -115 -39 -176 -51c7 -25 20 -73 20 -100c0 -107 -77 -166 -173 -166c-83 0 -184 48 -184 190c0 70 41 99 169 119c-8 33 -13 70 -13 94c0 84 67 140 158 140c58 0 92 -25 92 -73c0 -21 -9 -42 -21 -54c-19 8 -37 12 -53 12
c-21 0 -32 -6 -32 -24c0 -20 6 -40 17 -70c51 10 153 42 192 64zM188 90c10 0 18 6 18 23c0 14 -11 55 -22 91c-49 -8 -69 -14 -69 -27c0 -39 43 -87 73 -87z" />
    <glyph glyph-name="t_t" unicode="tt" horiz-adv-x="598" 
d="M227 332c-27 -110 -36 -179 -36 -194c0 -17 3 -22 12 -22c41 0 122 111 153 216h-129zM387 425c27 167 63 272 157 272c40 0 58 -18 58 -56c0 -39 -17 -90 -75 -207c32 2 73 6 86 9c12 -9 19 -30 19 -45c0 -39 -34 -67 -119 -67h-17c-27 -110 -40 -181 -40 -196
c0 -21 6 -35 27 -35c41 0 114 59 182 155c19 0 40 -14 40 -34c0 -60 -173 -259 -296 -259c-63 0 -96 37 -96 112c0 12 1 31 4 47c-45 -80 -111 -138 -180 -138c-62 0 -98 39 -98 122c0 29 10 100 48 227c-20 2 -37 4 -37 26c0 31 22 59 63 60c30 125 58 202 120 202
c36 0 69 -48 69 -83c0 -31 -12 -58 -50 -121z" />
    <glyph glyph-name="u_u" unicode="uu" horiz-adv-x="906" 
d="M770 463c10 13 27 19 42 19c56 0 97 -40 97 -81c0 -18 -4 -38 -19 -78c-21 -57 -67 -166 -67 -185c0 -13 6 -16 14 -16c23 0 71 40 135 130c21 0 41 -13 41 -31c0 -36 -50 -101 -108 -152c-47 -42 -103 -83 -145 -83c-41 0 -66 13 -66 65c0 14 2 31 6 52
c-48 -91 -109 -133 -154 -133c-59 0 -73 34 -73 94c0 9 1 26 4 41c-51 -57 -116 -110 -167 -110c-41 0 -66 13 -66 65c0 14 2 31 6 52c-48 -91 -105 -124 -150 -124c-59 0 -81 34 -81 94c0 30 10 79 36 143c23 115 74 215 141 215c31 0 58 -10 58 -40
c0 -32 -16 -71 -67 -154c-10 -36 -14 -57 -14 -73s6 -26 20 -26c17 0 47 15 67 36c34 108 47 166 52 252c10 13 27 19 42 19c56 0 89 -59 89 -103c0 -18 -4 -38 -19 -78c-21 -57 -54 -116 -54 -135c0 -13 6 -16 14 -16c22 0 67 36 127 113c-7 16 -10 38 -10 51
c0 67 98 175 168 175c31 0 48 -10 48 -40c0 -32 -26 -92 -77 -175c-10 -36 -17 -72 -17 -88s6 -26 20 -26c17 0 49 24 69 45c34 108 53 200 58 286z" />
    <glyph glyph-name="v_r" unicode="vr" horiz-adv-x="729" 
d="M486 309c-15 -18 -45 -40 -77 -47c-7 -30 -16 -56 -27 -82c-55 -129 -141 -189 -223 -189c-76 0 -132 41 -132 141c0 50 20 115 60 172c-25 12 -29 34 -29 52c1 50 64 104 143 104c39 0 73 -16 73 -56c0 -4 0 -8 -1 -12c-64 -60 -103 -151 -103 -224c0 -39 10 -53 32 -53
c36 0 82 47 107 156c-18 16 -25 40 -25 62c0 40 36 109 72 109c37 0 63 -54 63 -98c11 5 27 18 33 24c2 55 46 199 96 199c34 0 68 -37 68 -58s-10 -41 -27 -73c14 -8 27 -15 49 -24c51 -21 65 -30 65 -58c0 -20 -10 -43 -26 -75c-23 -46 -51 -123 -51 -148
c0 -14 4 -24 17 -24c28 0 98 62 151 145c25 0 42 -16 42 -31c0 -63 -171 -241 -263 -241c-61 0 -95 27 -95 84c0 66 56 167 56 193c0 16 -8 28 -48 52z" />
    <glyph glyph-name="v_v" unicode="vv" horiz-adv-x="844" 
d="M500 296c-19 -7 -61 -21 -88 -29c-40 -197 -169 -289 -260 -289c-73 0 -125 43 -125 143c0 50 20 126 60 183c-20 8 -29 24 -29 42c1 47 54 86 117 86c39 0 73 -16 73 -56c0 -4 0 -8 -1 -12c-52 -57 -77 -161 -77 -207c0 -39 8 -55 25 -55c46 0 90 84 104 170
c-17 19 -23 41 -23 64c0 33 30 99 75 99c32 0 49 -37 63 -81c41 10 80 20 127 34c32 61 66 99 97 99c44 0 69 -35 69 -63c0 -29 -24 -63 -67 -89c-26 -67 -37 -127 -37 -177c0 -31 7 -46 26 -46c52 0 106 124 106 215c0 18 -3 56 -6 77c9 12 27 21 51 21
c55 0 74 -53 74 -103c0 -189 -157 -334 -276 -334c-85 0 -123 50 -123 141c0 47 16 108 45 167z" />
    <glyph glyph-name="w_r" unicode="wr" horiz-adv-x="923" 
d="M680 309c-15 -18 -45 -40 -77 -47c-37 -195 -150 -280 -245 -280c-39 0 -68 20 -85 67c-37 -35 -85 -60 -132 -60c-70 0 -119 37 -119 127c0 79 31 141 80 212c-19 16 -22 38 -22 56c1 62 75 122 154 122c53 0 73 -27 73 -61c0 -5 0 -10 -1 -15
c-65 -68 -129 -199 -129 -271c0 -31 10 -42 26 -42c10 0 32 2 48 16c-1 7 -1 22 -1 37c0 118 70 246 128 246c51 0 70 -33 70 -76c0 -45 -23 -128 -79 -200c2 -27 14 -40 28 -40c48 0 95 91 106 171c-18 16 -25 40 -25 62c0 40 36 109 72 109c37 0 63 -54 63 -98
c11 5 27 18 33 24c2 55 46 199 96 199c34 0 68 -37 68 -58s-10 -41 -27 -73c14 -8 27 -15 49 -24c51 -21 65 -30 65 -58c0 -20 -10 -43 -26 -75c-23 -46 -51 -123 -51 -148c0 -14 4 -24 17 -24c28 0 98 62 151 145c25 0 42 -16 42 -31c0 -63 -171 -241 -263 -241
c-61 0 -95 27 -95 84c0 66 56 167 56 193c0 16 -8 28 -48 52z" />
    <glyph glyph-name="w_w" unicode="ww" horiz-adv-x="1205" 
d="M531 450c32 0 49 -37 63 -81c45 10 90 23 137 40c32 71 73 110 107 110c50 0 86 -36 86 -68s-32 -64 -84 -100c-14 -28 -42 -114 -42 -175c0 -39 10 -60 29 -60c10 0 21 4 30 11c0 131 63 249 130 249c41 0 60 -31 60 -68c0 -45 -17 -96 -73 -168c2 -27 14 -40 28 -40
c58 0 91 126 91 217c0 24 -4 57 -5 78c9 15 28 25 51 25c55 0 75 -51 75 -100c0 -178 -118 -338 -250 -338c-36 0 -70 14 -90 54c-37 -35 -75 -60 -122 -60c-71 0 -109 50 -109 149c0 57 30 138 53 188c-19 -8 -57 -20 -94 -31c-12 -169 -100 -300 -232 -300
c-51 0 -80 25 -101 73c-37 -35 -81 -57 -128 -57c-70 0 -119 48 -119 138c0 195 161 339 242 339c31 0 53 -14 54 -48c-87 -91 -141 -182 -141 -248c0 -36 13 -53 45 -53c12 0 20 2 27 7c-2 17 -3 34 -3 51c0 99 36 181 105 181c36 0 58 -26 58 -69c0 -42 -13 -98 -48 -156
c2 -27 22 -40 36 -40c53 0 78 107 85 187c-17 19 -23 41 -23 64c0 33 27 99 72 99z" />
    <glyph glyph-name="w_w_w.begin" unicode="www" horiz-adv-x="1710" 
d="M144 -16c40 0 86 20 122 49c15 -47 45 -64 87 -64c125 0 234 157 256 318c20 3 38 6 58 11c-24 -46 -39 -107 -39 -164c0 -87 47 -135 117 -135c45 0 85 18 119 46c20 -43 57 -69 105 -69c126 0 214 131 233 295c26 10 59 23 79 37c-26 -50 -53 -121 -53 -180
c0 -92 36 -142 109 -142c41 0 81 21 112 49c22 -36 60 -50 95 -50c128 0 251 159 251 331c0 51 -22 97 -77 97c-23 0 -43 -9 -52 -24c1 -13 2 -30 2 -46c0 -81 -25 -235 -88 -235c-11 0 -21 12 -22 33c51 65 76 121 76 164c0 39 -19 72 -64 72c-65 0 -133 -111 -136 -241
c-6 -4 -17 -6 -24 -6c-13 0 -21 18 -21 48c0 57 31 141 45 169c52 36 87 64 87 98c0 38 -39 73 -89 73c-34 0 -77 -41 -110 -104c-45 -25 -94 -46 -126 -58c-12 43 -31 80 -65 80c-50 0 -76 -72 -76 -107c0 -21 5 -39 21 -57c-10 -77 -34 -173 -83 -173c-11 0 -25 15 -29 36
c37 58 51 111 51 155c0 41 -24 69 -61 69c-69 0 -106 -81 -109 -179c0 -15 0 -29 1 -44c-4 -5 -11 -8 -21 -8c-27 0 -37 20 -37 46c0 77 49 152 144 247c-1 28 -21 46 -56 46c-32 0 -87 -27 -128 -67c-58 -15 -99 -24 -145 -30c-10 36 -25 67 -58 67c-54 0 -89 -43 -89 -79
c0 -21 5 -40 19 -60c-2 -87 -43 -204 -85 -204c-11 0 -20 9 -20 32c55 72 69 125 69 173c0 43 -20 74 -70 74c-60 0 -124 -98 -124 -211v-35c-13 -9 -28 -11 -38 -11c-12 0 -23 9 -23 30c0 70 67 196 132 261c0 54 -21 82 -75 82c-82 0 -155 -57 -155 -123
c0 -16 3 -35 19 -50c-47 -56 -83 -136 -83 -207c0 -74 33 -125 122 -125z" />
    <glyph glyph-name="x_x" unicode="xx" horiz-adv-x="752" 
d="M312 314c38 49 82 97 114 119c-24 25 -34 37 -34 54c0 34 61 78 115 78c44 0 57 -38 93 -246c70 124 107 166 144 166c36 0 51 -17 51 -52c0 -9 -3 -22 -8 -29c-41 -14 -85 -67 -166 -182c14 -79 21 -109 47 -109c28 0 81 43 144 132c19 0 38 -16 38 -36
c0 -55 -151 -217 -258 -217c-54 0 -71 28 -88 99c-60 -95 -117 -136 -171 -136c-51 0 -83 33 -104 115c-3 12 -5 19 -8 30c-47 -75 -105 -115 -144 -115c-62 0 -94 32 -94 124c0 79 50 158 105 158c23 0 44 -14 51 -24c-6 -16 -22 -72 -22 -102c0 -12 3 -20 9 -20
c13 0 45 26 73 70c-30 104 -49 171 -81 221c8 36 39 61 79 61c61 0 84 -47 115 -159zM352 163c16 -60 24 -80 46 -80c15 0 38 19 88 98c-11 51 -20 107 -31 160c-38 -27 -81 -69 -119 -115c5 -22 10 -42 16 -63z" />
    <glyph glyph-name="y_y" unicode="yy" horiz-adv-x="778" 
d="M355 -198c0 58 44 135 79 209c-17 65 -32 151 -39 217c-4 -8 -10 -16 -15 -25c-41 -62 -101 -135 -127 -166c8 -33 11 -70 11 -96c0 -69 -41 -143 -112 -143c-37 0 -61 18 -61 52c0 31 15 87 32 132c-14 40 -30 92 -53 163c-8 24 -22 80 -22 120c0 85 65 177 137 177
c28 0 42 -16 42 -45c0 -32 -12 -69 -29 -109c1 -27 13 -91 32 -158c42 58 73 116 99 167c-22 22 -31 49 -31 77c0 49 27 68 49 68c27 0 53 -22 68 -48c37 53 97 83 137 83c44 0 61 -19 61 -51c-49 -35 -71 -76 -71 -129c0 -25 5 -82 19 -163c19 19 48 53 55 65
c-1 10 -2 22 -2 35c0 52 9 159 77 159c42 0 80 -56 80 -92c0 -26 -17 -60 -47 -98c6 -16 20 -29 32 -29c32 0 65 40 91 82c18 0 36 -15 36 -36c0 -60 -85 -138 -157 -138c-28 0 -54 7 -71 28c-13 -19 -56 -60 -75 -77c1 -10 2 -33 2 -43c0 -145 -54 -256 -140 -256
c-52 0 -87 28 -87 68z" />
    <glyph glyph-name="z_r" unicode="&#x7a;r" horiz-adv-x="812" 
d="M286 -71c-78 0 -134 57 -228 190c-22 8 -42 31 -42 56c0 48 34 85 98 97c0 0 37 -30 57 -50c40 18 83 66 83 66c-44 24 -64 37 -83 37c-14 0 -34 -6 -49 -15c-21 6 -33 20 -33 53c0 46 49 107 103 107c40 0 59 -8 156 -61c16 24 28 39 43 39c23 0 51 -32 51 -66
c0 -40 -38 -89 -102 -121c-40 -46 -78 -77 -120 -98c59 -53 83 -70 102 -70c38 0 107 58 192 228c-8 9 -15 22 -15 41c0 52 44 195 95 195c34 0 68 -37 68 -58s-10 -41 -27 -73c14 -8 60 -21 83 -28c53 -17 66 -26 66 -54c0 -20 -10 -43 -26 -75c-23 -46 -49 -113 -49 -138
c0 -14 4 -24 17 -24c28 0 98 62 151 145c25 0 42 -16 42 -31c0 -63 -171 -241 -263 -241c-61 0 -95 27 -95 84c0 66 59 169 59 195c0 12 -26 18 -48 27c-39 -108 -101 -199 -156 -253c-8 -62 -60 -104 -130 -104z" />
    <glyph glyph-name="z_z" unicode="&#x7a;&#x7a;" horiz-adv-x="820" 
d="M220 163l44 -62c24 -35 33 -42 62 -42c8 0 18 1 30 3c6 -9 9 -22 9 -34c0 -54 -56 -104 -123 -104c-70 0 -91 29 -184 195c-22 8 -42 31 -42 56c0 48 34 85 98 97c0 0 37 -30 57 -50c40 18 83 66 83 66c-44 24 -71 37 -90 37c-14 0 -27 -3 -44 -10c-20 8 -28 22 -28 48
c0 46 46 100 100 100c36 0 77 -11 156 -54c16 24 28 39 43 39c23 0 41 -22 41 -56c0 -65 -83 -148 -212 -229zM550 119c55 -62 76 -123 103 -123c26 0 61 61 93 121c34 -5 70 -39 70 -86c0 -87 -105 -177 -206 -177c-77 0 -121 47 -214 225c-22 8 -42 31 -42 56
c0 48 26 81 90 93c0 0 35 -32 55 -52c40 24 83 57 163 129c-44 24 -62 39 -81 39c-14 0 -34 -6 -49 -15c-21 6 -33 20 -33 53c0 46 49 107 103 107c40 0 59 -8 156 -61c16 24 28 39 43 39c23 0 51 -32 51 -66c0 -40 -38 -89 -102 -121c-40 -46 -158 -140 -200 -161z" />
    <glyph glyph-name="i_j" unicode="ij" horiz-adv-x="520" 
d="M65 215c-8 19 -10 42 -10 62c0 59 89 164 151 164c46 0 50 -25 50 -64c0 -26 -17 -68 -35 -110c-28 -69 -41 -94 -41 -117c0 -11 5 -15 14 -15c13 0 64 33 127 120c-4 14 -6 33 -6 43c0 64 100 164 162 164c38 0 49 -15 49 -47c0 -29 -14 -70 -51 -133
c-7 -33 -23 -114 -31 -169c46 30 94 72 142 139c19 0 39 -18 39 -38c0 -49 -105 -151 -193 -208c-4 -32 -8 -64 -11 -83c-18 -135 -101 -197 -180 -197c-73 0 -141 55 -141 134c0 50 26 82 117 131l80 43c2 26 8 75 12 105c-54 -74 -143 -145 -201 -145c-59 0 -78 26 -78 81
c0 35 10 78 35 140zM194 595c0 81 17 110 49 110c40 0 85 -44 85 -75c0 -24 -19 -63 -67 -122c-39 0 -67 29 -67 87zM456 626c0 81 17 110 49 110c40 0 77 -24 77 -55c0 -24 -15 -78 -58 -141c-44 0 -68 34 -68 86zM293 -56l-44 -24c-21 -11 -39 -22 -39 -37
c0 -29 35 -48 55 -48c15 0 20 12 22 40c3 37 6 69 6 69z" />
    <glyph glyph-name=".notdef" horiz-adv-x="406" 
d="M220 93h-44v53h44v-53zM215 185h-37l-1 13c0 29 3 51 10 64c7 14 19 30 37 47c34 33 39 46 39 67c0 37 -28 67 -60 67c-33 0 -59 -21 -65 -76l-40 7c8 74 51 108 107 108s98 -41 98 -104c0 -34 -10 -57 -50 -95c-20 -16 -31 -30 -34 -41c-2 -10 -4 -29 -4 -57zM39 39h327
v489h-327v-489zM0 569h406v-569h-406v569z" />
    <glyph glyph-name=".null" horiz-adv-x="0" 
 />
    <glyph glyph-name=".null" horiz-adv-x="0" 
 />
    <glyph glyph-name="CR" unicode="&#xd;" horiz-adv-x="148" 
 />
    <glyph glyph-name="space" unicode=" " horiz-adv-x="220" 
 />
    <glyph glyph-name="exclam" unicode="!" horiz-adv-x="500" 
d="M324 229c-5 -3 -16 -6 -26 -6c-42 0 -66 46 -66 92c0 44 12 146 36 236c-8 19 -12 42 -12 62c0 52 72 113 146 113c42 0 56 -16 56 -47c0 -26 -16 -78 -52 -143c-32 -93 -57 -186 -82 -307zM226 -12c-43 0 -81 40 -81 80c0 49 74 98 129 98c36 0 47 -15 47 -43
c0 -58 -41 -135 -95 -135z" />
    <glyph glyph-name="quotedbl" unicode="&#x22;" horiz-adv-x="545" 
d="M156 374c22 77 33 151 33 215c0 19 0 39 -4 61c9 26 30 40 67 40c60 0 83 -35 83 -68c0 -56 -45 -172 -99 -247c-11 -15 -29 -24 -44 -24c-23 0 -32 9 -36 23zM399 374c22 77 43 171 43 235c0 19 0 39 -4 61c9 26 30 40 67 40c60 0 74 -45 74 -78
c0 -56 -46 -182 -100 -257c-11 -15 -29 -24 -44 -24c-23 0 -32 9 -36 23z" />
    <glyph glyph-name="numbersign" unicode="#" horiz-adv-x="517" 
d="M178 389c8 48 18 102 24 151c7 4 17 6 26 6c33 0 55 -28 55 -72c0 -20 -7 -52 -12 -77l54 5c10 51 17 90 18 140c8 6 22 10 36 10c36 0 62 -21 62 -61c0 -19 -9 -49 -15 -76c29 6 51 13 69 21c14 -6 24 -18 24 -39c0 -35 -35 -57 -113 -63l-22 -72c28 3 46 6 68 14
c12 -8 16 -20 16 -32c0 -32 -25 -56 -107 -57c-15 -59 -22 -87 -24 -131c-5 -6 -12 -10 -23 -10c-26 0 -47 22 -47 54c0 22 4 44 11 81l-70 -4c-15 -60 -20 -81 -22 -112c-5 -4 -12 -8 -23 -8c-23 0 -42 18 -42 53c0 14 4 35 11 65h-58c-6 4 -9 13 -9 20c0 28 15 43 82 46
c7 32 11 52 17 82l-63 -3c-4 4 -8 13 -8 20c0 21 16 43 85 49zM314 330l-64 -2l-22 -80l66 4z" />
    <glyph glyph-name="dollar" unicode="$" horiz-adv-x="413" 
d="M122 190c8 -45 52 -105 94 -105c11 0 27 6 27 23c0 52 -99 144 -99 233c0 67 38 136 136 150c18 67 25 108 27 127c9 5 24 8 35 8c30 0 51 -19 51 -48c0 -19 -8 -45 -28 -90c38 -10 61 -35 61 -69c0 -22 -9 -43 -22 -55c-19 8 -52 14 -76 14c-34 0 -48 -14 -48 -39
c0 -43 106 -126 106 -204c0 -99 -81 -146 -158 -159c-3 -19 -4 -39 -4 -57c0 -30 4 -62 13 -92c-6 -14 -22 -22 -41 -22c-49 0 -67 32 -67 77c0 28 4 58 12 97c-57 13 -106 52 -106 119c0 52 36 92 87 92z" />
    <glyph glyph-name="percent" unicode="%" horiz-adv-x="699" 
d="M251 129c90 97 197 212 244 292c-30 -6 -102 -9 -149 -10c-4 -131 -85 -213 -156 -213c-76 0 -106 58 -106 127c0 104 73 217 137 217c7 0 14 -1 20 -5c7 8 16 13 34 13c25 0 48 -26 61 -60c51 0 158 7 186 15c24 88 51 112 74 112c39 0 68 -39 68 -72
c0 -86 -113 -230 -353 -475c-54 -56 -69 -79 -69 -116c0 -8 1 -18 2 -24c-5 -18 -23 -26 -40 -26c-36 0 -54 29 -54 62c0 45 20 75 101 163zM495 -139c-72 0 -108 38 -108 108c0 92 75 206 135 206c5 0 15 -3 20 -5c9 9 21 14 37 14c35 0 67 -46 67 -119
c0 -130 -77 -204 -151 -204zM182 342c0 -28 15 -43 31 -43c23 0 33 42 33 83c0 7 -1 29 -2 44c-7 8 -14 26 -17 41c-18 -27 -45 -80 -45 -125zM485 -15c0 -24 13 -31 20 -31c22 0 39 30 39 69c0 20 -4 57 -15 70c-18 -17 -44 -64 -44 -108z" />
    <glyph glyph-name="ampersand" unicode="&#x26;" horiz-adv-x="785" 
d="M161 340c-27 49 -40 112 -40 166c0 69 39 204 127 204c11 0 23 -6 27 -16c15 25 41 42 78 42c60 0 101 -50 101 -104c0 -73 -35 -137 -144 -273c26 -45 62 -96 92 -132c46 54 83 122 100 173c-8 -1 -25 -2 -35 -2c-21 0 -29 17 -29 30c0 36 25 63 60 77
c47 19 157 40 238 40c59 0 83 -14 83 -55c0 -47 -52 -136 -85 -136c-14 0 -26 8 -33 37c-20 6 -62 9 -84 10c-36 -94 -98 -189 -156 -255c128 -167 171 -191 241 -191c18 0 41 5 62 12c12 -4 18 -17 18 -29c0 -68 -85 -115 -156 -115c-96 0 -139 21 -278 208
c-61 -49 -129 -73 -185 -73c-92 0 -148 54 -148 137c0 75 39 142 146 245zM219 103c21 0 53 12 72 26c-29 37 -53 71 -77 114c-25 -36 -40 -70 -40 -99c0 -22 10 -41 45 -41zM262 645c-15 -23 -23 -61 -23 -88c0 -36 10 -82 30 -117c46 63 68 107 68 134c0 20 -12 29 -48 40
c-20 7 -27 15 -27 31z" />
    <glyph glyph-name="quotesingle" unicode="'" horiz-adv-x="295" 
d="M156 384c22 77 33 151 33 215c0 19 0 39 -4 61c9 26 30 40 67 40c60 0 86 -45 86 -78c0 -54 -34 -152 -102 -237c-12 -15 -29 -24 -44 -24c-23 0 -32 9 -36 23z" />
    <glyph glyph-name="parenleft" unicode="(" horiz-adv-x="475" 
d="M307 94c0 -106 25 -187 75 -232c-1 -31 -30 -55 -75 -55c-70 0 -147 63 -147 263c0 297 206 599 365 599c31 0 43 -12 43 -31c0 -7 -1 -12 -5 -18c-171 -88 -256 -326 -256 -526z" />
    <glyph glyph-name="parenright" unicode=")" horiz-adv-x="465" 
d="M263 384c0 106 -25 187 -75 232c1 31 30 55 75 55c70 0 147 -63 147 -263c0 -297 -206 -599 -365 -599c-31 0 -43 12 -43 31c0 7 1 12 5 18c171 88 256 326 256 526z" />
    <glyph glyph-name="asterisk" unicode="*" horiz-adv-x="511" 
d="M461 661c0 -26 -12 -65 -35 -122c32 12 79 32 101 50c25 -9 39 -30 39 -55c0 -41 -41 -65 -136 -81c22 -41 41 -65 70 -84c3 -8 4 -17 4 -23c0 -37 -41 -67 -79 -67c-45 0 -71 38 -99 125c-36 -41 -46 -55 -56 -92c-10 -7 -24 -11 -37 -11c-37 0 -59 25 -59 57
c0 35 25 60 85 108c-36 29 -65 44 -91 51c-8 11 -13 25 -13 45c0 40 32 72 68 72c28 0 52 -22 101 -78c4 27 4 72 4 96c0 15 -1 37 -3 55c10 17 30 28 58 28c51 0 78 -36 78 -74z" />
    <glyph glyph-name="plus" unicode="+" horiz-adv-x="522" 
d="M185 255c23 1 44 3 63 4c10 51 18 122 18 160c8 10 24 15 41 15c36 0 67 -27 67 -81c0 -12 -6 -52 -16 -87c48 4 92 10 124 24c19 -6 28 -26 28 -44c0 -48 -44 -75 -174 -83c-10 -43 -32 -114 -39 -144c-5 -5 -18 -9 -32 -9c-29 0 -48 25 -48 71c0 19 5 56 10 81
c-45 0 -100 2 -129 4c-7 6 -10 18 -10 26c0 30 26 58 97 63z" />
    <glyph glyph-name="comma" unicode="," horiz-adv-x="389" 
d="M99 -103c48 25 93 68 93 94c0 22 -12 44 -50 60c-6 11 -8 23 -8 34c0 49 34 87 87 87c63 0 103 -53 103 -114c0 -111 -110 -221 -181 -221c-31 0 -47 16 -47 41c0 6 1 12 3 19z" />
    <glyph glyph-name="hyphen" unicode="-" horiz-adv-x="462" 
d="M215 254c74 25 110 43 168 85c27 -1 53 -30 53 -62c0 -67 -80 -101 -257 -122c-15 5 -26 21 -26 39c0 28 14 43 62 60z" />
    <glyph glyph-name="period" unicode="." horiz-adv-x="371" 
d="M216 -17c-48 0 -81 47 -81 100c0 49 51 83 106 83c46 0 70 -18 70 -43c0 -58 -41 -140 -95 -140z" />
    <glyph glyph-name="slash" unicode="/" horiz-adv-x="540" 
d="M513 620c2 1 6 1 8 1c23 0 49 -25 49 -67c0 -66 -35 -122 -262 -416c-93 -120 -114 -172 -118 -237c-5 -8 -15 -13 -30 -13c-37 0 -56 32 -56 66c0 48 13 77 108 209c97 133 226 319 301 457z" />
    <glyph glyph-name="zero" unicode="0" horiz-adv-x="410" 
d="M190 -7c-104 0 -158 57 -158 160c0 137 108 294 196 294c12 0 22 -3 31 -12c12 15 30 25 57 25c50 0 99 -53 99 -161c0 -194 -114 -306 -225 -306zM166 182c0 -46 23 -59 40 -59c39 0 72 54 72 119c0 37 -14 89 -36 111c-30 -24 -76 -92 -76 -171z" />
    <glyph glyph-name="one" unicode="1" horiz-adv-x="292" 
d="M76 70c0 36 17 82 79 211c-16 -18 -53 -35 -67 -35c-31 0 -47 18 -47 56c113 72 182 137 227 208c4 1 9 1 12 1c38 0 57 -35 57 -65c0 -29 -7 -55 -43 -151c-47 -127 -62 -221 -65 -285c-7 -12 -21 -19 -50 -19c-59 0 -103 39 -103 79z" />
    <glyph glyph-name="two" unicode="2" horiz-adv-x="387" 
d="M396 340c0 -73 -40 -129 -220 -224c48 -29 68 -38 92 -38c15 0 41 11 78 32c14 -7 24 -26 24 -46c0 -60 -91 -121 -151 -121c-51 0 -99 21 -206 103c0 48 13 74 79 114c122 73 159 116 159 163c0 28 -15 46 -36 46c-20 0 -36 -26 -43 -109c-4 -3 -14 -6 -26 -6
c-37 0 -62 24 -62 74c0 74 55 144 172 144c99 0 140 -62 140 -132z" />
    <glyph glyph-name="three" unicode="3" horiz-adv-x="388" 
d="M70 14c8 -53 48 -89 87 -89c27 0 45 14 45 38c0 38 -35 81 -146 132c0 54 40 95 93 95c8 0 16 -1 24 -3c55 45 71 97 71 127c0 28 -14 47 -35 47c-20 0 -36 -26 -43 -109c-4 -3 -14 -6 -26 -6c-37 0 -62 24 -62 74c0 74 60 147 177 147c99 0 143 -65 143 -135
c0 -62 -36 -120 -137 -181c69 -43 84 -92 84 -137c0 -112 -83 -191 -207 -191c-100 0 -161 55 -161 116c0 54 34 82 68 82c9 0 17 -2 25 -7z" />
    <glyph glyph-name="four" unicode="4" horiz-adv-x="430" 
d="M394 115c14 -7 25 -23 25 -43c0 -41 -34 -78 -95 -92c-7 -64 -12 -117 -12 -143c-7 -17 -22 -25 -51 -25c-57 0 -111 36 -111 79c0 20 5 41 22 99c-52 15 -110 43 -159 81c-2 11 -3 23 -3 33c0 34 13 62 55 93c139 102 243 224 287 285c4 1 7 1 10 1c36 0 62 -26 62 -65
c0 -29 -5 -59 -28 -123c-26 -74 -42 -137 -55 -203c18 4 34 11 53 23zM132 150c24 -14 46 -24 73 -33c11 46 26 96 46 151c-36 -42 -66 -73 -119 -118z" />
    <glyph glyph-name="five" unicode="5" horiz-adv-x="371" 
d="M346 15c0 -112 -84 -192 -208 -192c-100 0 -161 55 -161 116c0 54 34 82 68 82c9 0 17 -2 25 -7c8 -53 48 -89 87 -89c27 0 45 14 45 38c0 38 -33 71 -93 116c-45 4 -60 14 -60 28c0 3 1 6 2 10c33 95 60 215 70 282c7 48 14 56 34 56c19 0 73 -31 115 -31
c32 0 80 5 112 12c15 -8 25 -28 25 -46c0 -56 -56 -109 -120 -109c-24 0 -44 6 -83 24c-7 -31 -22 -74 -34 -101c132 -54 176 -118 176 -189z" />
    <glyph glyph-name="six" unicode="6" horiz-adv-x="400" 
d="M195 178c0 -46 15 -57 32 -57c20 0 36 21 36 67c0 43 -14 91 -39 129c-17 -43 -29 -89 -29 -139zM485 537c0 -11 -5 -21 -10 -25c-130 0 -184 -64 -233 -150c12 14 31 22 58 22c44 0 104 -36 104 -144c0 -137 -106 -247 -211 -247c-97 0 -146 61 -146 191
c0 186 161 413 337 413c70 0 101 -24 101 -60z" />
    <glyph glyph-name="seven" unicode="7" horiz-adv-x="373" 
d="M198 457c59 0 127 -33 200 -33c15 -8 25 -28 25 -46c0 -63 -97 -159 -169 -305c-52 -106 -66 -181 -66 -247c-7 -17 -22 -25 -51 -25c-54 0 -103 56 -103 109s43 123 256 397c-41 7 -85 13 -108 13c-24 0 -38 -21 -53 -73c-2 -1 -9 -2 -14 -2c-25 0 -52 24 -52 68
c0 74 57 144 135 144z" />
    <glyph glyph-name="eight" unicode="8" horiz-adv-x="390" 
d="M97 406c0 87 68 188 190 188c70 0 129 -50 129 -133c0 -76 -63 -138 -115 -138c-3 0 -8 0 -13 1c70 -88 86 -134 86 -174c0 -100 -77 -174 -198 -174c-102 0 -162 60 -162 131c0 60 37 112 121 183c-21 32 -38 70 -38 116zM146 153c0 -52 28 -65 48 -65c15 0 28 10 28 33
c0 26 -7 47 -52 109c-17 -31 -24 -64 -24 -77zM262 354c18 31 24 56 24 86c0 28 -12 52 -31 52c-16 0 -27 -18 -28 -51c0 -21 9 -50 35 -87z" />
    <glyph glyph-name="nine" unicode="9" horiz-adv-x="391" 
d="M250 281c0 41 -13 67 -30 67c-20 0 -39 -35 -39 -81c0 -38 12 -72 48 -106c17 48 21 94 21 120zM-42 -99c0 12 4 28 15 39c147 7 183 59 223 134c-99 0 -156 58 -156 139c0 137 106 247 211 247c87 0 140 -64 140 -191c0 -261 -199 -448 -331 -448c-65 0 -102 32 -102 80
z" />
    <glyph glyph-name="colon" unicode=":" horiz-adv-x="443" 
d="M229 -17c-48 0 -81 47 -81 100c0 49 23 83 67 83c59 0 107 -62 107 -90c0 -40 -39 -93 -93 -93zM311 228c-48 0 -81 66 -81 119c0 41 20 69 75 69c54 0 83 -32 83 -69c0 -73 -37 -119 -77 -119z" />
    <glyph glyph-name="semicolon" unicode=";" horiz-adv-x="443" 
d="M301 233c-48 0 -70 65 -70 118c0 41 16 66 66 66c54 0 91 -48 91 -85c0 -53 -38 -99 -87 -99zM106 -89c46 25 89 49 89 74c0 20 -20 44 -58 61c-4 9 -6 19 -6 28c0 38 32 75 87 75s104 -39 104 -92c0 -121 -110 -203 -174 -203c-30 0 -45 15 -45 38c0 6 1 12 3 19z" />
    <glyph glyph-name="less" unicode="&#x3c;" horiz-adv-x="465" 
d="M155 168c-15 -3 -30 -5 -45 -5c-18 0 -28 8 -28 24c0 38 40 72 107 91c74 48 148 111 221 189c24 -3 37 -25 37 -47c0 -43 -34 -104 -156 -191c74 -62 98 -108 98 -151c0 -46 -32 -88 -69 -88c-5 0 -11 1 -16 3c-17 41 -42 77 -149 175z" />
    <glyph glyph-name="equal" unicode="=" horiz-adv-x="522" 
d="M167 158c152 11 191 8 251 34c20 -5 31 -21 31 -43c0 -62 -66 -88 -192 -88c-41 0 -124 7 -164 10c-7 6 -10 18 -10 26c0 30 22 57 84 61zM197 357c152 11 201 8 261 34c20 -5 31 -21 31 -43c0 -62 -76 -88 -202 -88c-41 0 -134 7 -174 10c-7 6 -10 18 -10 26
c0 30 26 56 94 61z" />
    <glyph glyph-name="greater" unicode="&#x3e;" horiz-adv-x="465" 
d="M362 274c15 3 30 5 45 5c18 0 28 -8 28 -24c0 -38 -40 -72 -107 -91c-74 -48 -148 -111 -221 -189c-24 3 -37 25 -37 47c0 43 34 104 156 191c-74 62 -98 108 -98 151c0 46 32 88 69 88c5 0 11 -1 16 -3c17 -41 42 -77 149 -175z" />
    <glyph glyph-name="question" unicode="?" horiz-adv-x="500" 
d="M247 -13c-48 0 -101 35 -101 88c0 43 49 91 106 91c46 0 64 -22 64 -56c0 -70 -25 -123 -69 -123zM351 321c-5 -16 -7 -33 -7 -53c0 -10 1 -21 3 -33c-7 -11 -21 -20 -49 -20c-42 0 -76 38 -76 85c0 32 16 56 85 101c98 65 113 83 113 114c0 16 -10 36 -64 36
c-18 0 -49 -2 -76 -6c-20 10 -29 33 -29 55c0 63 51 119 139 119c100 0 181 -78 181 -170c0 -66 -28 -93 -220 -228z" />
    <glyph glyph-name="at" unicode="@" horiz-adv-x="942" 
d="M531 161l29 186c-45 -29 -79 -103 -79 -172c0 -25 7 -32 20 -32c12 0 22 7 30 18zM795 374c0 116 -73 196 -200 196c-202 0 -352 -233 -352 -417c0 -169 81 -263 221 -263c59 0 114 21 176 79c20 -4 31 -17 31 -35c0 -64 -123 -170 -254 -170c-189 0 -297 137 -297 342
c0 289 236 572 495 572c187 0 294 -104 294 -280c0 -167 -161 -396 -315 -396c-40 0 -68 18 -68 79c0 9 1 21 2 30c-28 -82 -72 -106 -103 -106c-51 0 -91 50 -91 132c0 113 100 275 202 275c13 0 24 -2 28 -7l6 67c7 8 29 12 38 12c57 0 111 -42 111 -73
c0 -12 -3 -29 -11 -54c-36 -112 -48 -176 -48 -199c0 -18 12 -21 19 -21c40 0 116 108 116 237z" />
    <glyph glyph-name="A" unicode="A" horiz-adv-x="850" 
d="M195 214c56 1 115 4 187 8c58 76 164 232 265 377c19 77 68 141 151 141c54 0 82 -35 85 -67c0 -20 -16 -36 -95 -87c-14 -73 -22 -180 -27 -268c24 -4 39 -19 39 -48c0 -28 -18 -59 -43 -80c0 -43 0 -66 15 -66c14 0 71 29 142 129h4c19 0 38 -14 38 -33
c0 -67 -178 -245 -275 -245c-62 0 -88 28 -88 85c0 32 0 46 3 95c-43 -4 -109 -8 -160 -10c-112 -162 -181 -210 -271 -210c-97 0 -155 59 -155 161c0 81 57 152 132 152c28 0 46 -11 53 -34zM204 67c33 0 60 17 107 71c-57 -2 -101 -2 -142 -2c-2 -7 -3 -17 -3 -22
c0 -32 16 -47 38 -47zM500 230c33 2 77 5 103 8c5 52 16 164 28 222c-33 -62 -98 -175 -131 -230z" />
    <glyph glyph-name="B" unicode="B" horiz-adv-x="690" 
d="M420 584c-17 -101 -33 -174 -48 -230c11 2 25 3 42 3c15 0 32 -1 48 -3c33 53 48 108 48 143c0 44 -22 75 -90 87zM305 583c-87 -11 -172 -39 -209 -113c-6 -3 -15 -5 -23 -5c-27 0 -43 23 -43 59c0 112 147 218 362 218c196 0 278 -80 278 -194
c0 -64 -44 -147 -120 -221c99 -52 122 -126 122 -170c0 -106 -70 -183 -215 -183c-70 0 -132 19 -231 84c-42 -34 -63 -48 -87 -48c-25 0 -65 39 -65 101c0 38 35 48 113 55c50 106 98 283 118 417zM481 92c25 0 45 16 45 42c0 52 -44 94 -175 150c-14 -49 -35 -96 -66 -140
c79 -27 158 -52 196 -52z" />
    <glyph glyph-name="C" unicode="C" horiz-adv-x="510" 
d="M254 -46c-134 0 -212 85 -212 244c0 250 204 529 378 529c99 0 139 -50 139 -135c0 -93 -59 -193 -130 -193c-25 0 -36 6 -42 18c16 38 25 106 25 128c0 46 -14 63 -34 63c-55 0 -162 -193 -162 -366c0 -95 27 -142 114 -142c83 0 187 65 247 157c21 0 38 -8 38 -32
c0 -76 -186 -271 -361 -271z" />
    <glyph glyph-name="D" unicode="D" horiz-adv-x="728" 
d="M72 152c25 0 46 -2 83 -6c46 88 110 318 134 431c-15 2 -21 2 -40 2c-68 0 -116 -16 -176 -62c-31 0 -49 27 -49 59c0 65 84 163 269 163c275 0 418 -186 418 -417c0 -181 -111 -343 -306 -343c-61 0 -128 19 -216 61c-40 -32 -67 -43 -93 -43c-45 0 -70 65 -70 107
c0 25 14 48 46 48zM553 290c0 99 -48 197 -147 252c-37 -184 -96 -349 -139 -421c64 -18 105 -28 143 -28c101 0 143 92 143 197z" />
    <glyph glyph-name="E" unicode="E" horiz-adv-x="514" 
d="M236 -54c-125 0 -202 71 -202 174c0 71 50 155 156 206c-29 31 -50 80 -50 139c0 127 115 262 253 262c93 0 134 -44 134 -119c0 -99 -61 -146 -117 -146c-22 0 -32 8 -36 18c13 27 20 54 20 80c0 38 -13 51 -29 51c-36 0 -77 -71 -77 -148c0 -35 8 -74 18 -100
c22 5 55 8 74 8c38 0 48 -11 48 -25c0 -57 -47 -113 -96 -113c-19 0 -46 11 -67 27c-27 -28 -45 -71 -45 -99c0 -50 27 -82 86 -82c94 0 219 90 277 178c21 0 38 -8 38 -32c0 -64 -175 -279 -385 -279z" />
    <glyph glyph-name="F" unicode="F" horiz-adv-x="655" 
d="M127 545c0 -40 23 -80 92 -120c0 -36 -27 -68 -81 -68c-61 0 -124 74 -124 164c0 112 75 216 218 216c49 0 81 -2 158 -16c252 -45 328 -52 425 -53c7 -7 12 -26 12 -38c0 -63 -61 -105 -136 -105c-34 0 -86 5 -131 18c-15 -45 -23 -84 -34 -147c16 -2 30 -5 43 -5
c49 1 79 7 105 15c9 -7 18 -25 18 -39c0 -66 -50 -98 -118 -98c-27 0 -68 9 -68 9c-3 -17 -25 -106 -28 -120c-40 -178 -129 -308 -271 -308c-100 0 -153 56 -153 143c0 75 47 159 284 317c-17 14 -27 35 -27 55c0 17 8 34 27 44c9 5 21 7 35 8c14 57 32 98 65 156
c-106 34 -178 45 -232 45s-79 -26 -79 -73zM325 204c-115 -107 -144 -160 -144 -197c0 -41 15 -56 37 -56c37 0 76 82 107 253z" />
    <glyph glyph-name="G" unicode="G" horiz-adv-x="576" 
d="M530 184l-4 -51c-4 -155 -51 -352 -244 -352c-137 0 -237 76 -237 184c0 45 22 81 66 98c-34 35 -51 89 -51 154c0 258 223 514 400 514c89 0 122 -51 122 -121c0 -89 -53 -167 -115 -167c-19 0 -36 6 -42 18c8 23 19 71 19 100c0 38 -8 50 -26 50
c-76 0 -202 -194 -202 -360c0 -66 33 -98 84 -98c26 0 58 8 88 22c8 128 0 175 73 175c55 0 110 -18 110 -50s-16 -65 -41 -116zM234 17c-23 0 -43 3 -61 9c34 -72 88 -121 149 -121c74 0 59 77 63 168c-45 -34 -100 -56 -151 -56z" />
    <glyph glyph-name="H" unicode="H" horiz-adv-x="872" 
d="M523 778c49 0 82 -45 82 -171c0 -83 -22 -230 -43 -309c27 6 63 13 89 23c55 316 112 405 217 405c56 0 97 -32 97 -85c0 -17 -9 -37 -20 -48c-83 -8 -96 -22 -137 -184c24 -11 34 -35 34 -54c0 -45 -33 -82 -61 -102c-11 -60 -20 -113 -20 -131c0 -21 4 -26 14 -26
c16 0 84 44 164 156c20 0 39 -12 39 -33c0 -66 -177 -260 -301 -260c-46 0 -71 22 -71 77c0 28 10 101 26 180c-21 -6 -64 -13 -104 -18c-64 -154 -172 -279 -314 -279c-105 0 -186 82 -186 189c0 92 53 143 209 156c63 5 113 8 173 12c14 69 32 216 32 272
c0 43 -36 81 -36 128c0 72 62 102 117 102zM253 165c-54 -3 -72 -16 -72 -37c0 -40 46 -81 87 -81c47 0 87 56 114 128c-51 -5 -81 -7 -129 -10z" />
    <glyph glyph-name="I" unicode="I" horiz-adv-x="503" 
d="M160 639c0 41 32 69 112 69c74 0 123 -2 171 -2c46 0 82 6 124 20c22 -11 38 -35 38 -63c0 -66 -56 -102 -138 -102c-53 -232 -87 -366 -111 -438c40 0 76 -1 114 -3c9 -12 14 -31 14 -46c0 -64 -57 -83 -162 -83c-83 0 -142 7 -297 8c-6 6 -10 17 -10 30
c0 53 44 77 179 88c37 131 77 309 111 470c-45 8 -92 17 -136 22c-6 8 -9 19 -9 30z" />
    <glyph glyph-name="J" unicode="J" horiz-adv-x="718" 
d="M324 -71c43 0 77 29 102 78c-63 2 -174 24 -235 51c19 -77 71 -129 133 -129zM539 567c-61 0 -126 -169 -139 -255c-13 -5 -25 -7 -36 -7c-46 0 -74 39 -74 98c0 116 134 319 306 319c94 0 137 -51 137 -159c0 -109 -54 -335 -100 -452c55 27 104 69 150 141
c19 0 36 -12 36 -32c0 -56 -87 -159 -228 -216c-71 -138 -165 -202 -293 -202c-165 0 -278 116 -278 253c0 113 62 159 124 159c31 0 45 -25 45 -57c72 -32 206 -65 268 -69c50 131 99 368 99 446c0 20 -4 33 -17 33z" />
    <glyph glyph-name="K" unicode="K" horiz-adv-x="694" 
d="M229 403c30 103 47 182 47 208c0 18 -6 26 -18 26c-28 0 -116 -84 -116 -152c0 -42 27 -63 87 -82zM401 310c46 57 102 163 143 259c57 133 84 148 137 148c63 0 98 -52 98 -103c0 -16 -5 -36 -18 -50c-39 -3 -52 -13 -114 -102c-61 -88 -111 -147 -158 -188
c36 -24 71 -95 106 -165c12 -24 22 -30 37 -30c9 0 29 3 41 6c8 -9 12 -24 12 -36c0 -55 -76 -105 -147 -105c-38 0 -56 15 -81 69c-63 137 -85 184 -131 199l-46 -212c-9 -9 -24 -13 -42 -13c-54 0 -112 51 -112 106c0 37 24 98 66 158l13 61c-9 -1 -22 -2 -31 -2
c-87 0 -160 52 -160 139c0 143 190 318 313 318c70 0 102 -38 102 -91c0 -31 -30 -171 -78 -369c14 2 31 3 50 3z" />
    <glyph glyph-name="L" unicode="L" horiz-adv-x="627" 
d="M221 297c-57 8 -99 40 -99 80c0 30 16 53 42 69c29 -22 65 -39 96 -45c43 119 90 235 117 279c35 56 81 77 131 77c117 0 195 -80 195 -166c0 -100 -102 -220 -325 -290c-12 -35 -47 -95 -76 -137c268 -45 325 -126 325 -196c0 -50 -30 -90 -66 -100
c-73 63 -168 115 -366 160c-36 -34 -66 -55 -97 -55c-50 0 -96 79 -96 134c0 47 27 69 102 69c17 0 36 -1 58 -3c23 44 42 83 59 124zM463 570l-56 -167c105 42 171 106 171 164c0 31 -35 56 -75 56c-13 0 -27 -9 -40 -53z" />
    <glyph glyph-name="M" unicode="M" horiz-adv-x="1040" 
d="M193 58c47 0 129 91 297 452c-10 37 -14 60 -14 99c0 82 80 178 171 178c54 0 77 -28 77 -52c0 -25 -20 -62 -68 -130c13 -72 38 -197 49 -288l166 200c30 124 89 185 172 185c36 0 71 -21 71 -61c0 -31 -55 -73 -115 -133c-36 -151 -51 -331 -51 -378
c0 -12 6 -16 15 -16c14 0 74 39 143 138c20 0 39 -12 39 -33c0 -66 -175 -242 -271 -242c-61 0 -82 27 -82 85c0 78 8 139 45 290l-122 -150c0 -92 -79 -211 -165 -211c-47 0 -82 28 -82 80c0 25 15 48 76 105c-6 82 -17 179 -21 207c-141 -347 -249 -460 -379 -460
c-98 0 -148 55 -148 152c0 108 58 179 128 179c28 0 47 -12 55 -30c-19 -42 -29 -85 -29 -108c0 -44 11 -55 43 -58z" />
    <glyph glyph-name="N" unicode="N" horiz-adv-x="862" 
d="M724 321c70 348 98 419 196 419c54 0 87 -34 87 -84c0 -17 -9 -37 -20 -48c-87 -9 -98 -30 -196 -400c5 -28 10 -76 10 -111c0 -77 -53 -125 -117 -125c-52 0 -80 19 -80 48c0 23 9 54 33 119c-19 50 -78 162 -125 239c-131 -344 -232 -455 -348 -455
c-98 0 -139 50 -139 142c0 108 58 179 128 179c28 0 47 -12 55 -30c-19 -42 -29 -85 -29 -108c0 -36 6 -48 27 -48c37 0 97 80 242 422c-14 44 -20 74 -20 113c0 82 62 157 153 157c54 0 77 -28 77 -52c0 -27 -17 -63 -65 -142c30 -63 106 -176 131 -235z" />
    <glyph glyph-name="O" unicode="O" horiz-adv-x="655" 
d="M516 94c-56 -75 -141 -126 -245 -126c-145 0 -224 86 -224 263c0 236 208 498 363 498c33 0 55 -25 57 -58c20 13 46 22 76 22c88 0 133 -78 133 -160s-32 -233 -103 -350c10 -8 29 -13 45 -13c31 0 70 29 105 86c18 -1 39 -14 39 -36c0 -45 -77 -149 -168 -149
c-28 0 -58 8 -78 23zM226 266c0 -90 34 -151 99 -151c39 0 78 17 102 52c-42 51 -68 121 -68 213c0 95 20 168 58 240c-96 -63 -191 -195 -191 -354zM496 271c34 68 51 171 51 202c0 45 -9 72 -57 77c-8 -43 -16 -95 -16 -147c0 -47 6 -93 22 -132z" />
    <glyph glyph-name="P" unicode="P" horiz-adv-x="659" 
d="M440 780c28 0 30 -8 30 -54c179 -13 243 -111 243 -231c0 -203 -191 -365 -352 -372c-49 -139 -131 -217 -241 -217c-69 0 -112 40 -112 100c0 40 34 77 70 79c21 -23 42 -37 61 -37c32 0 57 48 83 142c32 117 68 281 93 385c-57 -10 -114 -36 -142 -62
c-22 0 -46 18 -46 53c0 65 93 136 227 156c8 33 54 58 86 58zM556 451c0 56 -23 106 -114 123c-10 -84 -28 -214 -50 -327c5 -1 11 -1 14 -1c87 0 150 97 150 205z" />
    <glyph glyph-name="Q" unicode="Q" horiz-adv-x="631" 
d="M-20 16c0 38 19 60 97 60c38 0 104 -11 164 -32c165 172 268 345 268 455c0 27 -12 45 -58 75c-20 13 -31 26 -31 51c0 7 1 15 4 22c-132 -92 -178 -219 -178 -298c0 -70 15 -108 68 -153c-2 -39 -37 -55 -63 -55c-118 0 -178 95 -178 187c0 113 71 279 200 362
c44 28 87 40 127 40c28 0 46 -13 48 -34c20 31 59 37 80 37c103 0 163 -86 163 -181c0 -184 -131 -365 -341 -554c139 -53 299 -135 456 -135c29 0 54 2 82 8c21 63 33 78 49 78c39 0 61 -44 61 -69c0 -42 -24 -70 -98 -101c-33 -46 -85 -69 -165 -69
c-164 0 -402 124 -509 201c-39 -21 -85 -33 -130 -33c-58 0 -116 70 -116 138z" />
    <glyph glyph-name="R" unicode="R" horiz-adv-x="680" 
d="M430 289c64 86 83 135 83 195c0 53 -31 96 -117 102c-2 -63 -20 -165 -51 -293c10 2 21 3 33 3c19 0 38 -3 52 -7zM676 79c8 -9 12 -24 12 -36c0 -55 -70 -114 -152 -114c-38 0 -56 15 -81 69c-63 137 -89 185 -135 200c-18 -73 -32 -158 -34 -192
c-8 -11 -25 -18 -50 -18c-57 0 -95 59 -95 98c0 27 7 67 50 193c29 86 63 185 99 303c-83 -10 -158 -83 -192 -150c-6 -3 -15 -5 -23 -5c-27 0 -43 23 -43 59c0 102 171 253 384 253c172 0 258 -84 258 -202c0 -99 -59 -187 -172 -292c21 -20 61 -72 96 -142
c12 -24 22 -30 37 -30c9 0 29 3 41 6z" />
    <glyph glyph-name="S" unicode="S" horiz-adv-x="538" 
d="M15 125c0 73 39 158 109 158c17 0 32 -5 41 -16v-19c0 -136 62 -196 129 -196c38 0 68 35 68 86c0 33 -6 60 -99 178c-53 68 -70 124 -70 186c0 111 86 230 212 230c108 0 151 -62 151 -122c0 -39 -21 -71 -43 -82c-53 44 -90 64 -127 64c-22 0 -40 -19 -40 -48
c0 -32 17 -71 75 -152c84 -119 98 -161 98 -220c0 -113 -104 -248 -272 -248c-154 0 -232 91 -232 201z" />
    <glyph glyph-name="T" unicode="T" horiz-adv-x="610" 
d="M522 120c-41 -138 -131 -204 -240 -204c-83 0 -145 54 -145 126c0 46 29 78 80 79c28 -37 70 -73 94 -73c32 0 51 47 73 142c39 169 47 222 62 269c-80 -38 -195 -70 -284 -70c-90 0 -147 51 -147 150c0 121 100 228 203 228c61 0 119 -8 206 -28
c249 -57 317 -69 431 -71c7 -5 13 -21 13 -33c0 -68 -62 -110 -137 -110c-43 0 -55 2 -108 18c-29 -85 -70 -320 -101 -423zM235 509c72 0 164 19 188 19c17 0 35 -5 42 -15c6 18 23 47 36 60c-185 61 -257 77 -300 77c-38 0 -63 -25 -63 -65c0 -52 37 -76 97 -76z" />
    <glyph glyph-name="U" unicode="U" horiz-adv-x="632" 
d="M36 619c0 72 89 127 207 127c95 0 139 -53 139 -123c0 -63 -14 -127 -72 -276c-38 -97 -49 -146 -49 -176c0 -49 21 -72 63 -72c69 0 148 121 200 346c-10 45 -15 89 -15 127c0 77 22 132 74 132c56 0 115 -55 115 -93c0 -35 -7 -65 -41 -151
c-76 -352 -219 -495 -375 -495c-121 0 -195 64 -195 174c0 50 18 120 39 173c67 171 84 232 84 264c0 25 -12 31 -28 31c-20 0 -57 -23 -93 -57c-31 5 -53 40 -53 69z" />
    <glyph glyph-name="V" unicode="V" horiz-adv-x="717" 
d="M649 735c87 0 135 -77 135 -167c0 -270 -239 -584 -436 -584c-130 0 -173 76 -173 176c0 40 14 92 41 155c-91 3 -166 57 -166 143c0 142 214 290 332 290c73 0 119 -31 119 -117c0 -78 -46 -167 -118 -336c-24 -57 -32 -89 -32 -122c0 -28 12 -51 45 -51
c83 0 230 194 230 392c0 47 -20 98 -71 157c8 43 45 64 94 64zM184 483c0 -33 18 -55 70 -82c43 93 83 162 83 198c0 25 -6 29 -19 29c-28 0 -134 -74 -134 -145z" />
    <glyph glyph-name="W" unicode="W" horiz-adv-x="947" 
d="M216 315c-91 3 -166 57 -166 143c0 142 214 290 332 290c73 0 119 -31 119 -117c0 -78 -60 -177 -132 -346c-24 -57 -32 -92 -32 -125c0 -28 16 -51 49 -51c35 0 67 34 106 88c0 185 86 384 178 384c43 0 72 -25 72 -69c0 -111 -71 -236 -140 -338c9 -38 24 -63 49 -63
c83 0 204 205 204 403c0 56 -20 91 -74 151c8 43 42 64 91 64c87 0 132 -80 132 -170c0 -270 -180 -573 -377 -573c-50 0 -93 28 -119 88c-65 -73 -131 -104 -200 -104c-101 0 -145 61 -145 154c0 38 15 111 53 191zM184 483c0 -33 18 -55 70 -82c43 93 83 162 83 198
c0 25 -6 29 -19 29c-28 0 -134 -74 -134 -145z" />
    <glyph glyph-name="X" unicode="X" horiz-adv-x="786" 
d="M49 108c0 114 118 286 364 385l-11 55c-27 10 -39 31 -39 65c0 51 59 144 118 144c52 0 74 -46 117 -264c109 151 160 190 214 190c45 0 74 -26 74 -67c0 -13 -4 -27 -10 -37c-93 -32 -137 -58 -258 -209c40 -233 51 -255 85 -255c36 0 90 54 151 140c24 0 37 -17 37 -36
c0 -62 -149 -241 -273 -241c-78 0 -112 36 -145 214c-111 -176 -185 -235 -274 -235c-80 0 -150 46 -150 151zM427 418c-152 -102 -208 -207 -208 -269c0 -26 13 -39 34 -39c44 0 104 74 198 201z" />
    <glyph glyph-name="Y" unicode="Y" horiz-adv-x="726" 
d="M619 74c64 46 118 98 174 182c18 -1 35 -11 35 -33c0 -75 -143 -208 -249 -276c-42 -90 -118 -171 -212 -171c-46 0 -111 35 -111 88c0 41 63 86 213 162c14 34 25 89 38 147c-54 -74 -130 -118 -200 -118c-77 0 -121 51 -121 125c0 36 9 76 31 135
c-91 3 -167 58 -167 144c0 142 233 279 351 279c67 0 102 -28 102 -82c0 -38 -7 -59 -109 -284c-35 -78 -40 -99 -40 -122c0 -22 13 -34 32 -34c43 0 97 25 137 69c36 311 71 432 136 432c51 0 104 -55 104 -93c0 -35 -17 -72 -57 -145c-23 -122 -51 -259 -63 -314
c-7 -30 -16 -65 -24 -91zM184 484c0 -33 15 -56 67 -83c43 93 87 159 87 195c0 17 -6 22 -19 22c-28 0 -135 -63 -135 -134z" />
    <glyph glyph-name="Z" unicode="Z" horiz-adv-x="572" 
d="M498 494c-90 27 -163 48 -210 48c-18 0 -46 -8 -80 -28c-26 8 -43 31 -43 72c0 72 58 134 129 134c76 0 145 -19 292 -75c20 31 35 49 54 49c40 0 71 -48 71 -84c0 -42 -31 -88 -110 -140c-92 -131 -163 -200 -284 -304c159 -234 187 -256 237 -256c39 0 82 14 130 40
c14 -7 28 -30 28 -56c0 -77 -115 -162 -229 -162c-105 0 -148 47 -301 336c-29 -26 -75 -50 -103 -50c-25 0 -41 19 -41 87c0 67 40 175 133 175c29 0 49 -10 81 -37c84 66 201 186 246 251z" />
    <glyph glyph-name="bracketleft" unicode="[" horiz-adv-x="464" 
d="M264 619c7 34 24 54 79 54c47 0 143 1 188 9c14 -10 19 -25 19 -42c0 -50 -70 -94 -163 -94c-52 -243 -102 -455 -151 -603l147 -16c5 -8 7 -17 7 -25c0 -48 -54 -84 -163 -84c-91 0 -117 28 -117 73c0 23 3 42 17 98c36 140 106 477 137 630z" />
    <glyph glyph-name="backslash" unicode="\" horiz-adv-x="470" 
d="M401 -104c-4 -10 -16 -20 -33 -20c-57 0 -68 38 -147 448c-26 133 -45 203 -69 247c4 37 27 51 58 51c57 0 87 -63 106 -209c21 -163 53 -381 85 -517z" />
    <glyph glyph-name="bracketright" unicode="]" horiz-adv-x="482" 
d="M173 -61c31 122 95 433 129 602c-98 11 -141 40 -141 79c0 15 4 26 11 34c65 7 175 14 219 14c45 0 66 -18 66 -53c0 -10 -2 -29 -5 -43c-54 -250 -89 -413 -157 -665c-18 -67 -49 -92 -97 -92c-102 0 -173 40 -173 86c0 12 2 19 11 31c11 0 119 6 137 7z" />
    <glyph glyph-name="asciicircum" unicode="^" horiz-adv-x="423" 
d="M280 436c0 101 -3 127 -20 127c-24 0 -69 -59 -106 -177c-8 -3 -15 -4 -24 -4c-24 0 -42 18 -42 53c0 75 110 264 229 264c83 0 99 -56 99 -226c0 -12 1 -33 2 -53c-14 -25 -50 -47 -87 -47c-38 0 -51 21 -51 63z" />
    <glyph glyph-name="underscore" unicode="_" horiz-adv-x="462" 
d="M157 88c152 11 179 18 239 44c20 -5 31 -21 31 -43c0 -62 -66 -93 -192 -93c-41 0 -102 2 -142 5c-7 6 -10 18 -10 26c0 27 14 57 74 61z" />
    <glyph glyph-name="grave" unicode="`" horiz-adv-x="290" 
d="M183 767c8 -73 25 -158 47 -216c-1 -16 -13 -29 -36 -29c-41 0 -90 57 -124 153c-2 7 -4 15 -4 23c0 43 30 83 83 83c15 0 27 -6 34 -14z" />
    <glyph glyph-name="a" unicode="a" horiz-adv-x="439" 
d="M237 116c-32 -91 -78 -116 -113 -116c-57 0 -99 47 -99 138c0 150 124 307 224 307c14 0 21 -2 26 -7l3 58c8 9 21 13 35 13c68 0 105 -46 105 -81c0 -13 -3 -38 -11 -66c-35 -126 -48 -189 -48 -215c0 -20 4 -23 12 -23c20 0 72 38 136 128c21 0 37 -13 37 -31
c0 -65 -166 -226 -238 -226c-44 0 -72 18 -72 82c0 11 1 24 3 39zM238 165l32 208c-50 -32 -98 -115 -98 -192c0 -37 12 -41 26 -41s28 10 40 25z" />
    <glyph glyph-name="b" unicode="b" horiz-adv-x="405" 
d="M423 343c0 -154 -131 -356 -262 -356c-81 0 -124 55 -124 182c0 248 128 563 256 563c40 0 65 -20 65 -68c0 -40 -36 -115 -158 -286c-10 -62 -17 -136 -17 -172c0 -87 5 -101 17 -101c37 0 92 93 92 159c0 38 -10 52 -46 63c-2 9 -3 16 -3 24c0 52 46 101 99 101
c54 0 81 -33 81 -109z" />
    <glyph glyph-name="c" unicode="c" horiz-adv-x="338" 
d="M165 -9c-98 0 -140 61 -140 169c0 154 123 306 230 306c68 0 102 -36 102 -97c0 -64 -45 -115 -93 -115c-22 0 -35 7 -43 19c7 27 10 50 10 63c0 14 -7 21 -13 21c-19 0 -54 -64 -54 -165c0 -55 15 -77 54 -77c56 0 133 57 187 141c18 0 39 -12 39 -33
c0 -69 -158 -232 -279 -232z" />
    <glyph glyph-name="d" unicode="d" horiz-adv-x="418" 
d="M30 154c0 146 121 290 201 290c31 0 46 -17 46 -43c0 -4 0 -8 -1 -12c-73 -47 -105 -153 -105 -224c0 -34 10 -44 30 -44c42 0 103 156 103 318c0 116 -63 175 -157 181c-9 8 -13 21 -13 33c0 47 40 95 129 95c113 0 188 -94 188 -245c0 -311 -162 -512 -289 -512
c-80 0 -132 52 -132 163z" />
    <glyph glyph-name="e" unicode="e" horiz-adv-x="359" 
d="M240 327c0 21 -8 33 -20 33c-14 0 -41 -34 -48 -104c56 10 68 41 68 71zM168 -9c-98 0 -143 61 -143 169c0 151 123 305 220 305c69 0 107 -33 107 -103c0 -84 -49 -149 -186 -180c0 -45 9 -70 48 -70c68 0 156 58 213 145c24 -1 38 -17 38 -33
c0 -74 -167 -233 -297 -233z" />
    <glyph glyph-name="f" unicode="f" horiz-adv-x="350" 
d="M202 260c-22 -139 -80 -310 -101 -361c-1 -3 -2 -7 -2 -9c0 -7 5 -10 12 -10c38 0 121 175 121 283c0 47 -12 82 -30 97zM100 417c4 35 11 104 15 145c14 139 30 157 81 157c53 0 115 -62 115 -125c0 -32 -22 -80 -75 -172c31 1 122 5 135 8c12 -9 19 -27 19 -42
c0 -38 -25 -67 -58 -67c-23 0 -43 1 -63 3c38 -21 64 -71 64 -141c0 -180 -152 -434 -284 -434c-68 0 -100 32 -100 87c0 38 5 64 61 231c24 71 63 203 75 265c-19 1 -28 9 -28 25c0 28 21 58 43 60z" />
    <glyph glyph-name="g" unicode="g" horiz-adv-x="439" 
d="M-17 -89c0 41 31 86 82 89c41 -63 86 -114 118 -114c15 0 24 10 28 39c3 23 11 90 18 165c-13 -25 -57 -74 -104 -74c-57 0 -100 40 -100 131c0 135 124 270 216 270c14 0 21 -2 26 -7c4 36 6 77 6 101c8 9 27 14 38 14c63 0 112 -46 112 -81c0 -39 -18 -75 -33 -148
c-12 -57 -23 -135 -30 -197c42 30 98 84 144 153c25 0 43 -14 43 -32c0 -49 -106 -162 -195 -225c0 0 -4 -21 -7 -40c-18 -135 -105 -181 -184 -181c-81 0 -178 58 -178 137zM262 344c-57 -31 -90 -112 -90 -169c0 -37 10 -42 24 -42c16 0 27 6 41 20c8 61 17 144 25 191z
" />
    <glyph glyph-name="h" unicode="h" horiz-adv-x="459" 
d="M60 209c39 365 80 523 208 523c43 0 65 -20 65 -71c0 -44 -22 -102 -100 -231l-24 -94c72 66 134 98 173 98c38 0 58 -24 58 -59c0 -31 -9 -62 -24 -100c-17 -44 -50 -125 -50 -150c0 -11 5 -15 14 -15c18 0 80 49 145 142c19 0 39 -13 39 -33c0 -63 -170 -238 -262 -238
c-59 0 -79 26 -79 81c0 66 52 181 52 203c0 8 -3 16 -14 16c-17 0 -41 -11 -68 -34c-10 -71 -17 -146 -18 -239c-9 -10 -26 -14 -46 -14c-58 0 -101 53 -102 105c0 31 8 67 33 110z" />
    <glyph glyph-name="i" unicode="i" horiz-adv-x="254" 
d="M194 595c0 81 17 110 49 110c40 0 85 -44 85 -75c0 -24 -19 -63 -67 -122c-39 0 -67 29 -67 87zM65 215c-8 19 -10 42 -10 62c0 59 89 164 151 164c46 0 50 -25 50 -64c0 -26 -17 -68 -35 -110c-28 -69 -41 -101 -41 -124c0 -11 5 -15 14 -15c14 0 59 32 126 127
c19 0 39 -16 39 -36c0 -63 -159 -232 -251 -232c-59 0 -79 26 -79 81c0 44 11 85 36 147z" />
    <glyph glyph-name="j" unicode="j" horiz-adv-x="266" 
d="M178 6c-4 -32 -8 -64 -11 -83c-18 -135 -101 -197 -180 -197c-73 0 -121 55 -121 134c0 46 15 71 97 123l80 51c5 56 14 131 24 181c-8 19 -10 42 -10 62c0 59 101 171 163 171c38 0 49 -15 49 -47c0 -29 -16 -77 -53 -140c-7 -33 -18 -93 -26 -148c46 30 94 72 142 139
c19 0 39 -18 39 -38c0 -49 -105 -151 -193 -208zM39 -56l-35 -24c-20 -13 -28 -22 -28 -37c0 -29 15 -48 35 -48c15 0 20 12 22 40c3 37 6 69 6 69zM199 629c0 78 13 96 40 96c40 0 84 -44 84 -75c0 -24 -8 -62 -56 -121c-47 0 -68 43 -68 100z" />
    <glyph glyph-name="k" unicode="k" horiz-adv-x="463" 
d="M60 209c42 374 85 523 210 523c43 0 70 -20 70 -71c0 -44 -22 -100 -95 -242c-22 -44 -44 -109 -50 -152l67 28c10 21 22 43 35 61c45 62 74 82 101 82c49 0 72 -40 72 -78c0 -46 -12 -56 -115 -107c0 -108 10 -145 34 -145c26 0 66 43 136 144c19 0 39 -11 39 -31
c0 -58 -154 -245 -246 -245c-64 0 -89 43 -89 155c0 25 2 51 5 73l-45 -18c-4 -45 -6 -88 -7 -173c-11 -12 -30 -19 -53 -19c-58 0 -101 53 -102 105c0 31 8 67 33 110z" />
    <glyph glyph-name="l" unicode="l" horiz-adv-x="260" 
d="M61 289c12 65 30 159 39 227c18 135 89 216 168 216c43 0 70 -20 70 -71c0 -44 -20 -93 -95 -234c-27 -97 -74 -271 -74 -296c0 -11 5 -15 14 -15c31 0 90 57 142 138c19 0 38 -14 38 -34c0 -76 -162 -233 -263 -233c-58 0 -79 25 -79 77c0 67 32 183 40 225z" />
    <glyph glyph-name="m" unicode="m" horiz-adv-x="670" 
d="M407 284c82 123 137 166 181 166c46 0 68 -35 68 -74c0 -26 -9 -61 -27 -103c-18 -44 -58 -131 -58 -156c0 -11 5 -15 14 -15c18 0 82 52 151 150c19 0 39 -13 39 -33c0 -63 -175 -244 -267 -244c-59 0 -79 26 -79 81c0 66 59 185 59 207c0 8 -4 12 -12 12
c-9 0 -44 -21 -83 -75c-14 -77 -24 -133 -27 -201c-10 -10 -19 -15 -40 -15c-56 0 -94 23 -95 83c0 38 16 97 34 145c8 22 17 45 17 55c0 9 -4 12 -12 12c-9 0 -33 -15 -72 -69c-14 -77 -23 -133 -26 -201c-10 -10 -17 -13 -40 -13c-56 0 -97 53 -98 113c0 38 11 90 28 136
c-8 19 -10 42 -10 62c0 59 80 133 142 133c29 0 43 -12 43 -42c0 -25 -7 -60 -31 -113c73 126 123 155 167 155c38 0 59 -26 59 -59c0 -26 -1 -49 -25 -97z" />
    <glyph glyph-name="n" unicode="n" horiz-adv-x="473" 
d="M60 235c-8 19 -10 42 -10 62c0 59 89 164 151 164c34 0 43 -12 43 -42c0 -25 -13 -95 -40 -144c73 126 142 171 186 171c46 0 69 -30 69 -69c0 -27 -8 -62 -29 -110c-18 -44 -50 -115 -50 -140c0 -11 5 -15 14 -15c20 0 83 51 145 140c19 0 39 -13 39 -33
c0 -63 -169 -232 -261 -232c-59 0 -79 26 -79 81c0 66 51 167 51 189c0 8 -4 12 -12 12c-9 0 -42 -15 -81 -69c-14 -77 -20 -122 -23 -190c-10 -10 -17 -13 -40 -13c-56 0 -97 53 -98 113c0 38 8 79 25 125z" />
    <glyph glyph-name="o" unicode="o" horiz-adv-x="412" 
d="M338 428c41 0 61 -54 61 -99c0 -48 -10 -87 -31 -142c3 -3 10 -7 20 -7c29 0 58 23 91 76c18 0 39 -15 39 -36c0 -42 -67 -136 -152 -136c-18 0 -29 3 -40 10c-48 -65 -101 -101 -171 -101c-71 0 -127 47 -127 145c0 166 110 320 216 320c26 0 58 -11 59 -44
c10 10 19 14 35 14zM170 175c0 -49 18 -63 36 -63c24 0 48 23 66 68c-8 31 -11 60 -11 87c0 34 7 87 22 116c-62 -29 -113 -126 -113 -208z" />
    <glyph glyph-name="p" unicode="p" horiz-adv-x="465" 
d="M104 -257c-47 0 -107 39 -107 89c0 28 15 79 52 146l10 290c6 171 97 254 168 254c41 0 67 -19 67 -48c0 -3 0 -7 -1 -11c-37 -33 -70 -82 -91 -166c64 95 128 143 170 143c49 0 79 -37 79 -90c0 -62 -44 -142 -110 -219c11 -7 21 -11 37 -11c23 0 86 37 153 132
c19 0 39 -13 39 -33c0 -63 -165 -220 -257 -220c-69 0 -90 54 -90 97c0 24 9 43 36 51c18 35 31 67 31 89c0 21 -7 28 -20 28s-32 -14 -70 -55c-12 -279 -35 -466 -96 -466z" />
    <glyph glyph-name="q" unicode="q" horiz-adv-x="439" 
d="M262 359c-57 -31 -90 -114 -90 -171c0 -40 6 -48 23 -48c13 0 25 6 42 23c8 61 17 149 25 196zM215 -43c3 23 9 82 16 143c-20 -59 -65 -100 -107 -100c-63 0 -99 57 -99 146c0 123 121 286 216 286c14 0 21 -2 26 -7c4 36 6 62 6 86c8 9 27 14 38 14
c63 0 112 -46 112 -81c0 -39 -18 -75 -33 -148c-12 -57 -23 -142 -30 -204c37 29 97 91 143 160c27 0 44 -16 44 -33c0 -49 -110 -171 -198 -235l-6 -87c4 -19 17 -61 17 -96c0 -32 -11 -58 -49 -58c-66 0 -132 59 -132 103c0 36 16 72 36 111z" />
    <glyph glyph-name="r" unicode="r" horiz-adv-x="383" 
d="M279 382c59 -17 71 -31 71 -55c0 -20 -11 -44 -27 -76c-23 -46 -43 -95 -43 -120c0 -14 4 -24 17 -24c28 0 98 62 151 145c25 0 42 -16 42 -31c0 -63 -171 -241 -263 -241c-61 0 -95 27 -95 84c0 66 49 151 49 177c0 12 -11 18 -33 27c-31 -59 -54 -94 -87 -131
c-25 0 -40 18 -40 39c0 8 2 17 7 24c26 37 45 62 62 103c-8 9 -15 22 -15 41c0 70 105 169 161 169c34 0 57 -16 57 -43c0 -7 -1 -14 -3 -20c-24 -13 -45 -28 -58 -50c11 -6 30 -13 47 -18z" />
    <glyph glyph-name="s" unicode="s" horiz-adv-x="367" 
d="M73 287c35 0 63 -45 63 -70c0 -21 -9 -36 -26 -55c8 -44 42 -74 65 -74c10 0 21 6 21 23c0 51 -58 172 -58 234c0 84 68 142 159 142c58 0 92 -25 92 -73c0 -21 -9 -42 -21 -54c-19 8 -37 12 -53 12c-21 0 -32 -6 -32 -24c0 -45 57 -128 57 -201
c0 -121 -103 -168 -193 -168c-78 0 -139 53 -139 152c0 59 16 156 65 156z" />
    <glyph glyph-name="t" unicode="t" horiz-adv-x="329" 
d="M39 115c0 29 10 90 48 217c-20 2 -37 4 -37 26c0 31 22 59 63 60c1 21 2 37 6 74c9 88 63 151 131 151c46 0 67 -16 67 -59c0 -31 -12 -55 -65 -161c31 1 73 4 86 7c12 -9 19 -27 19 -42c0 -38 -25 -67 -58 -67c-23 0 -44 1 -73 6c-27 -110 -35 -166 -35 -181
c0 -24 6 -35 27 -35c41 0 110 48 178 144c19 0 40 -14 40 -34c0 -59 -153 -238 -268 -238c-77 0 -129 40 -129 132z" />
    <glyph glyph-name="u" unicode="u" horiz-adv-x="453" 
d="M313 447c10 13 27 19 42 19c56 0 97 -40 97 -81c0 -18 -4 -38 -19 -78c-21 -57 -63 -150 -63 -169c0 -13 6 -16 14 -16c23 0 71 40 135 130c21 0 41 -13 41 -31c0 -36 -50 -101 -108 -152c-47 -42 -100 -74 -142 -74c-41 0 -66 13 -66 65c0 14 2 31 6 52
c-48 -91 -109 -133 -154 -133c-59 0 -73 34 -73 94c0 30 14 88 40 152c-11 21 -13 42 -13 62c0 62 96 174 166 174c31 0 48 -10 48 -40c0 -32 -26 -92 -77 -175c-10 -36 -16 -66 -16 -82s6 -26 20 -26c17 0 49 24 69 45c34 108 48 178 53 264z" />
    <glyph glyph-name="v" unicode="v" horiz-adv-x="427" 
d="M437 370c0 -215 -148 -379 -278 -379c-76 0 -132 41 -132 141c0 50 20 115 60 172c-25 12 -29 34 -29 52c1 50 64 104 143 104c39 0 73 -16 73 -56c0 -4 0 -8 -1 -12c-64 -60 -103 -151 -103 -224c0 -39 10 -53 32 -53c41 0 106 110 106 252c0 18 -3 56 -6 77
c9 12 27 21 51 21c62 0 84 -45 84 -95z" />
    <glyph glyph-name="w" unicode="w" horiz-adv-x="605" 
d="M102 328c-19 16 -22 38 -22 56c1 62 75 122 154 122c53 0 73 -27 73 -61c0 -5 0 -10 -1 -15c-65 -68 -129 -199 -129 -271c0 -31 10 -42 26 -42c10 0 32 2 48 16c-1 7 -1 22 -1 37c0 118 70 246 128 246c51 0 70 -33 70 -76c0 -45 -23 -128 -79 -200c2 -27 14 -40 28 -40
c55 0 88 166 88 247c0 24 -4 57 -5 78c9 15 28 25 51 25c64 0 83 -59 83 -100c0 -178 -115 -368 -256 -368c-39 0 -68 20 -85 67c-37 -35 -85 -60 -132 -60c-70 0 -119 37 -119 127c0 79 31 141 80 212z" />
    <glyph glyph-name="x" unicode="x" horiz-adv-x="465" 
d="M126 121c13 0 44 30 72 74c-16 61 -28 95 -37 111c-50 0 -68 16 -68 50c0 59 66 132 120 132c19 0 42 -7 58 -42c13 -28 27 -70 40 -117c67 115 89 134 122 134c38 0 54 -38 54 -69c0 -9 -4 -28 -9 -35c-44 -15 -63 -27 -143 -125c5 -22 12 -50 17 -71
c8 -33 16 -40 37 -40c28 0 81 43 144 132c19 0 37 -16 37 -36c0 -53 -156 -229 -244 -229c-54 0 -82 20 -97 80c-3 12 -6 23 -9 34c-47 -75 -104 -119 -143 -119c-62 0 -94 32 -94 124c0 79 50 158 105 158c23 0 44 -14 51 -24c-6 -16 -22 -72 -22 -102c0 -12 3 -20 9 -20z
" />
    <glyph glyph-name="y" unicode="y" horiz-adv-x="434" 
d="M116 -43c-8 38 -16 65 -46 176c-20 73 -29 110 -29 164c0 99 86 172 156 172c44 0 61 -19 61 -51c-49 -35 -60 -68 -60 -121c0 -25 9 -80 29 -154c19 19 38 44 45 56c-1 10 -2 22 -2 35c0 48 8 109 23 151c14 41 28 57 54 57c44 0 85 -61 85 -103c0 -36 -15 -79 -52 -136
c6 -16 20 -29 32 -29c32 0 65 40 91 82c18 0 38 -15 38 -36c0 -60 -87 -138 -159 -138c-28 0 -54 7 -71 28c-13 -19 -41 -45 -60 -62c5 -33 8 -73 8 -93c0 -104 -61 -199 -155 -199c-48 0 -64 25 -64 59c0 31 18 80 76 142z" />
    <glyph glyph-name="z" unicode="z" horiz-adv-x="410" 
d="M220 163l44 -62c14 -20 23 -24 38 -24s36 10 78 32c14 -7 24 -26 24 -46c0 -67 -92 -129 -158 -129c-76 0 -96 23 -188 185c-22 8 -42 31 -42 56c0 48 34 85 98 97c0 0 37 -30 57 -50c40 18 83 66 83 66c-44 24 -64 37 -83 37c-14 0 -34 -6 -49 -15c-21 6 -33 20 -33 53
c0 46 49 107 103 107c40 0 59 -8 156 -61c16 24 28 39 43 39c23 0 51 -32 51 -66c0 -40 -38 -89 -102 -121c-40 -46 -78 -77 -120 -98z" />
    <glyph glyph-name="braceleft" unicode="{" horiz-adv-x="553" 
d="M366 244c14 -21 21 -44 21 -72c0 -63 -36 -141 -36 -210c0 -37 16 -60 77 -79c1 -3 1 -7 1 -10c0 -35 -33 -69 -96 -69c-94 0 -138 69 -138 129c0 90 70 180 70 241c0 23 -14 38 -56 38c-12 0 -47 -2 -60 -5c-12 12 -19 26 -19 49c0 29 24 71 89 71c22 0 58 -6 81 -22
c41 24 53 48 53 88c0 34 -8 92 -8 133c0 87 61 157 172 157c48 0 81 -22 81 -53c0 -10 -3 -21 -7 -27c-83 -10 -98 -20 -98 -84v-111c0 -69 -30 -143 -127 -164z" />
    <glyph glyph-name="bar" unicode="|" horiz-adv-x="448" 
d="M293 674c7 4 19 6 29 6c43 0 71 -38 71 -105c0 -51 -19 -138 -100 -425c-31 -108 -47 -202 -51 -276c-6 -7 -15 -11 -29 -11c-29 0 -48 32 -48 71c0 50 8 98 31 203c35 161 80 381 97 537z" />
    <glyph glyph-name="braceright" unicode="}" horiz-adv-x="558" 
d="M297 242c-14 21 -21 44 -21 72c0 63 36 141 36 210c0 37 -16 60 -77 79c-1 3 -1 7 -1 10c0 35 33 69 96 69c94 0 138 -69 138 -129c0 -90 -70 -180 -70 -241c0 -23 14 -38 56 -38c12 0 47 2 60 5c12 -12 19 -26 19 -49c0 -29 -24 -71 -89 -71c-22 0 -58 6 -81 22
c-41 -24 -53 -48 -53 -88c0 -34 8 -92 8 -133c0 -87 -61 -157 -172 -157c-48 0 -81 22 -81 53c0 10 3 21 7 27c83 10 98 20 98 84v111c0 69 30 143 127 164z" />
    <glyph glyph-name="asciitilde" unicode="~" horiz-adv-x="500" 
d="M236 650c129 15 153 32 184 66c44 -9 64 -44 64 -77c0 -66 -59 -101 -205 -108c-71 -3 -101 -13 -124 -36c-24 3 -47 24 -47 57c0 49 30 85 128 98z" />
    <glyph glyph-name="uni00A0" unicode="&#xa0;" horiz-adv-x="220" 
 />
    <glyph glyph-name="exclamdown" unicode="&#xa1;" horiz-adv-x="355" 
d="M140 222c5 3 16 6 26 6c42 0 66 -46 66 -92c0 -44 -12 -146 -36 -236c8 -19 12 -42 12 -62c0 -52 -72 -113 -146 -113c-42 0 -56 16 -56 47c0 26 16 78 52 143c32 93 57 186 82 307zM238 463c43 0 81 -40 81 -80c0 -49 -74 -98 -129 -98c-36 0 -47 15 -47 43
c0 58 41 135 95 135z" />
    <glyph glyph-name="cent" unicode="&#xa2;" horiz-adv-x="435" 
d="M420 407c0 41 -21 69 -64 77c22 47 30 74 30 94c0 29 -21 48 -51 48c-11 0 -26 -3 -35 -8c-2 -20 -9 -66 -29 -138c-146 -37 -217 -186 -217 -335c0 -97 43 -144 109 -160c-8 -42 -13 -74 -13 -103c0 -45 18 -77 67 -77c19 0 35 8 41 22c-9 30 -13 62 -13 92
c0 20 2 42 6 64c93 25 146 101 146 150c0 21 -12 39 -31 44c-47 -54 -84 -85 -124 -85c-31 0 -49 19 -49 69c0 152 60 215 93 215c17 0 25 -12 25 -32c0 -15 -3 -38 -6 -55c6 -6 18 -9 31 -9c49 0 84 68 84 127z" />
    <glyph glyph-name="sterling" unicode="&#xa3;" horiz-adv-x="502" 
d="M224 67c57 -28 91 -42 120 -42c25 0 55 22 78 85c39 0 59 -23 59 -64c0 -82 -83 -161 -174 -161c-83 0 -180 85 -268 132c3 44 33 73 79 78c5 14 9 31 14 49c-28 2 -55 4 -72 6c-6 7 -8 14 -8 22c0 31 30 60 100 64c2 8 3 14 5 21c42 196 117 279 216 279
c70 0 114 -40 114 -98c0 -34 -14 -63 -41 -80c-30 27 -58 39 -84 39c-45 0 -55 -28 -78 -131c-2 -8 -3 -16 -5 -23c47 4 67 11 92 22c14 -7 23 -17 23 -39c0 -57 -56 -83 -143 -86c-9 -29 -18 -54 -27 -73z" />
    <glyph glyph-name="currency" unicode="&#xa4;" horiz-adv-x="523" 
d="M283 -26c-107 0 -176 59 -176 182c0 11 0 22 1 33c-25 1 -49 3 -64 5c-6 6 -9 18 -9 26c0 29 28 53 91 59c42 134 148 228 250 228c68 0 97 -36 97 -78c0 -23 -11 -43 -30 -57c-23 10 -58 20 -95 20c-33 0 -68 -28 -85 -106c67 5 105 11 132 23c14 -7 23 -17 23 -39
c0 -44 -50 -79 -164 -85v-2c0 -57 18 -93 72 -93c46 0 99 37 137 80c21 -4 30 -23 30 -45c0 -57 -91 -150 -210 -151z" />
    <glyph glyph-name="yen" unicode="&#xa5;" horiz-adv-x="499" 
d="M125 123h20l-25 89c-14 48 -20 95 -20 135c0 99 78 172 156 172c44 0 61 -19 61 -51c-49 -35 -60 -68 -60 -121c0 -25 5 -65 25 -139c75 94 90 122 90 155c0 23 -9 35 -28 58c3 43 29 60 62 60c46 0 85 -32 85 -92c0 -75 -69 -156 -182 -254c50 8 73 18 106 33
c20 -5 31 -21 31 -43c0 -50 -49 -77 -133 -85c2 -15 4 -30 5 -42c23 6 40 13 62 23c20 -5 31 -21 31 -43c0 -43 -37 -69 -101 -80c-20 -56 -63 -90 -99 -90c-27 0 -44 6 -53 23c8 18 17 45 21 60c-54 2 -142 7 -174 9c-7 6 -10 18 -10 26c0 28 23 48 95 50c35 1 64 2 90 4
c-3 17 -7 37 -13 59c-49 3 -103 6 -127 8c-7 6 -10 18 -10 26c0 28 23 48 95 50z" />
    <glyph glyph-name="brokenbar" unicode="&#xa6;" horiz-adv-x="448" 
d="M293 674c7 4 19 6 29 6c43 0 71 -38 71 -105c0 -40 -11 -97 -53 -255c-5 -1 -10 -1 -15 -1c-47 0 -73 31 -73 79c0 8 1 16 2 25c14 90 30 175 39 251zM194 124c7 36 16 75 25 116c7 3 14 4 20 4c31 0 59 -23 59 -67c0 -10 -3 -27 -7 -40c-31 -108 -45 -189 -49 -263
c-6 -7 -15 -11 -29 -11c-29 0 -48 32 -48 71c0 50 6 85 29 190z" />
    <glyph glyph-name="section" unicode="&#xa7;" horiz-adv-x="500" 
d="M114 161c33 0 54 -38 54 -62c0 -19 -4 -32 -19 -51c15 -59 63 -98 98 -98c22 0 30 12 30 27c0 48 -157 236 -157 369c0 71 39 122 138 160c0 79 52 133 137 133c62 0 105 -30 105 -75c0 -20 -8 -39 -20 -51c-17 9 -46 18 -68 18c-20 0 -30 -5 -30 -22
c0 -42 77 -208 77 -277c0 -71 -41 -109 -82 -129c20 -44 29 -79 29 -114c0 -65 -61 -159 -185 -159c-101 0 -168 106 -168 200c0 82 31 131 61 131zM332 180c2 8 3 17 3 25c0 27 -14 85 -59 209c-18 -16 -30 -31 -30 -54c0 -25 14 -56 86 -180z" />
    <glyph glyph-name="dieresis" unicode="&#xa8;" horiz-adv-x="438" 
d="M88 603c0 76 16 108 45 108c39 0 72 -41 72 -71c0 -24 -15 -53 -63 -111c-28 0 -54 23 -54 74zM261 618c0 81 17 110 49 110c40 0 85 -44 85 -75c0 -24 -19 -63 -67 -122c-41 0 -67 28 -67 87z" />
    <glyph glyph-name="copyright" unicode="&#xa9;" horiz-adv-x="754" 
d="M327 -77c-157 0 -272 101 -272 260c0 225 148 399 363 399c186 0 277 -107 277 -253c0 -240 -148 -406 -368 -406zM347 -3c149 0 263 114 263 315c0 117 -65 201 -212 201c-161 0 -260 -141 -260 -305c0 -123 76 -211 209 -211zM347 94c-73 0 -107 50 -107 122
c0 109 80 207 164 207c47 0 73 -27 73 -66c0 -33 -22 -59 -55 -59c-11 33 -22 42 -32 42c-20 0 -42 -37 -42 -106c0 -30 7 -54 32 -54c32 0 62 29 79 55c17 0 31 -13 31 -27c0 -51 -53 -114 -143 -114z" />
    <glyph glyph-name="ordfeminine" unicode="&#xaa;" horiz-adv-x="498" 
d="M298 200c-35 0 -58 15 -58 65v4c-23 -50 -55 -65 -78 -65c-44 0 -77 36 -77 107c0 112 94 231 170 231c6 0 13 -1 17 -2c1 12 1 25 1 38c7 8 17 12 30 12c53 0 82 -37 82 -65c0 -11 -3 -29 -9 -49c-24 -87 -36 -141 -36 -159c0 -11 2 -13 5 -13c14 0 52 29 99 95
c19 0 29 -14 29 -29c0 -49 -121 -170 -175 -170zM243 333l23 144c-32 -27 -64 -83 -64 -135c0 -23 7 -26 16 -26c8 0 18 8 25 17z" />
    <glyph glyph-name="guillemotleft" unicode="&#xab;" horiz-adv-x="835" 
d="M470 448c24 -3 40 -27 40 -52c0 -42 -26 -87 -124 -167c58 -55 77 -92 77 -135c0 -46 -35 -88 -68 -88c-4 0 -9 1 -14 3c-13 37 -36 69 -121 159c-13 -3 -27 -5 -40 -5c-15 0 -24 8 -24 24c0 38 35 72 93 91c71 51 128 104 181 170zM495 173c-11 11 -21 22 -21 37
c0 26 20 50 58 78c73 53 120 99 173 165c24 -3 40 -27 40 -52c0 -42 -26 -87 -124 -167c58 -55 77 -92 77 -135c0 -46 -35 -88 -68 -88c-4 0 -9 1 -14 3c-13 37 -35 70 -121 159z" />
    <glyph glyph-name="logicalnot" unicode="&#xac;" horiz-adv-x="713" 
d="M566 132h-68l-1 140h-396v68h464z" />
    <glyph glyph-name="uni00AD" unicode="&#xad;" horiz-adv-x="462" 
d="M215 254c74 25 110 43 168 85c27 -1 53 -30 53 -62c0 -67 -80 -101 -257 -122c-15 5 -26 21 -26 39c0 28 14 43 62 60z" />
    <glyph glyph-name="registered" unicode="&#xae;" horiz-adv-x="805" 
d="M426 158c-152 0 -259 96 -259 246c0 213 140 377 342 377c177 0 264 -102 264 -240c0 -226 -140 -383 -347 -383zM444 230c139 0 245 107 245 294c0 110 -59 187 -198 187c-149 0 -242 -131 -242 -284c0 -115 72 -197 195 -197zM402 563c-6 -1 -24 -4 -40 -10
c-9 3 -14 10 -14 23c0 29 47 60 118 60c85 0 124 -38 124 -89c0 -41 -21 -73 -65 -114c8 -9 11 -9 25 -34c8 -13 10 -15 18 -15c5 0 11 1 18 3c8 -5 12 -14 12 -22c0 -27 -38 -56 -74 -56c-18 0 -27 5 -36 23c-22 45 -38 66 -57 76c-7 -28 -14 -66 -15 -80
c-3 -6 -10 -9 -21 -9c-27 0 -50 24 -50 58c0 12 3 24 20 73c11 34 24 67 37 113zM442 453c19 0 29 -1 38 -2c24 33 30 52 30 74c0 21 -18 36 -49 38c-2 -23 -9 -63 -19 -110z" />
    <glyph glyph-name="macron" unicode="&#xaf;" horiz-adv-x="500" 
d="M177 653c138 8 155 14 214 40c20 -5 31 -21 31 -42c0 -53 -58 -80 -189 -80c-40 0 -81 2 -120 5c-7 6 -11 19 -11 26c0 27 22 48 75 51z" />
    <glyph glyph-name="degree" unicode="&#xb0;" horiz-adv-x="400" 
d="M290 571c-1 26 -10 48 -29 67c-18 18 -40 27 -67 27c-26 0 -48 -9 -67 -27c-18 -19 -26 -41 -26 -67c0 -27 9 -50 27 -68c19 -19 41 -28 67 -28s49 10 67 28c19 19 28 42 28 68zM193 711c39 0 72 -14 101 -41c27 -28 41 -61 42 -100c0 -38 -14 -71 -41 -99
c-27 -27 -60 -41 -99 -41s-73 14 -101 41c-27 27 -41 60 -41 99s13 72 41 100c26 27 59 41 98 41z" />
    <glyph glyph-name="plusminus" unicode="&#xb1;" horiz-adv-x="549" 
d="M505 19h-462v68h462v-68zM306 331h197v-68h-197l1 -122h-68l-1 122h-197v68h197l-1 122h68z" />
    <glyph glyph-name="twosuperior" unicode="&#xb2;" horiz-adv-x="342" 
d="M357 466c0 -55 -29 -98 -159 -167c29 -18 44 -23 60 -23c10 0 30 8 59 25c13 -7 21 -23 21 -40c0 -46 -70 -94 -116 -94c-38 0 -74 17 -157 81c0 37 12 58 61 88c85 52 116 84 116 117c0 19 -9 31 -23 31c-16 0 -30 -20 -35 -79c-5 -3 -14 -6 -24 -6c-29 0 -47 19 -47 58
c0 58 47 111 137 111c76 0 107 -48 107 -102z" />
    <glyph glyph-name="threesuperior" unicode="&#xb3;" horiz-adv-x="331" 
d="M365 464c0 -45 -24 -89 -99 -134c46 -31 60 -70 60 -101c0 -86 -64 -146 -158 -146c-76 0 -123 45 -123 92c0 44 21 63 48 63c9 0 21 -3 29 -8c6 -39 34 -63 60 -63c18 0 30 8 30 23c0 27 -27 58 -109 95c0 45 32 78 73 78c7 0 12 0 18 -2c39 33 49 69 49 90
c0 19 -8 31 -22 31c-13 0 -23 -20 -28 -79c-5 -3 -14 -6 -24 -6c-29 0 -49 19 -49 58c0 58 45 113 134 113c78 0 111 -49 111 -104z" />
    <glyph glyph-name="acute" unicode="&#xb4;" horiz-adv-x="290" 
d="M203 784c45 0 68 -26 68 -63c0 -29 -26 -71 -77 -124c-41 -42 -92 -73 -123 -73c-14 0 -23 8 -23 26c69 100 105 158 105 207c11 17 28 27 50 27z" />
    <glyph glyph-name="mu" unicode="&#xb5;" horiz-adv-x="576" 
d="M164 153c1 -47 6 -79 15 -95s26 -24 50 -24c38 0 70 27 94 81c25 53 37 121 37 204l-1 130h92l2 -328c1 -30 4 -52 10 -66c7 -14 16 -21 29 -21c14 0 25 7 32 21s11 34 10 61v14h21c0 -3 1 -6 1 -9s1 -7 1 -13c0 -37 -8 -66 -24 -86c-15 -21 -37 -31 -65 -31
c-34 0 -60 14 -77 43c-17 28 -25 71 -27 129c-14 -59 -35 -103 -60 -130c-26 -28 -57 -42 -96 -42c-29 0 -54 9 -74 26c-19 18 -32 43 -40 77c0 -6 -1 -15 -1 -28c0 -42 12 -89 33 -141c23 -52 33 -83 33 -92c0 -13 -4 -23 -11 -31c-8 -7 -18 -11 -31 -11
c-15 0 -26 5 -33 16c-6 11 -10 29 -10 54c0 6 0 25 1 58c1 32 2 62 1 89c0 24 0 58 -1 101c-2 44 -3 76 -3 95l-2 245h92z" />
    <glyph glyph-name="paragraph" unicode="&#xb6;" horiz-adv-x="713" 
d="M99 -147c0 35 20 67 53 70c18 -21 55 -48 83 -48c38 0 42 51 64 176c-24 -12 -58 -21 -100 -21c-94 0 -149 69 -149 158c0 168 99 286 230 286c17 0 61 -3 73 -7c6 14 22 25 41 25c40 0 69 -31 74 -60c25 -2 62 -3 72 -3c29 0 61 5 74 9c13 -7 19 -23 19 -38
c0 -44 -35 -71 -95 -71c-26 0 -53 3 -79 7c-8 -81 -35 -263 -53 -351c-31 -151 -88 -233 -196 -233c-61 0 -111 37 -111 101zM312 136c11 71 23 148 30 217c-5 1 -9 1 -13 1c-46 0 -75 -75 -75 -151c0 -40 24 -67 58 -67z" />
    <glyph glyph-name="periodcentered" unicode="&#xb7;" horiz-adv-x="421" 
d="M264 139c-48 0 -81 47 -81 100c0 49 51 83 106 83c46 0 70 -18 70 -43c0 -58 -41 -140 -95 -140z" />
    <glyph glyph-name="cedilla" unicode="&#xb8;" horiz-adv-x="500" 
d="M325 15c1 -12 1 -24 1 -35c0 -143 -58 -225 -148 -225c-63 0 -99 39 -99 94c0 27 17 55 50 59c19 -21 42 -36 59 -36c31 0 55 53 64 143h73z" />
    <glyph glyph-name="onesuperior" unicode="&#xb9;" horiz-adv-x="268" 
d="M111 266c0 27 12 59 49 140c-12 -8 -28 -13 -36 -13c-26 0 -39 15 -39 47c85 55 137 102 170 157h11c32 0 47 -28 47 -52c0 -23 -5 -42 -32 -114c-36 -93 -46 -163 -48 -211c-6 -11 -19 -17 -42 -17c-45 0 -80 32 -80 63z" />
    <glyph glyph-name="ordmasculine" unicode="&#xba;" horiz-adv-x="472" 
d="M328 557c34 0 50 -23 50 -53c0 -36 -15 -93 -31 -135c2 -1 5 -2 9 -2c21 0 42 17 65 57c17 0 26 -12 26 -30c0 -32 -43 -106 -107 -106c-13 0 -21 2 -28 7c-37 -48 -77 -74 -129 -74c-54 0 -98 36 -98 112c0 124 82 236 163 236c19 0 42 -6 47 -28c10 9 21 16 33 16z
M199 359c0 -32 11 -42 23 -42c15 0 29 11 38 26c-8 16 -12 45 -12 69c0 26 6 59 18 87c-39 -28 -67 -86 -67 -140z" />
    <glyph glyph-name="guillemotright" unicode="&#xbb;" horiz-adv-x="835" 
d="M471 4c-24 3 -40 27 -40 52c0 42 26 87 124 167c-58 55 -77 92 -77 135c0 46 35 88 68 88c4 0 9 -1 14 -3c13 -37 36 -69 121 -159c13 3 27 5 40 5c15 0 24 -8 24 -24c0 -38 -35 -72 -93 -91c-71 -51 -128 -104 -181 -170zM446 279c11 -11 21 -22 21 -37
c0 -26 -20 -50 -58 -78c-73 -53 -120 -99 -173 -165c-24 3 -40 27 -40 52c0 42 26 87 124 167c-58 55 -77 92 -77 135c0 46 35 88 68 88c4 0 9 -1 14 -3c13 -37 35 -70 121 -159z" />
    <glyph glyph-name="onequarter" unicode="&#xbc;" horiz-adv-x="804" 
d="M111 266c0 27 12 59 49 140c-12 -8 -28 -13 -36 -13c-26 0 -39 15 -39 47c85 55 137 102 170 157h11c32 0 47 -28 47 -52c0 -23 -5 -42 -32 -114c-36 -93 -46 -163 -48 -211c-6 -11 -19 -17 -42 -17c-45 0 -80 32 -80 63zM742 66l3 1c11 -6 20 -19 20 -36
c0 -32 -23 -61 -70 -71c-5 -46 -9 -84 -9 -104c-6 -14 -18 -21 -41 -21c-45 0 -84 27 -84 61c0 15 4 34 14 70c-37 12 -81 35 -118 62c-2 9 -2 19 -2 27c0 27 10 49 42 72c98 73 181 167 213 213h10c28 0 49 -21 49 -52c0 -21 -6 -49 -21 -93c-16 -50 -29 -97 -39 -144
c11 3 22 8 33 15zM640 174c-17 -22 -59 -64 -89 -88c13 -8 39 -19 55 -24c6 26 24 83 34 112zM587 609c2 1 6 1 8 1c23 0 49 -25 49 -67c0 -66 -27 -111 -254 -405c-93 -120 -114 -172 -118 -237c-5 -8 -15 -13 -30 -13c-37 0 -56 32 -56 66c0 48 13 77 108 209
c97 133 218 308 293 446z" />
    <glyph glyph-name="onehalf" unicode="&#xbd;" horiz-adv-x="836" 
d="M111 266c0 27 12 59 49 140c-12 -8 -28 -13 -36 -13c-26 0 -39 15 -39 47c85 55 137 102 170 157h11c32 0 47 -28 47 -52c0 -23 -5 -42 -32 -114c-36 -93 -46 -163 -48 -211c-6 -11 -19 -17 -42 -17c-45 0 -80 32 -80 63zM801 207c0 -55 -29 -98 -159 -167
c29 -18 44 -23 60 -23c10 0 30 8 59 25c13 -7 21 -23 21 -40c0 -46 -70 -94 -116 -94c-38 0 -74 17 -157 81c0 37 12 58 61 88c85 52 116 84 116 117c0 19 -9 31 -23 31c-16 0 -30 -20 -35 -79c-5 -3 -14 -6 -24 -6c-29 0 -47 19 -47 58c0 58 47 111 137 111
c76 0 107 -48 107 -102zM587 609c2 1 6 1 8 1c23 0 49 -25 49 -67c0 -66 -27 -111 -254 -405c-93 -120 -114 -172 -118 -237c-5 -8 -15 -13 -30 -13c-37 0 -56 32 -56 66c0 48 13 77 108 209c97 133 218 308 293 446z" />
    <glyph glyph-name="threequarters" unicode="&#xbe;" horiz-adv-x="915" 
d="M843 66l3 1c11 -6 20 -19 20 -36c0 -32 -23 -61 -70 -71c-5 -46 -9 -84 -9 -104c-6 -14 -18 -21 -41 -21c-45 0 -84 27 -84 61c0 15 4 34 14 70c-37 12 -81 35 -118 62c-2 9 -2 19 -2 27c0 27 10 49 42 72c98 73 181 167 213 213h10c28 0 49 -21 49 -52
c0 -21 -6 -49 -21 -93c-16 -50 -29 -97 -39 -144c11 3 22 8 33 15zM741 174c-17 -22 -59 -64 -89 -88c13 -8 39 -19 55 -24c6 26 24 83 34 112zM365 464c0 -45 -24 -89 -99 -134c46 -31 60 -70 60 -101c0 -86 -64 -146 -158 -146c-76 0 -123 45 -123 92c0 44 21 63 48 63
c9 0 21 -3 29 -8c6 -39 34 -63 60 -63c18 0 30 8 30 23c0 27 -27 58 -109 95c0 45 32 78 73 78c7 0 12 0 18 -2c39 33 49 69 49 90c0 19 -8 31 -22 31c-13 0 -23 -20 -28 -79c-5 -3 -14 -6 -24 -6c-29 0 -49 19 -49 58c0 58 45 113 134 113c78 0 111 -49 111 -104zM688 609
c2 1 6 1 8 1c23 0 49 -25 49 -67c0 -66 -27 -111 -254 -405c-93 -120 -114 -172 -118 -237c-5 -8 -15 -13 -30 -13c-37 0 -56 32 -56 66c0 48 13 77 108 209c97 133 218 308 293 446z" />
    <glyph glyph-name="questiondown" unicode="&#xbf;" horiz-adv-x="428" 
d="M289 457c48 0 101 -35 101 -88c0 -43 -49 -91 -106 -91c-46 0 -64 22 -64 56c0 70 25 123 69 123zM185 123c5 16 7 33 7 53c0 10 -1 21 -3 33c7 11 21 20 49 20c42 0 76 -38 76 -85c0 -32 -16 -56 -85 -101c-98 -65 -113 -83 -113 -114c0 -16 10 -36 64 -36
c18 0 49 2 76 6c20 -10 29 -33 29 -55c0 -63 -51 -119 -139 -119c-100 0 -181 78 -181 170c0 66 28 93 220 228z" />
    <glyph glyph-name="Agrave" unicode="&#xc0;" horiz-adv-x="850" 
d="M195 214c56 1 115 4 187 8c58 76 164 232 265 377c19 77 68 141 151 141c54 0 82 -35 85 -67c0 -20 -16 -36 -95 -87c-14 -73 -22 -180 -27 -268c24 -4 39 -19 39 -48c0 -28 -18 -59 -43 -80c0 -43 0 -66 15 -66c14 0 71 29 142 129h4c19 0 38 -14 38 -33
c0 -67 -178 -245 -275 -245c-62 0 -88 28 -88 85c0 32 0 46 3 95c-43 -4 -109 -8 -160 -10c-112 -162 -181 -210 -271 -210c-97 0 -155 59 -155 161c0 81 57 152 132 152c28 0 46 -11 53 -34zM204 67c33 0 60 17 107 71c-57 -2 -101 -2 -142 -2c-2 -7 -3 -17 -3 -22
c0 -32 16 -47 38 -47zM500 230c33 2 77 5 103 8c5 52 16 164 28 222c-33 -62 -98 -175 -131 -230zM760 1038c8 -73 25 -158 47 -216c-1 -16 -13 -29 -36 -29c-41 0 -90 57 -124 153c-2 7 -4 15 -4 23c0 43 30 83 83 83c15 0 27 -6 34 -14z" />
    <glyph glyph-name="Aacute" unicode="&#xc1;" horiz-adv-x="850" 
d="M195 214c56 1 115 4 187 8c58 76 164 232 265 377c19 77 68 141 151 141c54 0 82 -35 85 -67c0 -20 -16 -36 -95 -87c-14 -73 -22 -180 -27 -268c24 -4 39 -19 39 -48c0 -28 -18 -59 -43 -80c0 -43 0 -66 15 -66c14 0 71 29 142 129h4c19 0 38 -14 38 -33
c0 -67 -178 -245 -275 -245c-62 0 -88 28 -88 85c0 32 0 46 3 95c-43 -4 -109 -8 -160 -10c-112 -162 -181 -210 -271 -210c-97 0 -155 59 -155 161c0 81 57 152 132 152c28 0 46 -11 53 -34zM204 67c33 0 60 17 107 71c-57 -2 -101 -2 -142 -2c-2 -7 -3 -17 -3 -22
c0 -32 16 -47 38 -47zM500 230c33 2 77 5 103 8c5 52 16 164 28 222c-33 -62 -98 -175 -131 -230zM878 1050c45 0 68 -26 68 -63c0 -29 -26 -71 -77 -124c-41 -42 -92 -73 -123 -73c-14 0 -23 8 -23 26c69 100 105 158 105 207c11 17 28 27 50 27z" />
    <glyph glyph-name="Acircumflex" unicode="&#xc2;" horiz-adv-x="850" 
d="M195 214c56 1 115 4 187 8c58 76 164 232 265 377c19 77 68 141 151 141c54 0 82 -35 85 -67c0 -20 -16 -36 -95 -87c-14 -73 -22 -180 -27 -268c24 -4 39 -19 39 -48c0 -28 -18 -59 -43 -80c0 -43 0 -66 15 -66c14 0 71 29 142 129h4c19 0 38 -14 38 -33
c0 -67 -178 -245 -275 -245c-62 0 -88 28 -88 85c0 32 0 46 3 95c-43 -4 -109 -8 -160 -10c-112 -162 -181 -210 -271 -210c-97 0 -155 59 -155 161c0 81 57 152 132 152c28 0 46 -11 53 -34zM204 67c33 0 60 17 107 71c-57 -2 -101 -2 -142 -2c-2 -7 -3 -17 -3 -22
c0 -32 16 -47 38 -47zM500 230c33 2 77 5 103 8c5 52 16 164 28 222c-33 -62 -98 -175 -131 -230zM829 834c0 83 -2 104 -16 104c-20 0 -57 -48 -87 -145c-7 -3 -13 -4 -20 -4c-20 0 -37 15 -37 44c0 62 93 217 191 217c68 0 81 -46 81 -186c0 -10 1 -27 2 -43
c-12 -21 -41 -39 -72 -39s-42 17 -42 52z" />
    <glyph glyph-name="Atilde" unicode="&#xc3;" horiz-adv-x="850" 
d="M195 214c56 1 115 4 187 8c58 76 164 232 265 377c19 77 68 141 151 141c54 0 82 -35 85 -67c0 -20 -16 -36 -95 -87c-14 -73 -22 -180 -27 -268c24 -4 39 -19 39 -48c0 -28 -18 -59 -43 -80c0 -43 0 -66 15 -66c14 0 71 29 142 129h4c19 0 38 -14 38 -33
c0 -67 -178 -245 -275 -245c-62 0 -88 28 -88 85c0 32 0 46 3 95c-43 -4 -109 -8 -160 -10c-112 -162 -181 -210 -271 -210c-97 0 -155 59 -155 161c0 81 57 152 132 152c28 0 46 -11 53 -34zM204 67c33 0 60 17 107 71c-57 -2 -101 -2 -142 -2c-2 -7 -3 -17 -3 -22
c0 -32 16 -47 38 -47zM500 230c33 2 77 5 103 8c5 52 16 164 28 222c-33 -62 -98 -175 -131 -230zM768 928c115 39 135 50 161 85c45 -5 68 -38 68 -72c0 -59 -47 -87 -167 -114c-79 -17 -106 -25 -126 -48c-23 0 -49 14 -49 51c0 44 29 70 113 98z" />
    <glyph glyph-name="Adieresis" unicode="&#xc4;" horiz-adv-x="850" 
d="M195 214c56 1 115 4 187 8c58 76 164 232 265 377c19 77 68 141 151 141c54 0 82 -35 85 -67c0 -20 -16 -36 -95 -87c-14 -73 -22 -180 -27 -268c24 -4 39 -19 39 -48c0 -28 -18 -59 -43 -80c0 -43 0 -66 15 -66c14 0 71 29 142 129h4c19 0 38 -14 38 -33
c0 -67 -178 -245 -275 -245c-62 0 -88 28 -88 85c0 32 0 46 3 95c-43 -4 -109 -8 -160 -10c-112 -162 -181 -210 -271 -210c-97 0 -155 59 -155 161c0 81 57 152 132 152c28 0 46 -11 53 -34zM204 67c33 0 60 17 107 71c-57 -2 -101 -2 -142 -2c-2 -7 -3 -17 -3 -22
c0 -32 16 -47 38 -47zM500 230c33 2 77 5 103 8c5 52 16 164 28 222c-33 -62 -98 -175 -131 -230zM663 864c0 76 16 108 45 108c39 0 72 -41 72 -71c0 -24 -15 -53 -63 -111c-28 0 -54 23 -54 74zM836 879c0 81 17 110 49 110c40 0 85 -44 85 -75c0 -24 -19 -63 -67 -122
c-41 0 -67 28 -67 87z" />
    <glyph glyph-name="Aring" unicode="&#xc5;" horiz-adv-x="850" 
d="M195 214c56 1 115 4 187 8c58 76 164 232 265 377c19 77 68 141 151 141c54 0 82 -35 85 -67c0 -20 -16 -36 -95 -87c-14 -73 -22 -180 -27 -268c24 -4 39 -19 39 -48c0 -28 -18 -59 -43 -80c0 -43 0 -66 15 -66c14 0 71 29 142 129h4c19 0 38 -14 38 -33
c0 -67 -178 -245 -275 -245c-62 0 -88 28 -88 85c0 32 0 46 3 95c-43 -4 -109 -8 -160 -10c-112 -162 -181 -210 -271 -210c-97 0 -155 59 -155 161c0 81 57 152 132 152c28 0 46 -11 53 -34zM204 67c33 0 60 17 107 71c-57 -2 -101 -2 -142 -2c-2 -7 -3 -17 -3 -22
c0 -32 16 -47 38 -47zM500 230c33 2 77 5 103 8c5 52 16 164 28 222c-33 -62 -98 -175 -131 -230zM805 786c-61 0 -101 36 -101 97c0 72 59 146 97 146c11 0 19 -4 23 -8c10 21 28 32 47 32c41 0 78 -42 78 -106c0 -99 -76 -161 -144 -161zM789 905c0 -18 10 -28 26 -28
c15 0 32 15 32 39c0 17 -9 39 -24 57c-23 -23 -34 -52 -34 -68z" />
    <glyph glyph-name="AE" unicode="&#xc6;" horiz-adv-x="1029" 
d="M496 224c33 2 97 6 123 9c5 52 26 180 38 238c-33 -63 -128 -192 -161 -247zM204 67c33 0 58 16 105 70c-50 0 -95 2 -137 6c-4 -8 -6 -21 -6 -29c0 -32 16 -47 38 -47zM963 578c-33 0 -96 3 -146 8l-31 -241c130 0 155 3 196 14c14 -9 23 -30 23 -48
c0 -42 -36 -67 -88 -67c-37 0 -141 7 -141 7l-17 -150c80 0 153 -4 237 -9c9 -12 12 -22 12 -37c0 -37 -29 -81 -137 -81c-83 0 -193 16 -335 17c-6 6 -10 17 -10 30c0 30 23 55 79 69l9 82c-15 -21 -40 -36 -184 -36c-112 -162 -175 -201 -265 -201c-97 0 -155 59 -155 161
c0 81 57 160 132 160c30 0 47 -14 53 -34c32 -2 64 -3 98 -3c28 0 57 0 89 1l277 379l-44 5c-6 8 -9 19 -9 30c0 41 32 69 112 69c74 0 180 -2 228 -2c46 0 75 6 114 20c20 -10 34 -32 34 -55c0 -50 -45 -88 -131 -88z" />
    <glyph glyph-name="Ccedilla" unicode="&#xc7;" horiz-adv-x="510" 
d="M254 -46c-134 0 -212 85 -212 244c0 250 204 529 378 529c99 0 139 -50 139 -135c0 -93 -59 -193 -130 -193c-25 0 -36 6 -42 18c16 38 25 106 25 128c0 46 -14 63 -34 63c-55 0 -162 -193 -162 -366c0 -95 27 -142 114 -142c83 0 187 65 247 157c21 0 38 -8 38 -32
c0 -58 -109 -186 -238 -242v-12c0 -143 -58 -225 -148 -225c-63 0 -99 39 -99 94c0 27 17 55 50 59c19 -21 42 -36 59 -36c25 0 45 34 57 95c-14 -3 -28 -4 -42 -4z" />
    <glyph glyph-name="Egrave" unicode="&#xc8;" horiz-adv-x="514" 
d="M236 -54c-125 0 -202 71 -202 174c0 71 50 155 156 206c-29 31 -50 80 -50 139c0 127 115 262 253 262c93 0 134 -44 134 -119c0 -99 -61 -146 -117 -146c-22 0 -32 8 -36 18c13 27 20 54 20 80c0 38 -13 51 -29 51c-36 0 -77 -71 -77 -148c0 -35 8 -74 18 -100
c22 5 55 8 74 8c38 0 48 -11 48 -25c0 -57 -47 -113 -96 -113c-19 0 -46 11 -67 27c-27 -28 -45 -71 -45 -99c0 -50 27 -82 86 -82c94 0 219 90 277 178c21 0 38 -8 38 -32c0 -64 -175 -279 -385 -279zM400 1028c8 -73 25 -158 47 -216c-1 -16 -13 -29 -36 -29
c-41 0 -90 57 -124 153c-2 7 -4 15 -4 23c0 43 30 83 83 83c15 0 27 -6 34 -14z" />
    <glyph glyph-name="Eacute" unicode="&#xc9;" horiz-adv-x="514" 
d="M236 -54c-125 0 -202 71 -202 174c0 71 50 155 156 206c-29 31 -50 80 -50 139c0 127 115 262 253 262c93 0 134 -44 134 -119c0 -99 -61 -146 -117 -146c-22 0 -32 8 -36 18c13 27 20 54 20 80c0 38 -13 51 -29 51c-36 0 -77 -71 -77 -148c0 -35 8 -74 18 -100
c22 5 55 8 74 8c38 0 48 -11 48 -25c0 -57 -47 -113 -96 -113c-19 0 -46 11 -67 27c-27 -28 -45 -71 -45 -99c0 -50 27 -82 86 -82c94 0 219 90 277 178c21 0 38 -8 38 -32c0 -64 -175 -279 -385 -279zM507 1041c45 0 68 -26 68 -63c0 -29 -26 -71 -77 -124
c-41 -42 -92 -73 -123 -73c-14 0 -23 8 -23 26c69 100 105 158 105 207c11 17 28 27 50 27z" />
    <glyph glyph-name="Ecircumflex" unicode="&#xca;" horiz-adv-x="514" 
d="M236 -54c-125 0 -202 71 -202 174c0 71 50 155 156 206c-29 31 -50 80 -50 139c0 127 115 262 253 262c93 0 134 -44 134 -119c0 -99 -61 -146 -117 -146c-22 0 -32 8 -36 18c13 27 20 54 20 80c0 38 -13 51 -29 51c-36 0 -77 -71 -77 -148c0 -35 8 -74 18 -100
c22 5 55 8 74 8c38 0 48 -11 48 -25c0 -57 -47 -113 -96 -113c-19 0 -46 11 -67 27c-27 -28 -45 -71 -45 -99c0 -50 27 -82 86 -82c94 0 219 90 277 178c21 0 38 -8 38 -32c0 -64 -175 -279 -385 -279zM441 825c0 83 -2 104 -16 104c-20 0 -57 -48 -87 -145
c-7 -3 -13 -4 -20 -4c-20 0 -37 15 -37 44c0 62 93 217 191 217c68 0 81 -46 81 -186c0 -10 1 -27 2 -43c-12 -21 -41 -39 -72 -39s-42 17 -42 52z" />
    <glyph glyph-name="Edieresis" unicode="&#xcb;" horiz-adv-x="514" 
d="M236 -54c-125 0 -202 71 -202 174c0 71 50 155 156 206c-29 31 -50 80 -50 139c0 127 115 262 253 262c93 0 134 -44 134 -119c0 -99 -61 -146 -117 -146c-22 0 -32 8 -36 18c13 27 20 54 20 80c0 38 -13 51 -29 51c-36 0 -77 -71 -77 -148c0 -35 8 -74 18 -100
c22 5 55 8 74 8c38 0 48 -11 48 -25c0 -57 -47 -113 -96 -113c-19 0 -46 11 -67 27c-27 -28 -45 -71 -45 -99c0 -50 27 -82 86 -82c94 0 219 90 277 178c21 0 38 -8 38 -32c0 -64 -175 -279 -385 -279zM285 860c0 76 16 108 45 108c39 0 72 -41 72 -71
c0 -24 -15 -53 -63 -111c-28 0 -54 23 -54 74zM458 875c0 81 17 110 49 110c40 0 85 -44 85 -75c0 -24 -19 -63 -67 -122c-41 0 -67 28 -67 87z" />
    <glyph glyph-name="Igrave" unicode="&#xcc;" horiz-adv-x="503" 
d="M160 639c0 41 32 69 112 69c74 0 123 -2 171 -2c46 0 82 6 124 20c22 -11 38 -35 38 -63c0 -66 -56 -102 -138 -102c-53 -232 -87 -366 -111 -438c40 0 76 -1 114 -3c9 -12 14 -31 14 -46c0 -64 -57 -83 -162 -83c-83 0 -142 7 -297 8c-6 6 -10 17 -10 30
c0 53 44 77 179 88c37 131 77 309 111 470c-45 8 -92 17 -136 22c-6 8 -9 19 -9 30zM411 1022c8 -73 25 -158 47 -216c-1 -16 -13 -29 -36 -29c-41 0 -90 57 -124 153c-2 7 -4 15 -4 23c0 43 30 83 83 83c15 0 27 -6 34 -14z" />
    <glyph glyph-name="Iacute" unicode="&#xcd;" horiz-adv-x="503" 
d="M160 639c0 41 32 69 112 69c74 0 123 -2 171 -2c46 0 82 6 124 20c22 -11 38 -35 38 -63c0 -66 -56 -102 -138 -102c-53 -232 -87 -366 -111 -438c40 0 76 -1 114 -3c9 -12 14 -31 14 -46c0 -64 -57 -83 -162 -83c-83 0 -142 7 -297 8c-6 6 -10 17 -10 30
c0 53 44 77 179 88c37 131 77 309 111 470c-45 8 -92 17 -136 22c-6 8 -9 19 -9 30zM536 1041c45 0 68 -26 68 -63c0 -29 -26 -71 -77 -124c-41 -42 -92 -73 -123 -73c-14 0 -23 8 -23 26c69 100 105 158 105 207c11 17 28 27 50 27z" />
    <glyph glyph-name="Icircumflex" unicode="&#xce;" horiz-adv-x="503" 
d="M160 639c0 41 32 69 112 69c74 0 123 -2 171 -2c46 0 82 6 124 20c22 -11 38 -35 38 -63c0 -66 -56 -102 -138 -102c-53 -232 -87 -366 -111 -438c40 0 76 -1 114 -3c9 -12 14 -31 14 -46c0 -64 -57 -83 -162 -83c-83 0 -142 7 -297 8c-6 6 -10 17 -10 30
c0 53 44 77 179 88c37 131 77 309 111 470c-45 8 -92 17 -136 22c-6 8 -9 19 -9 30zM463 833c0 83 -2 104 -16 104c-20 0 -57 -48 -87 -145c-7 -3 -13 -4 -20 -4c-20 0 -37 15 -37 44c0 62 93 217 191 217c68 0 81 -46 81 -186c0 -10 1 -27 2 -43c-12 -21 -41 -39 -72 -39
s-42 17 -42 52z" />
    <glyph glyph-name="Idieresis" unicode="&#xcf;" horiz-adv-x="503" 
d="M160 639c0 41 32 69 112 69c74 0 123 -2 171 -2c46 0 82 6 124 20c22 -11 38 -35 38 -63c0 -66 -56 -102 -138 -102c-53 -232 -87 -366 -111 -438c40 0 76 -1 114 -3c9 -12 14 -31 14 -46c0 -64 -57 -83 -162 -83c-83 0 -142 7 -297 8c-6 6 -10 17 -10 30
c0 53 44 77 179 88c37 131 77 309 111 470c-45 8 -92 17 -136 22c-6 8 -9 19 -9 30zM301 868c0 76 16 108 45 108c39 0 72 -41 72 -71c0 -24 -15 -53 -63 -111c-28 0 -54 23 -54 74zM474 883c0 81 17 110 49 110c40 0 85 -44 85 -75c0 -24 -19 -63 -67 -122
c-41 0 -67 28 -67 87z" />
    <glyph glyph-name="Eth" unicode="&#xd0;" horiz-adv-x="728" 
d="M126 364c24 0 62 -5 105 -9c25 82 46 166 58 222c-15 2 -21 2 -40 2c-68 0 -116 -16 -176 -62c-31 0 -49 27 -49 59c0 65 84 163 269 163c275 0 418 -186 418 -417c0 -181 -111 -343 -306 -343c-61 0 -128 19 -216 61c-40 -32 -67 -43 -93 -43c-45 0 -70 65 -70 107
c0 25 14 48 46 48c25 0 46 -2 83 -6c15 28 31 71 48 120c-44 7 -91 16 -136 25c-5 6 -6 15 -6 22c0 29 20 51 65 51zM553 290c0 99 -48 197 -147 252c-14 -68 -30 -133 -48 -192c37 2 60 9 90 18c16 -7 24 -21 24 -41c0 -44 -43 -77 -125 -77h-22c-21 -55 -41 -100 -58 -129
c64 -18 105 -28 143 -28c101 0 143 92 143 197z" />
    <glyph glyph-name="Ntilde" unicode="&#xd1;" horiz-adv-x="862" 
d="M746 950c115 39 135 50 161 85c45 -5 68 -38 68 -72c0 -59 -47 -87 -167 -114c-79 -17 -106 -25 -126 -48c-23 0 -49 14 -49 51c0 44 29 70 113 98zM724 321c70 348 98 419 196 419c54 0 87 -34 87 -84c0 -17 -9 -37 -20 -48c-87 -9 -98 -30 -196 -400
c5 -28 10 -76 10 -111c0 -77 -53 -125 -117 -125c-52 0 -80 19 -80 48c0 23 9 54 33 119c-19 50 -78 162 -125 239c-131 -344 -232 -455 -348 -455c-98 0 -139 50 -139 142c0 108 58 179 128 179c28 0 47 -12 55 -30c-19 -42 -29 -85 -29 -108c0 -36 6 -48 27 -48
c37 0 97 80 242 422c-14 44 -20 74 -20 113c0 82 62 157 153 157c54 0 77 -28 77 -52c0 -27 -17 -63 -65 -142c30 -63 106 -176 131 -235z" />
    <glyph glyph-name="Ograve" unicode="&#xd2;" horiz-adv-x="655" 
d="M516 94c-56 -75 -141 -126 -245 -126c-145 0 -224 86 -224 263c0 236 208 498 363 498c33 0 55 -25 57 -58c20 13 46 22 76 22c88 0 133 -78 133 -160s-32 -233 -103 -350c10 -8 29 -13 45 -13c31 0 70 29 105 86c18 -1 39 -14 39 -36c0 -45 -77 -149 -168 -149
c-28 0 -58 8 -78 23zM226 266c0 -90 34 -151 99 -151c39 0 78 17 102 52c-42 51 -68 121 -68 213c0 95 20 168 58 240c-96 -63 -191 -195 -191 -354zM496 271c34 68 51 171 51 202c0 45 -9 72 -57 77c-8 -43 -16 -95 -16 -147c0 -47 6 -93 22 -132zM517 1019
c8 -73 25 -158 47 -216c-1 -16 -13 -29 -36 -29c-41 0 -90 57 -124 153c-2 7 -4 15 -4 23c0 43 30 83 83 83c15 0 27 -6 34 -14z" />
    <glyph glyph-name="Oacute" unicode="&#xd3;" horiz-adv-x="655" 
d="M516 94c-56 -75 -141 -126 -245 -126c-145 0 -224 86 -224 263c0 236 208 498 363 498c33 0 55 -25 57 -58c20 13 46 22 76 22c88 0 133 -78 133 -160s-32 -233 -103 -350c10 -8 29 -13 45 -13c31 0 70 29 105 86c18 -1 39 -14 39 -36c0 -45 -77 -149 -168 -149
c-28 0 -58 8 -78 23zM226 266c0 -90 34 -151 99 -151c39 0 78 17 102 52c-42 51 -68 121 -68 213c0 95 20 168 58 240c-96 -63 -191 -195 -191 -354zM496 271c34 68 51 171 51 202c0 45 -9 72 -57 77c-8 -43 -16 -95 -16 -147c0 -47 6 -93 22 -132zM651 1028
c45 0 68 -26 68 -63c0 -29 -26 -71 -77 -124c-41 -42 -92 -73 -123 -73c-14 0 -23 8 -23 26c69 100 105 158 105 207c11 17 28 27 50 27z" />
    <glyph glyph-name="Ocircumflex" unicode="&#xd4;" horiz-adv-x="655" 
d="M516 94c-56 -75 -141 -126 -245 -126c-145 0 -224 86 -224 263c0 236 208 498 363 498c33 0 55 -25 57 -58c20 13 46 22 76 22c88 0 133 -78 133 -160s-32 -233 -103 -350c10 -8 29 -13 45 -13c31 0 70 29 105 86c18 -1 39 -14 39 -36c0 -45 -77 -149 -168 -149
c-28 0 -58 8 -78 23zM226 266c0 -90 34 -151 99 -151c39 0 78 17 102 52c-42 51 -68 121 -68 213c0 95 20 168 58 240c-96 -63 -191 -195 -191 -354zM496 271c34 68 51 171 51 202c0 45 -9 72 -57 77c-8 -43 -16 -95 -16 -147c0 -47 6 -93 22 -132zM541 834
c0 83 -2 104 -16 104c-20 0 -57 -48 -87 -145c-7 -3 -13 -4 -20 -4c-20 0 -37 15 -37 44c0 62 93 217 191 217c68 0 81 -46 81 -186c0 -10 1 -27 2 -43c-12 -21 -41 -39 -72 -39s-42 17 -42 52z" />
    <glyph glyph-name="Otilde" unicode="&#xd5;" horiz-adv-x="655" 
d="M516 94c-56 -75 -141 -126 -245 -126c-145 0 -224 86 -224 263c0 236 208 498 363 498c33 0 55 -25 57 -58c20 13 46 22 76 22c88 0 133 -78 133 -160s-32 -233 -103 -350c10 -8 29 -13 45 -13c31 0 70 29 105 86c18 -1 39 -14 39 -36c0 -45 -77 -149 -168 -149
c-28 0 -58 8 -78 23zM226 266c0 -90 34 -151 99 -151c39 0 78 17 102 52c-42 51 -68 121 -68 213c0 95 20 168 58 240c-96 -63 -191 -195 -191 -354zM496 271c34 68 51 171 51 202c0 45 -9 72 -57 77c-8 -43 -16 -95 -16 -147c0 -47 6 -93 22 -132zM494 930
c115 39 135 50 161 85c45 -5 68 -38 68 -72c0 -59 -47 -87 -167 -114c-79 -17 -106 -25 -126 -48c-23 0 -49 14 -49 51c0 44 29 70 113 98z" />
    <glyph glyph-name="Odieresis" unicode="&#xd6;" horiz-adv-x="655" 
d="M516 94c-56 -75 -141 -126 -245 -126c-145 0 -224 86 -224 263c0 236 208 498 363 498c33 0 55 -25 57 -58c20 13 46 22 76 22c88 0 133 -78 133 -160s-32 -233 -103 -350c10 -8 29 -13 45 -13c31 0 70 29 105 86c18 -1 39 -14 39 -36c0 -45 -77 -149 -168 -149
c-28 0 -58 8 -78 23zM226 266c0 -90 34 -151 99 -151c39 0 78 17 102 52c-42 51 -68 121 -68 213c0 95 20 168 58 240c-96 -63 -191 -195 -191 -354zM496 271c34 68 51 171 51 202c0 45 -9 72 -57 77c-8 -43 -16 -95 -16 -147c0 -47 6 -93 22 -132zM367 867
c0 76 16 108 45 108c39 0 72 -41 72 -71c0 -24 -15 -53 -63 -111c-28 0 -54 23 -54 74zM540 882c0 81 17 110 49 110c40 0 85 -44 85 -75c0 -24 -19 -63 -67 -122c-41 0 -67 28 -67 87z" />
    <glyph glyph-name="multiply" unicode="&#xd7;" horiz-adv-x="457" 
d="M188 220c-21 48 -62 123 -83 155c2 23 28 44 55 44c49 0 75 -29 115 -131c53 42 95 80 113 109c38 -2 59 -25 59 -58c0 -43 -49 -89 -133 -148c16 -42 38 -115 49 -143c-2 -15 -18 -28 -40 -28c-23 0 -43 10 -61 36c-11 16 -27 49 -37 72c-37 -25 -84 -54 -109 -69
c-20 2 -31 18 -31 37c0 39 37 74 103 124z" />
    <glyph glyph-name="Oslash" unicode="&#xd8;" horiz-adv-x="663" 
d="M47 230c0 245 205 488 358 488c28 0 45 -16 51 -36c26 78 44 156 48 177c10 6 22 9 32 9c49 0 79 -43 79 -101c0 -30 -10 -54 -50 -129c70 -12 97 -86 97 -155c0 -185 -118 -514 -382 -515c-21 -64 -39 -153 -41 -172c-9 -4 -26 -5 -34 -5c-42 1 -78 32 -78 79
c0 21 13 65 43 118c-85 40 -123 119 -123 242zM533 423c0 44 -11 72 -33 87c-55 -145 -104 -240 -167 -395c105 0 200 157 200 308zM242 153l201 487c-123 -61 -228 -223 -228 -374c0 -47 9 -86 27 -113z" />
    <glyph glyph-name="Ugrave" unicode="&#xd9;" horiz-adv-x="632" 
d="M36 619c0 72 89 127 207 127c95 0 139 -53 139 -123c0 -63 -14 -127 -72 -276c-38 -97 -49 -146 -49 -176c0 -49 21 -72 63 -72c69 0 148 121 200 346c-10 45 -15 89 -15 127c0 77 22 132 74 132c56 0 115 -55 115 -93c0 -35 -7 -65 -41 -151
c-76 -352 -219 -495 -375 -495c-121 0 -195 64 -195 174c0 50 18 120 39 173c67 171 84 232 84 264c0 25 -12 31 -28 31c-20 0 -57 -23 -93 -57c-31 5 -53 40 -53 69zM475 988c8 -73 25 -158 47 -216c-1 -16 -13 -29 -36 -29c-41 0 -90 57 -124 153c-2 7 -4 15 -4 23
c0 43 30 83 83 83c15 0 27 -6 34 -14z" />
    <glyph glyph-name="Uacute" unicode="&#xda;" horiz-adv-x="632" 
d="M36 619c0 72 89 127 207 127c95 0 139 -53 139 -123c0 -63 -14 -127 -72 -276c-38 -97 -49 -146 -49 -176c0 -49 21 -72 63 -72c69 0 148 121 200 346c-10 45 -15 89 -15 127c0 77 22 132 74 132c56 0 115 -55 115 -93c0 -35 -7 -65 -41 -151
c-76 -352 -219 -495 -375 -495c-121 0 -195 64 -195 174c0 50 18 120 39 173c67 171 84 232 84 264c0 25 -12 31 -28 31c-20 0 -57 -23 -93 -57c-31 5 -53 40 -53 69zM588 997c45 0 68 -26 68 -63c0 -29 -26 -71 -77 -124c-41 -42 -92 -73 -123 -73c-14 0 -23 8 -23 26
c69 100 105 158 105 207c11 17 28 27 50 27z" />
    <glyph glyph-name="Ucircumflex" unicode="&#xdb;" horiz-adv-x="632" 
d="M36 619c0 72 89 127 207 127c95 0 139 -53 139 -123c0 -63 -14 -127 -72 -276c-38 -97 -49 -146 -49 -176c0 -49 21 -72 63 -72c69 0 148 121 200 346c-10 45 -15 89 -15 127c0 77 22 132 74 132c56 0 115 -55 115 -93c0 -35 -7 -65 -41 -151
c-76 -352 -219 -495 -375 -495c-121 0 -195 64 -195 174c0 50 18 120 39 173c67 171 84 232 84 264c0 25 -12 31 -28 31c-20 0 -57 -23 -93 -57c-31 5 -53 40 -53 69zM522 811c0 83 -2 104 -16 104c-20 0 -57 -48 -87 -145c-7 -3 -13 -4 -20 -4c-20 0 -37 15 -37 44
c0 62 93 217 191 217c68 0 81 -46 81 -186c0 -10 1 -27 2 -43c-12 -21 -41 -39 -72 -39s-42 17 -42 52z" />
    <glyph glyph-name="Udieresis" unicode="&#xdc;" horiz-adv-x="632" 
d="M36 619c0 72 89 127 207 127c95 0 139 -53 139 -123c0 -63 -14 -127 -72 -276c-38 -97 -49 -146 -49 -176c0 -49 21 -72 63 -72c69 0 148 121 200 346c-10 45 -15 89 -15 127c0 77 22 132 74 132c56 0 115 -55 115 -93c0 -35 -7 -65 -41 -151
c-76 -352 -219 -495 -375 -495c-121 0 -195 64 -195 174c0 50 18 120 39 173c67 171 84 232 84 264c0 25 -12 31 -28 31c-20 0 -57 -23 -93 -57c-31 5 -53 40 -53 69zM366 846c0 76 16 108 45 108c39 0 72 -41 72 -71c0 -24 -15 -53 -63 -111c-28 0 -54 23 -54 74zM539 861
c0 81 17 110 49 110c40 0 85 -44 85 -75c0 -24 -19 -63 -67 -122c-41 0 -67 28 -67 87z" />
    <glyph glyph-name="Yacute" unicode="&#xdd;" horiz-adv-x="726" 
d="M619 74c64 46 118 98 174 182c18 -1 35 -11 35 -33c0 -75 -143 -208 -249 -276c-42 -90 -118 -171 -212 -171c-46 0 -111 35 -111 88c0 41 63 86 213 162c14 34 25 89 38 147c-54 -74 -130 -118 -200 -118c-77 0 -121 51 -121 125c0 36 9 76 31 135
c-91 3 -167 58 -167 144c0 142 233 279 351 279c67 0 102 -28 102 -82c0 -38 -7 -59 -109 -284c-35 -78 -40 -99 -40 -122c0 -22 13 -34 32 -34c43 0 97 25 137 69c36 311 71 432 136 432c51 0 104 -55 104 -93c0 -35 -17 -72 -57 -145c-23 -122 -51 -259 -63 -314
c-7 -30 -16 -65 -24 -91zM184 484c0 -33 15 -56 67 -83c43 93 87 159 87 195c0 17 -6 22 -19 22c-28 0 -135 -63 -135 -134zM693 1023c45 0 68 -26 68 -63c0 -29 -26 -71 -77 -124c-41 -42 -92 -73 -123 -73c-14 0 -23 8 -23 26c69 100 105 158 105 207c11 17 28 27 50 27z
" />
    <glyph glyph-name="Thorn" unicode="&#xde;" horiz-adv-x="674" 
d="M466 861c15 0 20 -6 20 -24c0 -21 -21 -162 -27 -195c179 -13 236 -111 236 -231c0 -200 -199 -334 -355 -341c-49 -110 -132 -164 -220 -164c-69 0 -112 40 -112 100c0 40 34 77 70 79c21 -23 42 -37 61 -37c32 0 57 48 83 142c32 117 53 197 78 301
c-57 -10 -110 -36 -138 -62c-22 0 -46 18 -46 53c0 65 89 136 223 156c39 157 84 223 127 223zM538 367c0 56 -16 106 -107 123c-10 -84 -27 -183 -49 -296c5 -1 11 -1 14 -1c78 0 142 73 142 174z" />
    <glyph glyph-name="germandbls" unicode="&#xdf;" horiz-adv-x="523" 
d="M24 60c101 508 173 639 308 639c79 0 138 -53 138 -125c0 -46 -26 -103 -90 -178c105 -133 126 -183 126 -236c0 -109 -79 -178 -166 -178c-82 0 -134 51 -134 115c0 51 38 82 70 82c10 0 15 -1 21 -4c18 -46 48 -85 71 -85c13 0 19 7 19 22c0 22 -17 59 -67 124
c-41 54 -60 83 -60 113c0 21 6 42 20 63c37 57 50 94 50 122c0 26 -12 41 -32 41c-42 0 -75 -154 -140 -512c-32 -179 -123 -287 -233 -287c-69 0 -115 30 -115 90c0 40 34 77 70 79c21 -23 42 -37 61 -37c33 0 62 47 83 152z" />
    <glyph glyph-name="agrave" unicode="&#xe0;" horiz-adv-x="439" 
d="M237 116c-32 -91 -78 -116 -113 -116c-57 0 -99 47 -99 138c0 150 124 307 224 307c14 0 21 -2 26 -7l3 58c8 9 21 13 35 13c68 0 105 -46 105 -81c0 -13 -3 -38 -11 -66c-35 -126 -48 -189 -48 -215c0 -20 4 -23 12 -23c20 0 72 38 136 128c21 0 37 -13 37 -31
c0 -65 -166 -226 -238 -226c-44 0 -72 18 -72 82c0 11 1 24 3 39zM238 165l32 208c-50 -32 -98 -115 -98 -192c0 -37 12 -41 26 -41s28 10 40 25zM308 800c8 -73 25 -158 47 -216c-1 -16 -13 -29 -36 -29c-41 0 -90 57 -124 153c-2 7 -4 15 -4 23c0 43 30 83 83 83
c15 0 27 -6 34 -14z" />
    <glyph glyph-name="aacute" unicode="&#xe1;" horiz-adv-x="439" 
d="M237 116c-32 -91 -78 -116 -113 -116c-57 0 -99 47 -99 138c0 150 124 307 224 307c14 0 21 -2 26 -7l3 58c8 9 21 13 35 13c68 0 105 -46 105 -81c0 -13 -3 -38 -11 -66c-35 -126 -48 -189 -48 -215c0 -20 4 -23 12 -23c20 0 72 38 136 128c21 0 37 -13 37 -31
c0 -65 -166 -226 -238 -226c-44 0 -72 18 -72 82c0 11 1 24 3 39zM238 165l32 208c-50 -32 -98 -115 -98 -192c0 -37 12 -41 26 -41s28 10 40 25zM373 809c45 0 68 -26 68 -63c0 -29 -26 -71 -77 -124c-41 -42 -92 -73 -123 -73c-14 0 -23 8 -23 26c69 100 105 158 105 207
c11 17 28 27 50 27z" />
    <glyph glyph-name="acircumflex" unicode="&#xe2;" horiz-adv-x="439" 
d="M237 116c-32 -91 -78 -116 -113 -116c-57 0 -99 47 -99 138c0 150 124 307 224 307c14 0 21 -2 26 -7l3 58c8 9 21 13 35 13c68 0 105 -46 105 -81c0 -13 -3 -38 -11 -66c-35 -126 -48 -189 -48 -215c0 -20 4 -23 12 -23c20 0 72 38 136 128c21 0 37 -13 37 -31
c0 -65 -166 -226 -238 -226c-44 0 -72 18 -72 82c0 11 1 24 3 39zM238 165l32 208c-50 -32 -98 -115 -98 -192c0 -37 12 -41 26 -41s28 10 40 25zM331 602c0 83 -2 104 -16 104c-20 0 -57 -48 -87 -145c-7 -3 -13 -4 -20 -4c-20 0 -37 15 -37 44c0 62 93 217 191 217
c68 0 81 -46 81 -186c0 -10 1 -27 2 -43c-12 -21 -41 -39 -72 -39s-42 17 -42 52z" />
    <glyph glyph-name="atilde" unicode="&#xe3;" horiz-adv-x="439" 
d="M237 116c-32 -91 -78 -116 -113 -116c-57 0 -99 47 -99 138c0 150 124 307 224 307c14 0 21 -2 26 -7l3 58c8 9 21 13 35 13c68 0 105 -46 105 -81c0 -13 -3 -38 -11 -66c-35 -126 -48 -189 -48 -215c0 -20 4 -23 12 -23c20 0 72 38 136 128c21 0 37 -13 37 -31
c0 -65 -166 -226 -238 -226c-44 0 -72 18 -72 82c0 11 1 24 3 39zM238 165l32 208c-50 -32 -98 -115 -98 -192c0 -37 12 -41 26 -41s28 10 40 25zM292 696c115 39 135 50 161 85c45 -5 68 -38 68 -72c0 -59 -47 -87 -167 -114c-79 -17 -106 -25 -126 -48
c-23 0 -49 14 -49 51c0 44 29 70 113 98z" />
    <glyph glyph-name="adieresis" unicode="&#xe4;" horiz-adv-x="439" 
d="M237 116c-32 -91 -78 -116 -113 -116c-57 0 -99 47 -99 138c0 150 124 307 224 307c14 0 21 -2 26 -7l3 58c8 9 21 13 35 13c68 0 105 -46 105 -81c0 -13 -3 -38 -11 -66c-35 -126 -48 -189 -48 -215c0 -20 4 -23 12 -23c20 0 72 38 136 128c21 0 37 -13 37 -31
c0 -65 -166 -226 -238 -226c-44 0 -72 18 -72 82c0 11 1 24 3 39zM238 165l32 208c-50 -32 -98 -115 -98 -192c0 -37 12 -41 26 -41s28 10 40 25zM169 613c0 76 16 108 45 108c39 0 72 -41 72 -71c0 -24 -15 -53 -63 -111c-28 0 -54 23 -54 74zM342 628c0 81 17 110 49 110
c40 0 85 -44 85 -75c0 -24 -19 -63 -67 -122c-41 0 -67 28 -67 87z" />
    <glyph glyph-name="aring" unicode="&#xe5;" horiz-adv-x="439" 
d="M237 116c-32 -91 -78 -116 -113 -116c-57 0 -99 47 -99 138c0 150 124 307 224 307c14 0 21 -2 26 -7l3 58c8 9 21 13 35 13c68 0 105 -46 105 -81c0 -13 -3 -38 -11 -66c-35 -126 -48 -189 -48 -215c0 -20 4 -23 12 -23c20 0 72 38 136 128c21 0 37 -13 37 -31
c0 -65 -166 -226 -238 -226c-44 0 -72 18 -72 82c0 11 1 24 3 39zM238 165l32 208c-50 -32 -98 -115 -98 -192c0 -37 12 -41 26 -41s28 10 40 25zM328 556c-61 0 -101 36 -101 97c0 72 59 146 97 146c11 0 19 -4 23 -8c10 21 28 32 47 32c41 0 78 -42 78 -106
c0 -99 -76 -161 -144 -161zM312 675c0 -18 10 -28 26 -28c15 0 32 15 32 39c0 17 -9 39 -24 57c-23 -23 -34 -52 -34 -68z" />
    <glyph glyph-name="ae" unicode="&#xe6;" horiz-adv-x="567" 
d="M399 449c16 12 37 16 54 16c69 0 107 -33 107 -103c0 -84 -49 -149 -186 -180c0 -45 9 -70 48 -70c68 0 156 58 213 145c24 -1 38 -17 38 -33c0 -74 -167 -233 -297 -233c-73 0 -117 39 -130 122c-32 -91 -87 -113 -122 -113c-57 0 -99 47 -99 138c0 150 124 307 224 307
c14 0 21 -2 26 -7l3 68c8 9 21 13 35 13c45 0 77 -34 86 -70zM238 165l32 208c-50 -32 -98 -115 -98 -192c0 -37 12 -41 26 -41s28 10 40 25zM448 327c0 21 -8 33 -20 33c-14 0 -41 -34 -48 -104c56 10 68 41 68 71z" />
    <glyph glyph-name="ccedilla" unicode="&#xe7;" horiz-adv-x="338" 
d="M181 -9h-16c-98 0 -140 61 -140 169c0 154 123 306 230 306c68 0 102 -36 102 -97c0 -64 -45 -115 -93 -115c-22 0 -35 7 -43 19c7 27 10 50 10 63c0 14 -7 21 -13 21c-19 0 -54 -64 -54 -165c0 -55 15 -77 54 -77c56 0 133 57 187 141c18 0 39 -12 39 -33
c0 -51 -86 -153 -179 -203c0 -143 -58 -225 -148 -225c-63 0 -99 39 -99 94c0 27 17 55 50 59c19 -21 42 -36 59 -36c23 0 42 28 54 79z" />
    <glyph glyph-name="egrave" unicode="&#xe8;" horiz-adv-x="359" 
d="M240 327c0 21 -8 33 -20 33c-14 0 -41 -34 -48 -104c56 10 68 41 68 71zM168 -9c-98 0 -143 61 -143 169c0 151 123 305 220 305c69 0 107 -33 107 -103c0 -84 -49 -149 -186 -180c0 -45 9 -70 48 -70c68 0 156 58 213 145c24 -1 38 -17 38 -33
c0 -74 -167 -233 -297 -233zM255 767c8 -73 25 -158 47 -216c-1 -16 -13 -29 -36 -29c-41 0 -90 57 -124 153c-2 7 -4 15 -4 23c0 43 30 83 83 83c15 0 27 -6 34 -14z" />
    <glyph glyph-name="eacute" unicode="&#xe9;" horiz-adv-x="359" 
d="M240 327c0 21 -8 33 -20 33c-14 0 -41 -34 -48 -104c56 10 68 41 68 71zM168 -9c-98 0 -143 61 -143 169c0 151 123 305 220 305c69 0 107 -33 107 -103c0 -84 -49 -149 -186 -180c0 -45 9 -70 48 -70c68 0 156 58 213 145c24 -1 38 -17 38 -33
c0 -74 -167 -233 -297 -233zM366 784c45 0 68 -26 68 -63c0 -29 -26 -71 -77 -124c-41 -42 -92 -73 -123 -73c-14 0 -23 8 -23 26c69 100 105 158 105 207c11 17 28 27 50 27z" />
    <glyph glyph-name="ecircumflex" unicode="&#xea;" horiz-adv-x="359" 
d="M240 327c0 21 -8 33 -20 33c-14 0 -41 -34 -48 -104c56 10 68 41 68 71zM168 -9c-98 0 -143 61 -143 169c0 151 123 305 220 305c69 0 107 -33 107 -103c0 -84 -49 -149 -186 -180c0 -45 9 -70 48 -70c68 0 156 58 213 145c24 -1 38 -17 38 -33
c0 -74 -167 -233 -297 -233zM302 567c0 83 -2 104 -16 104c-20 0 -57 -48 -87 -145c-7 -3 -13 -4 -20 -4c-20 0 -37 15 -37 44c0 62 93 217 191 217c68 0 81 -46 81 -186c0 -10 1 -27 2 -43c-12 -21 -41 -39 -72 -39s-42 17 -42 52z" />
    <glyph glyph-name="edieresis" unicode="&#xeb;" horiz-adv-x="359" 
d="M240 327c0 21 -8 33 -20 33c-14 0 -41 -34 -48 -104c56 10 68 41 68 71zM168 -9c-98 0 -143 61 -143 169c0 151 123 305 220 305c69 0 107 -33 107 -103c0 -84 -49 -149 -186 -180c0 -45 9 -70 48 -70c68 0 156 58 213 145c24 -1 38 -17 38 -33
c0 -74 -167 -233 -297 -233zM140 597c0 76 16 108 45 108c39 0 72 -41 72 -71c0 -24 -15 -53 -63 -111c-28 0 -54 23 -54 74zM313 612c0 81 17 110 49 110c40 0 85 -44 85 -75c0 -24 -19 -63 -67 -122c-41 0 -67 28 -67 87z" />
    <glyph glyph-name="igrave" unicode="&#xec;" horiz-adv-x="254" 
d="M65 215c-8 19 -10 42 -10 62c0 59 89 164 151 164c46 0 50 -25 50 -64c0 -26 -17 -68 -35 -110c-28 -69 -41 -101 -41 -124c0 -11 5 -15 14 -15c14 0 59 32 126 127c19 0 39 -16 39 -36c0 -63 -159 -232 -251 -232c-59 0 -79 26 -79 81c0 44 11 85 36 147zM230 747
c8 -73 25 -158 47 -216c-1 -16 -13 -29 -36 -29c-41 0 -90 57 -124 153c-2 7 -4 15 -4 23c0 43 30 83 83 83c15 0 27 -6 34 -14z" />
    <glyph glyph-name="iacute" unicode="&#xed;" horiz-adv-x="254" 
d="M65 215c-8 19 -10 42 -10 62c0 59 89 164 151 164c46 0 50 -25 50 -64c0 -26 -17 -68 -35 -110c-28 -69 -41 -101 -41 -124c0 -11 5 -15 14 -15c14 0 59 32 126 127c19 0 39 -16 39 -36c0 -63 -159 -232 -251 -232c-59 0 -79 26 -79 81c0 44 11 85 36 147zM324 764
c45 0 68 -26 68 -63c0 -29 -26 -71 -77 -124c-41 -42 -92 -73 -123 -73c-14 0 -23 8 -23 26c69 100 105 158 105 207c11 17 28 27 50 27z" />
    <glyph glyph-name="icircumflex" unicode="&#xee;" horiz-adv-x="254" 
d="M65 215c-8 19 -10 42 -10 62c0 59 89 164 151 164c46 0 50 -25 50 -64c0 -26 -17 -68 -35 -110c-28 -69 -41 -101 -41 -124c0 -11 5 -15 14 -15c14 0 59 32 126 127c19 0 39 -16 39 -36c0 -63 -159 -232 -251 -232c-59 0 -79 26 -79 81c0 44 11 85 36 147zM266 543
c0 83 -2 104 -16 104c-20 0 -57 -48 -87 -145c-7 -3 -13 -4 -20 -4c-20 0 -37 15 -37 44c0 62 93 217 191 217c68 0 81 -46 81 -186c0 -10 1 -27 2 -43c-12 -21 -41 -39 -72 -39s-42 17 -42 52z" />
    <glyph glyph-name="idieresis" unicode="&#xef;" horiz-adv-x="254" 
d="M65 215c-8 19 -10 42 -10 62c0 59 89 164 151 164c46 0 50 -25 50 -64c0 -26 -17 -68 -35 -110c-28 -69 -41 -101 -41 -124c0 -11 5 -15 14 -15c14 0 59 32 126 127c19 0 39 -16 39 -36c0 -63 -159 -232 -251 -232c-59 0 -79 26 -79 81c0 44 11 85 36 147zM110 584
c0 76 16 108 45 108c39 0 72 -41 72 -71c0 -24 -15 -53 -63 -111c-28 0 -54 23 -54 74zM283 599c0 81 17 110 49 110c40 0 85 -44 85 -75c0 -24 -19 -63 -67 -122c-41 0 -67 28 -67 87z" />
    <glyph glyph-name="eth" unicode="&#xf0;" horiz-adv-x="418" 
d="M30 154c0 137 122 270 199 270c31 0 46 -17 46 -43c0 -4 0 -8 -1 -12c-65 -42 -103 -143 -103 -204c0 -34 10 -44 30 -44c42 0 103 156 103 318c0 35 -7 66 -20 92c-22 -14 -45 -27 -61 -36c-21 3 -35 23 -35 45c0 20 8 41 36 63c-30 21 -68 34 -109 37
c-9 8 -13 21 -13 33c0 47 40 95 129 95c48 0 95 -19 133 -53c26 26 42 47 60 74c38 0 65 -25 65 -61c0 -31 -22 -65 -63 -100c16 -36 25 -78 25 -125c0 -311 -162 -512 -289 -512c-80 0 -132 52 -132 163z" />
    <glyph glyph-name="ntilde" unicode="&#xf1;" horiz-adv-x="473" 
d="M70 235c-8 19 -10 42 -10 62c0 59 89 164 151 164c34 0 43 -12 43 -42c0 -25 -13 -95 -40 -144c73 126 142 171 186 171c46 0 69 -30 69 -69c0 -27 -8 -62 -29 -110c-18 -44 -50 -115 -50 -140c0 -11 5 -15 14 -15c20 0 83 51 145 140c19 0 39 -13 39 -33
c0 -63 -169 -232 -261 -232c-59 0 -79 26 -79 81c0 66 51 167 51 189c0 8 -4 12 -12 12c-9 0 -42 -15 -81 -69c-14 -77 -20 -122 -23 -190c-10 -10 -17 -13 -40 -13c-56 0 -97 53 -98 113c0 38 8 79 25 125zM295 658c115 39 135 50 161 85c45 -5 68 -38 68 -72
c0 -59 -47 -87 -167 -114c-79 -17 -106 -25 -126 -48c-23 0 -49 14 -49 51c0 44 29 70 113 98z" />
    <glyph glyph-name="ograve" unicode="&#xf2;" horiz-adv-x="412" 
d="M312 744c8 -73 25 -158 47 -216c-1 -16 -13 -29 -36 -29c-41 0 -90 57 -124 153c-2 7 -4 15 -4 23c0 43 30 83 83 83c15 0 27 -6 34 -14zM338 428c41 0 61 -54 61 -99c0 -48 -10 -87 -31 -142c3 -3 10 -7 20 -7c29 0 58 23 91 76c18 0 39 -15 39 -36
c0 -42 -67 -136 -152 -136c-18 0 -29 3 -40 10c-48 -65 -101 -101 -171 -101c-71 0 -127 47 -127 145c0 166 110 320 216 320c26 0 58 -11 59 -44c10 10 19 14 35 14zM170 175c0 -49 18 -63 36 -63c24 0 48 23 66 68c-8 31 -11 60 -11 87c0 34 7 87 22 116
c-62 -29 -113 -126 -113 -208z" />
    <glyph glyph-name="oacute" unicode="&#xf3;" horiz-adv-x="412" 
d="M425 761c45 0 68 -26 68 -63c0 -29 -26 -71 -77 -124c-41 -42 -92 -73 -123 -73c-14 0 -23 8 -23 26c69 100 105 158 105 207c11 17 28 27 50 27zM338 428c41 0 61 -54 61 -99c0 -48 -10 -87 -31 -142c3 -3 10 -7 20 -7c29 0 58 23 91 76c18 0 39 -15 39 -36
c0 -42 -67 -136 -152 -136c-18 0 -29 3 -40 10c-48 -65 -101 -101 -171 -101c-71 0 -127 47 -127 145c0 166 110 320 216 320c26 0 58 -11 59 -44c10 10 19 14 35 14zM170 175c0 -49 18 -63 36 -63c24 0 48 23 66 68c-8 31 -11 60 -11 87c0 34 7 87 22 116
c-62 -29 -113 -126 -113 -208z" />
    <glyph glyph-name="ocircumflex" unicode="&#xf4;" horiz-adv-x="412" 
d="M329 551c0 83 -2 104 -16 104c-20 0 -57 -48 -87 -145c-7 -3 -13 -4 -20 -4c-20 0 -37 15 -37 44c0 62 93 217 191 217c68 0 81 -46 81 -186c0 -10 1 -27 2 -43c-12 -21 -41 -39 -72 -39s-42 17 -42 52zM338 428c41 0 61 -54 61 -99c0 -48 -10 -87 -31 -142
c3 -3 10 -7 20 -7c29 0 58 23 91 76c18 0 39 -15 39 -36c0 -42 -67 -136 -152 -136c-18 0 -29 3 -40 10c-48 -65 -101 -101 -171 -101c-71 0 -127 47 -127 145c0 166 110 320 216 320c26 0 58 -11 59 -44c10 10 19 14 35 14zM170 175c0 -49 18 -63 36 -63c24 0 48 23 66 68
c-8 31 -11 60 -11 87c0 34 7 87 22 116c-62 -29 -113 -126 -113 -208z" />
    <glyph glyph-name="otilde" unicode="&#xf5;" horiz-adv-x="412" 
d="M286 653c115 39 135 50 161 85c45 -5 68 -38 68 -72c0 -59 -47 -87 -167 -114c-79 -17 -106 -25 -126 -48c-23 0 -49 14 -49 51c0 44 29 70 113 98zM338 428c41 0 61 -54 61 -99c0 -48 -10 -87 -31 -142c3 -3 10 -7 20 -7c29 0 58 23 91 76c18 0 39 -15 39 -36
c0 -42 -67 -136 -152 -136c-18 0 -29 3 -40 10c-48 -65 -101 -101 -171 -101c-71 0 -127 47 -127 145c0 166 110 320 216 320c26 0 58 -11 59 -44c10 10 19 14 35 14zM170 175c0 -49 18 -63 36 -63c24 0 48 23 66 68c-8 31 -11 60 -11 87c0 34 7 87 22 116
c-62 -29 -113 -126 -113 -208z" />
    <glyph glyph-name="odieresis" unicode="&#xf6;" horiz-adv-x="412" 
d="M181 582c0 76 16 108 45 108c39 0 72 -41 72 -71c0 -24 -15 -53 -63 -111c-28 0 -54 23 -54 74zM354 597c0 81 17 110 49 110c40 0 85 -44 85 -75c0 -24 -19 -63 -67 -122c-41 0 -67 28 -67 87zM338 428c41 0 61 -54 61 -99c0 -48 -10 -87 -31 -142c3 -3 10 -7 20 -7
c29 0 58 23 91 76c18 0 39 -15 39 -36c0 -42 -67 -136 -152 -136c-18 0 -29 3 -40 10c-48 -65 -101 -101 -171 -101c-71 0 -127 47 -127 145c0 166 110 320 216 320c26 0 58 -11 59 -44c10 10 19 14 35 14zM170 175c0 -49 18 -63 36 -63c24 0 48 23 66 68
c-8 31 -11 60 -11 87c0 34 7 87 22 116c-62 -29 -113 -126 -113 -208z" />
    <glyph glyph-name="divide" unicode="&#xf7;" horiz-adv-x="549" 
d="M273 158c16 0 29 -5 40 -16s16 -25 17 -41c0 -16 -5 -29 -16 -40c-11 -12 -24 -17 -40 -17s-29 6 -40 17c-12 11 -17 24 -17 40c-1 16 4 29 16 40c11 12 24 17 40 17zM504 202h-463l-1 68h463zM271 427c16 0 29 -6 40 -17s16 -24 16 -40s-4 -29 -15 -40s-24 -17 -40 -17
s-29 6 -40 17c-12 11 -18 24 -18 40s5 29 17 40c11 11 24 17 40 17z" />
    <glyph glyph-name="oslash" unicode="&#xf8;" horiz-adv-x="412" 
d="M368 187c3 -3 10 -7 20 -7c29 0 58 23 91 76c18 0 39 -15 39 -36c0 -42 -67 -136 -152 -136c-18 0 -29 3 -40 10c-45 -61 -95 -96 -158 -100c-18 -54 -26 -100 -28 -116c-7 -3 -21 -4 -28 -4c-31 1 -55 22 -55 56c0 23 6 49 27 82c-34 23 -56 64 -56 126
c0 155 96 303 203 312c26 71 32 117 34 137c8 3 19 4 27 4c36 0 60 -27 60 -63c0 -32 -19 -70 -49 -114c10 10 19 14 35 14c41 0 61 -54 61 -99c0 -48 -10 -87 -31 -142zM170 175c0 -49 18 -63 36 -63c24 0 48 23 66 68c-8 31 -11 60 -11 87c0 34 7 87 22 116
c-62 -29 -113 -126 -113 -208z" />
    <glyph glyph-name="ugrave" unicode="&#xf9;" horiz-adv-x="453" 
d="M313 447c10 13 27 19 42 19c56 0 97 -40 97 -81c0 -18 -4 -38 -19 -78c-21 -57 -63 -150 -63 -169c0 -13 6 -16 14 -16c23 0 71 40 135 130c21 0 41 -13 41 -31c0 -36 -50 -101 -108 -152c-47 -42 -100 -74 -142 -74c-41 0 -66 13 -66 65c0 14 2 31 6 52
c-48 -91 -109 -133 -154 -133c-59 0 -73 34 -73 94c0 30 14 88 40 152c-11 21 -13 42 -13 62c0 62 96 174 166 174c31 0 48 -10 48 -40c0 -32 -26 -92 -77 -175c-10 -36 -16 -66 -16 -82s6 -26 20 -26c17 0 49 24 69 45c34 108 48 178 53 264zM284 757
c8 -73 25 -158 47 -216c-1 -16 -13 -29 -36 -29c-41 0 -90 57 -124 153c-2 7 -4 15 -4 23c0 43 30 83 83 83c15 0 27 -6 34 -14z" />
    <glyph glyph-name="uacute" unicode="&#xfa;" horiz-adv-x="453" 
d="M313 447c10 13 27 19 42 19c56 0 97 -40 97 -81c0 -18 -4 -38 -19 -78c-21 -57 -63 -150 -63 -169c0 -13 6 -16 14 -16c23 0 71 40 135 130c21 0 41 -13 41 -31c0 -36 -50 -101 -108 -152c-47 -42 -100 -74 -142 -74c-41 0 -66 13 -66 65c0 14 2 31 6 52
c-48 -91 -109 -133 -154 -133c-59 0 -73 34 -73 94c0 30 14 88 40 152c-11 21 -13 42 -13 62c0 62 96 174 166 174c31 0 48 -10 48 -40c0 -32 -26 -92 -77 -175c-10 -36 -16 -66 -16 -82s6 -26 20 -26c17 0 49 24 69 45c34 108 48 178 53 264zM406 774c45 0 68 -26 68 -63
c0 -29 -26 -71 -77 -124c-41 -42 -92 -73 -123 -73c-14 0 -23 8 -23 26c69 100 105 158 105 207c11 17 28 27 50 27z" />
    <glyph glyph-name="ucircumflex" unicode="&#xfb;" horiz-adv-x="453" 
d="M313 447c10 13 27 19 42 19c56 0 97 -40 97 -81c0 -18 -4 -38 -19 -78c-21 -57 -63 -150 -63 -169c0 -13 6 -16 14 -16c23 0 71 40 135 130c21 0 41 -13 41 -31c0 -36 -50 -101 -108 -152c-47 -42 -100 -74 -142 -74c-41 0 -66 13 -66 65c0 14 2 31 6 52
c-48 -91 -109 -133 -154 -133c-59 0 -73 34 -73 94c0 30 14 88 40 152c-11 21 -13 42 -13 62c0 62 96 174 166 174c31 0 48 -10 48 -40c0 -32 -26 -92 -77 -175c-10 -36 -16 -66 -16 -82s6 -26 20 -26c17 0 49 24 69 45c34 108 48 178 53 264zM349 563c0 83 -2 104 -16 104
c-20 0 -57 -48 -87 -145c-7 -3 -13 -4 -20 -4c-20 0 -37 15 -37 44c0 62 93 217 191 217c68 0 81 -46 81 -186c0 -10 1 -27 2 -43c-12 -21 -41 -39 -72 -39s-42 17 -42 52z" />
    <glyph glyph-name="udieresis" unicode="&#xfc;" horiz-adv-x="453" 
d="M313 447c10 13 27 19 42 19c56 0 97 -40 97 -81c0 -18 -4 -38 -19 -78c-21 -57 -63 -150 -63 -169c0 -13 6 -16 14 -16c23 0 71 40 135 130c21 0 41 -13 41 -31c0 -36 -50 -101 -108 -152c-47 -42 -100 -74 -142 -74c-41 0 -66 13 -66 65c0 14 2 31 6 52
c-48 -91 -109 -133 -154 -133c-59 0 -73 34 -73 94c0 30 14 88 40 152c-11 21 -13 42 -13 62c0 62 96 174 166 174c31 0 48 -10 48 -40c0 -32 -26 -92 -77 -175c-10 -36 -16 -66 -16 -82s6 -26 20 -26c17 0 49 24 69 45c34 108 48 178 53 264zM184 595c0 76 16 108 45 108
c39 0 72 -41 72 -71c0 -24 -15 -53 -63 -111c-28 0 -54 23 -54 74zM357 610c0 81 17 110 49 110c40 0 85 -44 85 -75c0 -24 -19 -63 -67 -122c-41 0 -67 28 -67 87z" />
    <glyph glyph-name="yacute" unicode="&#xfd;" horiz-adv-x="434" 
d="M116 -43c-8 38 -16 65 -46 176c-20 73 -29 110 -29 164c0 99 86 172 156 172c44 0 61 -19 61 -51c-49 -35 -60 -68 -60 -121c0 -25 9 -80 29 -154c19 19 38 44 45 56c-1 10 -2 22 -2 35c0 48 8 109 23 151c14 41 28 57 54 57c44 0 85 -61 85 -103c0 -36 -15 -79 -52 -136
c6 -16 20 -29 32 -29c32 0 65 40 91 82c18 0 38 -15 38 -36c0 -60 -87 -138 -159 -138c-28 0 -54 7 -71 28c-13 -19 -41 -45 -60 -62c5 -33 8 -73 8 -93c0 -104 -61 -199 -155 -199c-48 0 -64 25 -64 59c0 31 18 80 76 142zM434 765c45 0 68 -26 68 -63
c0 -29 -26 -71 -77 -124c-41 -42 -92 -73 -123 -73c-14 0 -23 8 -23 26c69 100 105 158 105 207c11 17 28 27 50 27z" />
    <glyph glyph-name="thorn" unicode="&#xfe;" horiz-adv-x="465" 
d="M104 -257c-47 0 -107 39 -107 89c0 28 15 79 52 146l20 397c9 171 60 293 170 293c46 0 76 -26 76 -55c0 -3 0 -8 -1 -12c-79 -58 -93 -103 -112 -304c64 95 128 143 170 143c49 0 79 -37 79 -90c0 -62 -44 -142 -110 -219c11 -7 21 -11 37 -11c23 0 86 37 153 132
c19 0 39 -13 39 -33c0 -63 -165 -220 -257 -220c-69 0 -90 54 -90 97c0 24 9 43 36 51c18 35 31 67 31 89c0 21 -7 28 -20 28s-32 -14 -70 -55c-12 -279 -35 -466 -96 -466z" />
    <glyph glyph-name="ydieresis" unicode="&#xff;" horiz-adv-x="434" 
d="M116 -43c-8 38 -16 65 -46 176c-20 73 -29 110 -29 164c0 99 86 172 156 172c44 0 61 -19 61 -51c-49 -35 -60 -68 -60 -121c0 -25 9 -80 29 -154c19 19 38 44 45 56c-1 10 -2 22 -2 35c0 48 8 109 23 151c14 41 28 57 54 57c44 0 85 -61 85 -103c0 -36 -15 -79 -52 -136
c6 -16 20 -29 32 -29c32 0 65 40 91 82c18 0 38 -15 38 -36c0 -60 -87 -138 -159 -138c-28 0 -54 7 -71 28c-13 -19 -41 -45 -60 -62c5 -33 8 -73 8 -93c0 -104 -61 -199 -155 -199c-48 0 -64 25 -64 59c0 31 18 80 76 142zM187 594c0 76 16 108 45 108c39 0 72 -41 72 -71
c0 -24 -15 -53 -63 -111c-28 0 -54 23 -54 74zM360 609c0 81 17 110 49 110c40 0 85 -44 85 -75c0 -24 -19 -63 -67 -122c-41 0 -67 28 -67 87z" />
    <glyph glyph-name="Amacron" unicode="&#x100;" horiz-adv-x="850" 
d="M195 214c56 1 115 4 187 8c58 76 164 232 265 377c19 77 68 141 151 141c54 0 82 -35 85 -67c0 -20 -16 -36 -95 -87c-14 -73 -22 -180 -27 -268c24 -4 39 -19 39 -48c0 -28 -18 -59 -43 -80c0 -43 0 -66 15 -66c14 0 71 29 142 129h4c19 0 38 -14 38 -33
c0 -67 -178 -245 -275 -245c-62 0 -88 28 -88 85c0 32 0 46 3 95c-43 -4 -109 -8 -160 -10c-112 -162 -181 -210 -271 -210c-97 0 -155 59 -155 161c0 81 57 152 132 152c28 0 46 -11 53 -34zM204 67c33 0 60 17 107 71c-57 -2 -101 -2 -142 -2c-2 -7 -3 -17 -3 -22
c0 -32 16 -47 38 -47zM500 230c33 2 77 5 103 8c5 52 16 164 28 222c-33 -62 -98 -175 -131 -230zM727 887c138 8 155 14 214 40c20 -5 31 -21 31 -42c0 -53 -58 -80 -189 -80c-40 0 -81 2 -120 5c-7 6 -11 19 -11 26c0 27 22 48 75 51z" />
    <glyph glyph-name="amacron" unicode="&#x101;" horiz-adv-x="439" 
d="M237 116c-32 -91 -78 -116 -113 -116c-57 0 -99 47 -99 138c0 150 124 307 224 307c14 0 21 -2 26 -7l3 58c8 9 21 13 35 13c68 0 105 -46 105 -81c0 -13 -3 -38 -11 -66c-35 -126 -48 -189 -48 -215c0 -20 4 -23 12 -23c20 0 72 38 136 128c21 0 37 -13 37 -31
c0 -65 -166 -226 -238 -226c-44 0 -72 18 -72 82c0 11 1 24 3 39zM238 165l32 208c-50 -32 -98 -115 -98 -192c0 -37 12 -41 26 -41s28 10 40 25zM243 661c138 8 155 14 214 40c20 -5 31 -21 31 -42c0 -53 -58 -80 -189 -80c-40 0 -81 2 -120 5c-7 6 -11 19 -11 26
c0 27 22 48 75 51z" />
    <glyph glyph-name="Abreve" unicode="&#x102;" horiz-adv-x="850" 
d="M195 214c56 1 115 4 187 8c58 76 164 232 265 377c19 77 68 141 151 141c54 0 82 -35 85 -67c0 -20 -16 -36 -95 -87c-14 -73 -22 -180 -27 -268c24 -4 39 -19 39 -48c0 -28 -18 -59 -43 -80c0 -43 0 -66 15 -66c14 0 71 29 142 129h4c19 0 38 -14 38 -33
c0 -67 -178 -245 -275 -245c-62 0 -88 28 -88 85c0 32 0 46 3 95c-43 -4 -109 -8 -160 -10c-112 -162 -181 -210 -271 -210c-97 0 -155 59 -155 161c0 81 57 152 132 152c28 0 46 -11 53 -34zM204 67c33 0 60 17 107 71c-57 -2 -101 -2 -142 -2c-2 -7 -3 -17 -3 -22
c0 -32 16 -47 38 -47zM500 230c33 2 77 5 103 8c5 52 16 164 28 222c-33 -62 -98 -175 -131 -230zM802 1010c-13 -31 -20 -57 -20 -78c0 -20 19 -39 54 -39c36 0 64 30 88 123c7 3 13 4 20 4c20 0 37 -15 37 -44c0 -87 -78 -185 -173 -185c-81 0 -118 46 -118 96
c0 70 35 146 83 146c15 0 29 -7 29 -23z" />
    <glyph glyph-name="abreve" unicode="&#x103;" horiz-adv-x="439" 
d="M237 116c-32 -91 -78 -116 -113 -116c-57 0 -99 47 -99 138c0 150 124 307 224 307c14 0 21 -2 26 -7l3 58c8 9 21 13 35 13c68 0 105 -46 105 -81c0 -13 -3 -38 -11 -66c-35 -126 -48 -189 -48 -215c0 -20 4 -23 12 -23c20 0 72 38 136 128c21 0 37 -13 37 -31
c0 -65 -166 -226 -238 -226c-44 0 -72 18 -72 82c0 11 1 24 3 39zM238 165l32 208c-50 -32 -98 -115 -98 -192c0 -37 12 -41 26 -41s28 10 40 25zM326 783c-13 -31 -20 -57 -20 -78c0 -20 19 -39 54 -39c36 0 64 30 88 123c7 3 13 4 20 4c20 0 37 -15 37 -44
c0 -87 -78 -185 -173 -185c-81 0 -118 46 -118 96c0 70 35 146 83 146c15 0 29 -7 29 -23z" />
    <glyph glyph-name="Aogonek" unicode="&#x104;" horiz-adv-x="850" 
d="M195 214c56 1 115 4 187 8c58 76 164 232 265 377c19 77 68 141 151 141c54 0 82 -35 85 -67c0 -20 -16 -36 -95 -87c-14 -73 -22 -180 -27 -268c24 -4 39 -19 39 -48c0 -28 -18 -59 -43 -80c0 -43 0 -66 15 -66c14 0 71 29 142 129h4c19 0 38 -14 38 -33
c0 -39 -61 -116 -131 -174c-43 -65 -70 -124 -70 -143c0 -18 18 -25 55 -39c3 -5 4 -15 4 -20c0 -32 -40 -72 -97 -72c-53 0 -86 30 -86 71c0 28 18 74 65 134c-5 -1 -10 -2 -15 -2c-62 0 -88 28 -88 85c0 32 0 46 3 95c-43 -4 -109 -8 -160 -10
c-112 -162 -181 -210 -271 -210c-97 0 -155 59 -155 161c0 81 57 152 132 152c28 0 46 -11 53 -34zM500 230c33 2 77 5 103 8c5 52 16 164 28 222c-33 -62 -98 -175 -131 -230zM204 67c33 0 60 17 107 71c-57 -2 -101 -2 -142 -2c-2 -7 -3 -17 -3 -22c0 -32 16 -47 38 -47z
" />
    <glyph glyph-name="aogonek" unicode="&#x105;" horiz-adv-x="439" 
d="M237 116c-32 -91 -78 -116 -113 -116c-57 0 -99 47 -99 138c0 150 124 307 224 307c14 0 21 -2 26 -7l3 58c8 9 21 13 35 13c68 0 105 -46 105 -81c0 -13 -3 -38 -11 -66c-35 -126 -48 -189 -48 -215c0 -20 4 -23 12 -23c20 0 72 38 136 128c21 0 37 -13 37 -31
c0 -39 -58 -110 -120 -162c-43 -67 -71 -127 -71 -146c0 -18 18 -25 55 -39c3 -5 4 -15 4 -20c0 -32 -40 -72 -97 -72c-53 0 -86 30 -86 71c0 29 14 66 61 128c3 5 7 10 11 14c-41 2 -67 20 -67 82c0 11 1 24 3 39zM238 165l32 208c-50 -32 -98 -115 -98 -192
c0 -37 12 -41 26 -41s28 10 40 25z" />
    <glyph glyph-name="Cacute" unicode="&#x106;" horiz-adv-x="510" 
d="M254 -46c-134 0 -212 85 -212 244c0 250 204 529 378 529c99 0 139 -50 139 -135c0 -93 -59 -193 -130 -193c-25 0 -36 6 -42 18c16 38 25 106 25 128c0 46 -14 63 -34 63c-55 0 -162 -193 -162 -366c0 -95 27 -142 114 -142c83 0 187 65 247 157c21 0 38 -8 38 -32
c0 -76 -186 -271 -361 -271zM550 1045c45 0 68 -26 68 -63c0 -29 -26 -71 -77 -124c-41 -42 -92 -73 -123 -73c-14 0 -23 8 -23 26c69 100 105 158 105 207c11 17 28 27 50 27z" />
    <glyph glyph-name="cacute" unicode="&#x107;" horiz-adv-x="338" 
d="M165 -9c-98 0 -140 61 -140 169c0 154 123 306 230 306c68 0 102 -36 102 -97c0 -64 -45 -115 -93 -115c-22 0 -35 7 -43 19c7 27 10 50 10 63c0 14 -7 21 -13 21c-19 0 -54 -64 -54 -165c0 -55 15 -77 54 -77c56 0 133 57 187 141c18 0 39 -12 39 -33
c0 -69 -158 -232 -279 -232zM390 780c45 0 68 -26 68 -63c0 -29 -26 -71 -77 -124c-41 -42 -92 -73 -123 -73c-14 0 -23 8 -23 26c69 100 105 158 105 207c11 17 28 27 50 27z" />
    <glyph glyph-name="Ccircumflex" unicode="&#x108;" horiz-adv-x="510" 
d="M254 -46c-134 0 -212 85 -212 244c0 250 204 529 378 529c99 0 139 -50 139 -135c0 -93 -59 -193 -130 -193c-25 0 -36 6 -42 18c16 38 25 106 25 128c0 46 -14 63 -34 63c-55 0 -162 -193 -162 -366c0 -95 27 -142 114 -142c83 0 187 65 247 157c21 0 38 -8 38 -32
c0 -76 -186 -271 -361 -271zM458 824c0 83 -2 104 -16 104c-20 0 -57 -48 -87 -145c-7 -3 -13 -4 -20 -4c-20 0 -37 15 -37 44c0 62 93 217 191 217c68 0 81 -46 81 -186c0 -10 1 -27 2 -43c-12 -21 -41 -39 -72 -39s-42 17 -42 52z" />
    <glyph glyph-name="ccircumflex" unicode="&#x109;" horiz-adv-x="338" 
d="M165 -9c-98 0 -140 61 -140 169c0 154 123 306 230 306c68 0 102 -36 102 -97c0 -64 -45 -115 -93 -115c-22 0 -35 7 -43 19c7 27 10 50 10 63c0 14 -7 21 -13 21c-19 0 -54 -64 -54 -165c0 -55 15 -77 54 -77c56 0 133 57 187 141c18 0 39 -12 39 -33
c0 -69 -158 -232 -279 -232zM319 563c0 83 -2 104 -16 104c-20 0 -57 -48 -87 -145c-7 -3 -13 -4 -20 -4c-20 0 -37 15 -37 44c0 62 93 217 191 217c68 0 81 -46 81 -186c0 -10 1 -27 2 -43c-12 -21 -41 -39 -72 -39s-42 17 -42 52z" />
    <glyph glyph-name="Cdotaccent" unicode="&#x10a;" horiz-adv-x="510" 
d="M254 -46c-134 0 -212 85 -212 244c0 250 204 529 378 529c99 0 139 -50 139 -135c0 -93 -59 -193 -130 -193c-25 0 -36 6 -42 18c16 38 25 106 25 128c0 46 -14 63 -34 63c-55 0 -162 -193 -162 -366c0 -95 27 -142 114 -142c83 0 187 65 247 157c21 0 38 -8 38 -32
c0 -76 -186 -271 -361 -271zM386 886c0 81 17 110 49 110c40 0 85 -44 85 -75c0 -24 -19 -63 -67 -122c-39 0 -67 29 -67 87z" />
    <glyph glyph-name="cdotaccent" unicode="&#x10b;" horiz-adv-x="338" 
d="M165 -9c-98 0 -140 61 -140 169c0 154 123 306 230 306c68 0 102 -36 102 -97c0 -64 -45 -115 -93 -115c-22 0 -35 7 -43 19c7 27 10 50 10 63c0 14 -7 21 -13 21c-19 0 -54 -64 -54 -165c0 -55 15 -77 54 -77c56 0 133 57 187 141c18 0 39 -12 39 -33
c0 -69 -158 -232 -279 -232zM226 605c0 81 17 110 49 110c40 0 85 -44 85 -75c0 -24 -19 -63 -67 -122c-39 0 -67 29 -67 87z" />
    <glyph glyph-name="Ccaron" unicode="&#x10c;" horiz-adv-x="510" 
d="M254 -46c-134 0 -212 85 -212 244c0 250 204 529 378 529c99 0 139 -50 139 -135c0 -93 -59 -193 -130 -193c-25 0 -36 6 -42 18c16 38 25 106 25 128c0 46 -14 63 -34 63c-55 0 -162 -193 -162 -366c0 -95 27 -142 114 -142c83 0 187 65 247 157c21 0 38 -8 38 -32
c0 -76 -186 -271 -361 -271zM457 998c0 -83 2 -104 16 -104c20 0 57 48 87 145c7 3 13 4 20 4c20 0 37 -15 37 -44c0 -62 -93 -217 -191 -217c-68 0 -81 46 -81 186c0 10 -1 27 -2 43c12 21 41 39 72 39s42 -17 42 -52z" />
    <glyph glyph-name="ccaron" unicode="&#x10d;" horiz-adv-x="338" 
d="M165 -9c-98 0 -140 61 -140 169c0 154 123 306 230 306c68 0 102 -36 102 -97c0 -64 -45 -115 -93 -115c-22 0 -35 7 -43 19c7 27 10 50 10 63c0 14 -7 21 -13 21c-19 0 -54 -64 -54 -165c0 -55 15 -77 54 -77c56 0 133 57 187 141c18 0 39 -12 39 -33
c0 -69 -158 -232 -279 -232zM302 727c0 -83 2 -104 16 -104c20 0 57 48 87 145c7 3 13 4 20 4c20 0 37 -15 37 -44c0 -62 -93 -217 -191 -217c-68 0 -81 46 -81 186c0 10 -1 27 -2 43c12 21 41 39 72 39s42 -17 42 -52z" />
    <glyph glyph-name="Dcaron" unicode="&#x10e;" horiz-adv-x="728" 
d="M126 364c24 0 62 -5 105 -9c25 82 46 166 58 222c-15 2 -21 2 -40 2c-68 0 -116 -16 -176 -62c-31 0 -49 27 -49 59c0 65 84 163 269 163c275 0 418 -186 418 -417c0 -181 -111 -343 -306 -343c-61 0 -128 19 -216 61c-40 -32 -67 -43 -93 -43c-45 0 -70 65 -70 107
c0 25 14 48 46 48c25 0 46 -2 83 -6c15 28 31 71 48 120c-44 7 -91 16 -136 25c-5 6 -6 15 -6 22c0 29 20 51 65 51zM553 290c0 99 -48 197 -147 252c-14 -68 -30 -133 -48 -192c37 2 60 9 90 18c16 -7 24 -21 24 -41c0 -44 -43 -77 -125 -77h-22c-21 -55 -41 -100 -58 -129
c64 -18 105 -28 143 -28c101 0 143 92 143 197z" />
    <glyph glyph-name="dcaron" unicode="&#x10f;" horiz-adv-x="599" 
d="M30 154c0 146 121 290 201 290c31 0 46 -17 46 -43c0 -4 0 -8 -1 -12c-73 -47 -105 -153 -105 -224c0 -34 10 -44 30 -44c42 0 103 156 103 318c0 116 -63 175 -157 181c-9 8 -13 21 -13 33c0 47 40 95 129 95c113 0 188 -94 188 -245c0 -311 -162 -512 -289 -512
c-80 0 -132 52 -132 163zM490 454c37 54 47 77 47 101c0 20 -6 40 -40 54c-6 10 -7 21 -7 31c0 44 32 77 83 77c58 0 91 -46 91 -102c0 -89 -70 -189 -136 -189c-18 0 -36 9 -38 28z" />
    <glyph glyph-name="Dcroat" unicode="&#x110;" horiz-adv-x="728" 
d="M126 364c24 0 62 -5 105 -9c25 82 46 166 58 222c-15 2 -21 2 -40 2c-68 0 -116 -16 -176 -62c-31 0 -49 27 -49 59c0 65 84 163 269 163c275 0 418 -186 418 -417c0 -181 -111 -343 -306 -343c-61 0 -128 19 -216 61c-40 -32 -67 -43 -93 -43c-45 0 -70 65 -70 107
c0 25 14 48 46 48c25 0 46 -2 83 -6c15 28 31 71 48 120c-44 7 -91 16 -136 25c-5 6 -6 15 -6 22c0 29 20 51 65 51zM553 290c0 99 -48 197 -147 252c-14 -68 -30 -133 -48 -192c37 2 60 9 90 18c16 -7 24 -21 24 -41c0 -44 -43 -77 -125 -77h-22c-21 -55 -41 -100 -58 -129
c64 -18 105 -28 143 -28c101 0 143 92 143 197z" />
    <glyph glyph-name="dcroat" unicode="&#x111;" horiz-adv-x="423" 
d="M223 622c27 2 52 3 75 5c12 111 32 145 54 145c53 0 111 -53 113 -120c13 4 25 9 37 14c20 -5 31 -21 31 -43c0 -35 -27 -59 -72 -75c-2 -37 -8 -81 -12 -109c-10 -66 -33 -160 -63 -236c4 -18 13 -26 21 -26c19 0 46 21 87 84c19 0 38 -14 38 -34
c0 -46 -83 -152 -157 -152c-19 0 -34 8 -46 21c-44 -62 -99 -105 -167 -105c-80 0 -132 52 -132 163c0 141 112 274 183 274c31 0 44 -16 44 -42c0 -4 0 -8 -1 -12c-54 -44 -85 -139 -85 -209c0 -34 10 -44 30 -44c25 0 59 74 77 130c-1 24 -2 49 -2 73c0 79 4 151 9 206
c-42 0 -96 2 -126 5c-7 6 -10 18 -10 26c0 27 14 57 74 61z" />
    <glyph glyph-name="Emacron" unicode="&#x112;" horiz-adv-x="514" 
d="M236 -54c-125 0 -202 71 -202 174c0 71 50 155 156 206c-29 31 -50 80 -50 139c0 127 115 262 253 262c93 0 134 -44 134 -119c0 -99 -61 -146 -117 -146c-22 0 -32 8 -36 18c13 27 20 54 20 80c0 38 -13 51 -29 51c-36 0 -77 -71 -77 -148c0 -35 8 -74 18 -100
c22 5 55 8 74 8c38 0 48 -11 48 -25c0 -57 -47 -113 -96 -113c-19 0 -46 11 -67 27c-27 -28 -45 -71 -45 -99c0 -50 27 -82 86 -82c94 0 219 90 277 178c21 0 38 -8 38 -32c0 -64 -175 -279 -385 -279zM354 892c138 8 155 14 214 40c20 -5 31 -21 31 -42
c0 -53 -58 -80 -189 -80c-40 0 -81 2 -120 5c-7 6 -11 19 -11 26c0 27 22 48 75 51z" />
    <glyph glyph-name="emacron" unicode="&#x113;" horiz-adv-x="359" 
d="M240 327c0 21 -8 33 -20 33c-14 0 -41 -34 -48 -104c56 10 68 41 68 71zM168 -9c-98 0 -143 61 -143 169c0 151 123 305 220 305c69 0 107 -33 107 -103c0 -84 -49 -149 -186 -180c0 -45 9 -70 48 -70c68 0 156 58 213 145c24 -1 38 -17 38 -33
c0 -74 -167 -233 -297 -233zM215 623c138 8 155 14 214 40c20 -5 31 -21 31 -42c0 -53 -58 -80 -189 -80c-40 0 -81 2 -120 5c-7 6 -11 19 -11 26c0 27 22 48 75 51z" />
    <glyph glyph-name="Ebreve" unicode="&#x114;" horiz-adv-x="514" 
d="M236 -54c-125 0 -202 71 -202 174c0 71 50 155 156 206c-29 31 -50 80 -50 139c0 127 115 262 253 262c93 0 134 -44 134 -119c0 -99 -61 -146 -117 -146c-22 0 -32 8 -36 18c13 27 20 54 20 80c0 38 -13 51 -29 51c-36 0 -77 -71 -77 -148c0 -35 8 -74 18 -100
c22 5 55 8 74 8c38 0 48 -11 48 -25c0 -57 -47 -113 -96 -113c-19 0 -46 11 -67 27c-27 -28 -45 -71 -45 -99c0 -50 27 -82 86 -82c94 0 219 90 277 178c21 0 38 -8 38 -32c0 -64 -175 -279 -385 -279zM436 1002c-13 -31 -20 -57 -20 -78c0 -20 19 -39 54 -39
c36 0 64 30 88 123c7 3 13 4 20 4c20 0 37 -15 37 -44c0 -87 -78 -185 -173 -185c-81 0 -118 46 -118 96c0 70 35 146 83 146c15 0 29 -7 29 -23z" />
    <glyph glyph-name="ebreve" unicode="&#x115;" horiz-adv-x="359" 
d="M240 327c0 21 -8 33 -20 33c-14 0 -41 -34 -48 -104c56 10 68 41 68 71zM168 -9c-98 0 -143 61 -143 169c0 151 123 305 220 305c69 0 107 -33 107 -103c0 -84 -49 -149 -186 -180c0 -45 9 -70 48 -70c68 0 156 58 213 145c24 -1 38 -17 38 -33
c0 -74 -167 -233 -297 -233zM275 744c-13 -31 -20 -57 -20 -78c0 -20 19 -39 54 -39c36 0 64 30 88 123c7 3 13 4 20 4c20 0 37 -15 37 -44c0 -87 -78 -185 -173 -185c-81 0 -118 46 -118 96c0 70 35 146 83 146c15 0 29 -7 29 -23z" />
    <glyph glyph-name="Edotaccent" unicode="&#x116;" horiz-adv-x="514" 
d="M236 -54c-125 0 -202 71 -202 174c0 71 50 155 156 206c-29 31 -50 80 -50 139c0 127 115 262 253 262c93 0 134 -44 134 -119c0 -99 -61 -146 -117 -146c-22 0 -32 8 -36 18c13 27 20 54 20 80c0 38 -13 51 -29 51c-36 0 -77 -71 -77 -148c0 -35 8 -74 18 -100
c22 5 55 8 74 8c38 0 48 -11 48 -25c0 -57 -47 -113 -96 -113c-19 0 -46 11 -67 27c-27 -28 -45 -71 -45 -99c0 -50 27 -82 86 -82c94 0 219 90 277 178c21 0 38 -8 38 -32c0 -64 -175 -279 -385 -279zM360 886c0 81 17 110 49 110c40 0 85 -44 85 -75
c0 -24 -19 -63 -67 -122c-39 0 -67 29 -67 87z" />
    <glyph glyph-name="edotaccent" unicode="&#x117;" horiz-adv-x="359" 
d="M240 327c0 21 -8 33 -20 33c-14 0 -41 -34 -48 -104c56 10 68 41 68 71zM168 -9c-98 0 -143 61 -143 169c0 151 123 305 220 305c69 0 107 -33 107 -103c0 -84 -49 -149 -186 -180c0 -45 9 -70 48 -70c68 0 156 58 213 145c24 -1 38 -17 38 -33
c0 -74 -167 -233 -297 -233zM222 605c0 81 17 110 49 110c40 0 85 -44 85 -75c0 -24 -19 -63 -67 -122c-39 0 -67 29 -67 87z" />
    <glyph glyph-name="Eogonek" unicode="&#x118;" horiz-adv-x="514" 
d="M236 -54c-125 0 -202 71 -202 174c0 71 50 155 156 206c-29 31 -50 80 -50 139c0 127 115 262 253 262c93 0 134 -44 134 -119c0 -99 -61 -146 -117 -146c-22 0 -32 8 -36 18c13 27 20 54 20 80c0 38 -13 51 -29 51c-36 0 -77 -71 -77 -148c0 -35 8 -74 18 -100
c22 5 55 8 74 8c38 0 48 -11 48 -25c0 -57 -47 -113 -96 -113c-19 0 -46 11 -67 27c-27 -28 -45 -71 -45 -99c0 -50 27 -82 86 -82c94 0 219 90 277 178c21 0 38 -8 38 -32c0 -42 -74 -147 -184 -216c-37 -59 -60 -111 -60 -128c0 -18 18 -25 55 -39c3 -5 4 -15 4 -20
c0 -32 -40 -72 -97 -72c-53 0 -86 30 -86 71c0 29 14 66 67 137c-27 -7 -55 -12 -84 -12z" />
    <glyph glyph-name="eogonek" unicode="&#x119;" horiz-adv-x="359" 
d="M168 -9c-98 0 -143 61 -143 169c0 151 123 305 220 305c69 0 107 -33 107 -103c0 -84 -49 -149 -186 -180c0 -45 9 -70 48 -70c68 0 156 58 213 145c24 -1 38 -17 38 -33c0 -42 -53 -111 -123 -163c-39 -62 -64 -116 -64 -134s18 -25 55 -39c3 -5 4 -15 4 -20
c0 -32 -40 -72 -97 -72c-53 0 -86 30 -86 71c0 29 14 66 61 128c0 1 1 2 2 3c-17 -4 -33 -7 -49 -7zM240 327c0 21 -8 33 -20 33c-14 0 -41 -34 -48 -104c56 10 68 41 68 71z" />
    <glyph glyph-name="Ecaron" unicode="&#x11a;" horiz-adv-x="514" 
d="M236 -54c-125 0 -202 71 -202 174c0 71 50 155 156 206c-29 31 -50 80 -50 139c0 127 115 262 253 262c93 0 134 -44 134 -119c0 -99 -61 -146 -117 -146c-22 0 -32 8 -36 18c13 27 20 54 20 80c0 38 -13 51 -29 51c-36 0 -77 -71 -77 -148c0 -35 8 -74 18 -100
c22 5 55 8 74 8c38 0 48 -11 48 -25c0 -57 -47 -113 -96 -113c-19 0 -46 11 -67 27c-27 -28 -45 -71 -45 -99c0 -50 27 -82 86 -82c94 0 219 90 277 178c21 0 38 -8 38 -32c0 -64 -175 -279 -385 -279zM431 998c0 -83 2 -104 16 -104c20 0 57 48 87 145c7 3 13 4 20 4
c20 0 37 -15 37 -44c0 -62 -93 -217 -191 -217c-68 0 -81 46 -81 186c0 10 -1 27 -2 43c12 21 41 39 72 39s42 -17 42 -52z" />
    <glyph glyph-name="ecaron" unicode="&#x11b;" horiz-adv-x="359" 
d="M240 327c0 21 -8 33 -20 33c-14 0 -41 -34 -48 -104c56 10 68 41 68 71zM168 -9c-98 0 -143 61 -143 169c0 151 123 305 220 305c69 0 107 -33 107 -103c0 -84 -49 -149 -186 -180c0 -45 9 -70 48 -70c68 0 156 58 213 145c24 -1 38 -17 38 -33
c0 -74 -167 -233 -297 -233zM290 738c0 -83 2 -104 16 -104c20 0 57 48 87 145c7 3 13 4 20 4c20 0 37 -15 37 -44c0 -62 -93 -217 -191 -217c-68 0 -81 46 -81 186c0 10 -1 27 -2 43c12 21 41 39 72 39s42 -17 42 -52z" />
    <glyph glyph-name="Gcircumflex" unicode="&#x11c;" horiz-adv-x="576" 
d="M530 184l-4 -51c-4 -155 -51 -352 -244 -352c-137 0 -237 76 -237 184c0 45 22 81 66 98c-34 35 -51 89 -51 154c0 258 223 514 400 514c89 0 122 -51 122 -121c0 -89 -53 -167 -115 -167c-19 0 -36 6 -42 18c8 23 19 71 19 100c0 38 -8 50 -26 50
c-76 0 -202 -194 -202 -360c0 -66 33 -98 84 -98c26 0 58 8 88 22c8 128 0 175 73 175c55 0 110 -18 110 -50s-16 -65 -41 -116zM234 17c-23 0 -43 3 -61 9c34 -72 88 -121 149 -121c74 0 59 77 63 168c-45 -34 -100 -56 -151 -56zM488 834c0 83 -2 104 -16 104
c-20 0 -57 -48 -87 -145c-7 -3 -13 -4 -20 -4c-20 0 -37 15 -37 44c0 62 93 217 191 217c68 0 81 -46 81 -186c0 -10 1 -27 2 -43c-12 -21 -41 -39 -72 -39s-42 17 -42 52z" />
    <glyph glyph-name="gcircumflex" unicode="&#x11d;" horiz-adv-x="439" 
d="M-17 -89c0 41 31 86 82 89c41 -63 86 -114 118 -114c15 0 24 10 28 39c3 23 11 90 18 165c-13 -25 -57 -74 -104 -74c-57 0 -100 40 -100 131c0 135 124 270 216 270c14 0 21 -2 26 -7c4 36 6 77 6 101c8 9 27 14 38 14c63 0 112 -46 112 -81c0 -39 -18 -75 -33 -148
c-12 -57 -23 -135 -30 -197c42 30 98 84 144 153c25 0 43 -14 43 -32c0 -49 -106 -162 -195 -225c0 0 -4 -21 -7 -40c-18 -135 -105 -181 -184 -181c-81 0 -178 58 -178 137zM262 344c-57 -31 -90 -112 -90 -169c0 -37 10 -42 24 -42c16 0 27 6 41 20c8 61 17 144 25 191z
M320 623c0 83 -2 104 -16 104c-20 0 -57 -48 -87 -145c-7 -3 -13 -4 -20 -4c-20 0 -37 15 -37 44c0 62 93 217 191 217c68 0 81 -46 81 -186c0 -10 1 -27 2 -43c-12 -21 -41 -39 -72 -39s-42 17 -42 52z" />
    <glyph glyph-name="Gbreve" unicode="&#x11e;" horiz-adv-x="576" 
d="M530 184l-4 -51c-4 -155 -51 -352 -244 -352c-137 0 -237 76 -237 184c0 45 22 81 66 98c-34 35 -51 89 -51 154c0 258 223 514 400 514c89 0 122 -51 122 -121c0 -89 -53 -167 -115 -167c-19 0 -36 6 -42 18c8 23 19 71 19 100c0 38 -8 50 -26 50
c-76 0 -202 -194 -202 -360c0 -66 33 -98 84 -98c26 0 58 8 88 22c8 128 0 175 73 175c55 0 110 -18 110 -50s-16 -65 -41 -116zM234 17c-23 0 -43 3 -61 9c34 -72 88 -121 149 -121c74 0 59 77 63 168c-45 -34 -100 -56 -151 -56zM476 1004c-13 -31 -20 -57 -20 -78
c0 -20 19 -39 54 -39c36 0 64 30 88 123c7 3 13 4 20 4c20 0 37 -15 37 -44c0 -87 -78 -185 -173 -185c-81 0 -118 46 -118 96c0 70 35 146 83 146c15 0 29 -7 29 -23z" />
    <glyph glyph-name="gbreve" unicode="&#x11f;" horiz-adv-x="439" 
d="M-17 -89c0 41 31 86 82 89c41 -63 86 -114 118 -114c15 0 24 10 28 39c3 23 11 90 18 165c-13 -25 -57 -74 -104 -74c-57 0 -100 40 -100 131c0 135 124 270 216 270c14 0 21 -2 26 -7c4 36 6 77 6 101c8 9 27 14 38 14c63 0 112 -46 112 -81c0 -39 -18 -75 -33 -148
c-12 -57 -23 -135 -30 -197c42 30 98 84 144 153c25 0 43 -14 43 -32c0 -49 -106 -162 -195 -225c0 0 -4 -21 -7 -40c-18 -135 -105 -181 -184 -181c-81 0 -178 58 -178 137zM262 344c-57 -31 -90 -112 -90 -169c0 -37 10 -42 24 -42c16 0 27 6 41 20c8 61 17 144 25 191z
M299 781c-13 -31 -20 -57 -20 -78c0 -20 19 -39 54 -39c36 0 64 30 88 123c7 3 13 4 20 4c20 0 37 -15 37 -44c0 -87 -78 -185 -173 -185c-81 0 -118 46 -118 96c0 70 35 146 83 146c15 0 29 -7 29 -23z" />
    <glyph glyph-name="Gdotaccent" unicode="&#x120;" horiz-adv-x="576" 
d="M530 184l-4 -51c-4 -155 -51 -352 -244 -352c-137 0 -237 76 -237 184c0 45 22 81 66 98c-34 35 -51 89 -51 154c0 258 223 514 400 514c89 0 122 -51 122 -121c0 -89 -53 -167 -115 -167c-19 0 -36 6 -42 18c8 23 19 71 19 100c0 38 -8 50 -26 50
c-76 0 -202 -194 -202 -360c0 -66 33 -98 84 -98c26 0 58 8 88 22c8 128 0 175 73 175c55 0 110 -18 110 -50s-16 -65 -41 -116zM234 17c-23 0 -43 3 -61 9c34 -72 88 -121 149 -121c74 0 59 77 63 168c-45 -34 -100 -56 -151 -56zM416 877c0 81 17 110 49 110
c40 0 85 -44 85 -75c0 -24 -19 -63 -67 -122c-39 0 -67 29 -67 87z" />
    <glyph glyph-name="gdotaccent" unicode="&#x121;" horiz-adv-x="439" 
d="M-17 -89c0 41 31 86 82 89c41 -63 86 -114 118 -114c15 0 24 10 28 39c3 23 11 90 18 165c-13 -25 -57 -74 -104 -74c-57 0 -100 40 -100 131c0 135 124 270 216 270c14 0 21 -2 26 -7c4 36 6 77 6 101c8 9 27 14 38 14c63 0 112 -46 112 -81c0 -39 -18 -75 -33 -148
c-12 -57 -23 -135 -30 -197c42 30 98 84 144 153c25 0 43 -14 43 -32c0 -49 -106 -162 -195 -225c0 0 -4 -21 -7 -40c-18 -135 -105 -181 -184 -181c-81 0 -178 58 -178 137zM262 344c-57 -31 -90 -112 -90 -169c0 -37 10 -42 24 -42c16 0 27 6 41 20c8 61 17 144 25 191z
M313 654c0 81 17 110 49 110c40 0 85 -44 85 -75c0 -24 -19 -63 -67 -122c-39 0 -67 29 -67 87z" />
    <glyph glyph-name="Gcommaaccent" unicode="&#x122;" horiz-adv-x="564" 
d="M140 -337c48 25 93 68 93 94c0 22 -12 44 -50 60c-6 11 -8 23 -8 34c0 49 34 87 87 87c63 0 103 -53 103 -114c0 -111 -110 -221 -181 -221c-31 0 -47 16 -47 41c0 6 1 12 3 19zM372 57c-43 -39 -99 -65 -155 -65c-113 0 -172 75 -172 208c0 274 221 531 403 531
c89 0 122 -51 122 -121c0 -89 -53 -167 -115 -167c-19 0 -36 6 -42 18c8 23 19 71 19 100c0 38 -8 50 -26 50c-76 0 -205 -195 -205 -377c0 -68 31 -108 86 -108c32 0 61 14 88 31c10 156 14 193 74 193c55 0 110 -18 110 -50s-16 -65 -41 -116c-7 -100 -28 -243 -113 -243
c-22 0 -33 7 -40 18c4 23 7 72 7 98z" />
    <glyph glyph-name="gcommaaccent" unicode="&#x123;" horiz-adv-x="439" 
d="M-17 -89c0 41 31 86 82 89c41 -63 86 -114 118 -114c15 0 24 10 28 39c3 23 11 90 18 165c-13 -25 -57 -74 -104 -74c-57 0 -100 40 -100 131c0 135 124 270 216 270c14 0 21 -2 26 -7c4 36 6 77 6 101c8 9 27 14 38 14c63 0 112 -46 112 -81c0 -39 -18 -75 -33 -148
c-12 -57 -23 -135 -30 -197c42 30 98 84 144 153c25 0 43 -14 43 -32c0 -49 -106 -162 -195 -225c0 0 -4 -21 -7 -40c-18 -135 -105 -181 -184 -181c-81 0 -178 58 -178 137zM262 344c-57 -31 -90 -112 -90 -169c0 -37 10 -42 24 -42c16 0 27 6 41 20c8 61 17 144 25 191z
M390 837c-48 -25 -93 -68 -93 -94c0 -22 12 -44 50 -60c6 -11 8 -23 8 -34c0 -49 -34 -87 -87 -87c-63 0 -103 53 -103 114c0 111 110 221 181 221c31 0 47 -16 47 -41c0 -6 -1 -12 -3 -19z" />
    <glyph glyph-name="Hcircumflex" unicode="&#x124;" horiz-adv-x="872" 
d="M523 778c49 0 82 -45 82 -171c0 -83 -22 -230 -43 -309c27 6 63 13 89 23c55 316 112 405 217 405c56 0 97 -32 97 -85c0 -17 -9 -37 -20 -48c-83 -8 -96 -22 -137 -184c24 -11 34 -35 34 -54c0 -45 -33 -82 -61 -102c-11 -60 -20 -113 -20 -131c0 -21 4 -26 14 -26
c16 0 84 44 164 156c20 0 39 -12 39 -33c0 -66 -177 -260 -301 -260c-46 0 -71 22 -71 77c0 28 10 101 26 180c-21 -6 -64 -13 -104 -18c-64 -154 -172 -279 -314 -279c-105 0 -186 82 -186 189c0 92 53 143 209 156c63 5 113 8 173 12c14 69 32 216 32 272
c0 43 -36 81 -36 128c0 72 62 102 117 102zM253 165c-54 -3 -72 -16 -72 -37c0 -40 46 -81 87 -81c47 0 87 56 114 128c-51 -5 -81 -7 -129 -10zM767 814c0 83 -2 104 -16 104c-20 0 -57 -48 -87 -145c-7 -3 -13 -4 -20 -4c-20 0 -37 15 -37 44c0 62 93 217 191 217
c68 0 81 -46 81 -186c0 -10 1 -27 2 -43c-12 -21 -41 -39 -72 -39s-42 17 -42 52z" />
    <glyph glyph-name="hcircumflex" unicode="&#x125;" horiz-adv-x="459" 
d="M60 209c39 365 80 523 208 523c43 0 65 -20 65 -71c0 -44 -22 -102 -100 -231l-24 -94c72 66 134 98 173 98c38 0 58 -24 58 -59c0 -31 -9 -62 -24 -100c-17 -44 -50 -125 -50 -150c0 -11 5 -15 14 -15c18 0 80 49 145 142c19 0 39 -13 39 -33c0 -63 -170 -238 -262 -238
c-59 0 -79 26 -79 81c0 66 52 181 52 203c0 8 -3 16 -14 16c-17 0 -41 -11 -68 -34c-10 -71 -17 -146 -18 -239c-9 -10 -26 -14 -46 -14c-58 0 -101 53 -102 105c0 31 8 67 33 110zM314 825c0 83 -2 104 -16 104c-20 0 -57 -48 -87 -145c-7 -3 -13 -4 -20 -4
c-20 0 -37 15 -37 44c0 62 93 217 191 217c68 0 81 -46 81 -186c0 -10 1 -27 2 -43c-12 -21 -41 -39 -72 -39s-42 17 -42 52z" />
    <glyph glyph-name="Hbar" unicode="&#x126;" horiz-adv-x="872" 
d="M523 778c49 0 82 -45 82 -171c0 -31 -2 -54 -6 -95l97 -4c48 161 97 213 173 213c54 0 96 -30 96 -80c0 -17 -9 -37 -20 -48c-66 -4 -82 -18 -104 -81c16 -8 20 -25 20 -36c0 -28 -19 -50 -46 -57c-29 -107 -54 -252 -54 -297c0 -21 4 -26 14 -26c16 0 84 44 164 156
c20 0 39 -12 39 -33c0 -66 -177 -260 -301 -260c-46 0 -71 22 -71 77c0 28 10 101 26 180c-22 -4 -74 -12 -102 -14c-64 -154 -174 -283 -316 -283c-105 0 -186 82 -186 189c0 92 53 151 209 164c63 5 114 8 174 12c7 34 13 72 19 123c-52 -2 -89 -8 -118 -19
c-14 7 -27 28 -27 49c0 56 54 82 156 82c1 13 1 19 1 29c0 43 -36 81 -36 128c0 72 62 102 117 102zM253 173c-54 -3 -72 -24 -72 -45c0 -40 46 -81 87 -81c47 0 89 64 116 136c-51 -5 -83 -7 -131 -10zM650 313c6 32 16 75 22 102l-86 -1c-7 -41 -15 -83 -23 -112
c29 3 61 7 87 11z" />
    <glyph glyph-name="hbar" unicode="&#x127;" horiz-adv-x="459" 
d="M60 209c13 121 26 219 42 296c-18 0 -33 1 -42 2c-7 6 -10 18 -10 26c0 29 18 53 74 56c31 98 75 143 144 143c43 0 65 -20 65 -71c0 -17 -3 -35 -11 -58c64 8 99 20 134 35c20 -5 31 -21 31 -43c0 -62 -66 -93 -192 -93h-20c-12 -22 -26 -45 -42 -72l-24 -94
c72 66 134 98 173 98c38 0 58 -24 58 -59c0 -31 -9 -62 -24 -100c-17 -44 -50 -125 -50 -150c0 -11 5 -15 14 -15c18 0 80 49 145 142c19 0 39 -13 39 -33c0 -63 -170 -238 -262 -238c-59 0 -79 26 -79 81c0 66 52 181 52 203c0 8 -3 16 -14 16c-17 0 -41 -11 -68 -34
c-10 -71 -17 -146 -18 -239c-9 -10 -26 -14 -46 -14c-58 0 -101 53 -102 105c0 31 8 67 33 110z" />
    <glyph glyph-name="Itilde" unicode="&#x128;" horiz-adv-x="503" 
d="M160 639c0 41 32 69 112 69c74 0 123 -2 171 -2c46 0 82 6 124 20c22 -11 38 -35 38 -63c0 -66 -56 -102 -138 -102c-53 -232 -87 -366 -111 -438c40 0 76 -1 114 -3c9 -12 14 -31 14 -46c0 -64 -57 -83 -162 -83c-83 0 -142 7 -297 8c-6 6 -10 17 -10 30
c0 53 44 77 179 88c37 131 77 309 111 470c-45 8 -92 17 -136 22c-6 8 -9 19 -9 30zM408 934c115 39 135 50 161 85c45 -5 68 -38 68 -72c0 -59 -47 -87 -167 -114c-79 -17 -106 -25 -126 -48c-23 0 -49 14 -49 51c0 44 29 70 113 98z" />
    <glyph glyph-name="itilde" unicode="&#x129;" horiz-adv-x="254" 
d="M65 215c-8 19 -10 42 -10 62c0 59 89 164 151 164c46 0 50 -25 50 -64c0 -26 -17 -68 -35 -110c-28 -69 -41 -101 -41 -124c0 -11 5 -15 14 -15c14 0 59 32 126 127c19 0 39 -16 39 -36c0 -63 -159 -232 -251 -232c-59 0 -79 26 -79 81c0 44 11 85 36 147zM227 657
c115 39 135 50 161 85c45 -5 68 -38 68 -72c0 -59 -47 -87 -167 -114c-79 -17 -106 -25 -126 -48c-23 0 -49 14 -49 51c0 44 29 70 113 98z" />
    <glyph glyph-name="Imacron" unicode="&#x12a;" horiz-adv-x="503" 
d="M160 639c0 41 32 69 112 69c74 0 123 -2 171 -2c46 0 82 6 124 20c22 -11 38 -35 38 -63c0 -66 -56 -102 -138 -102c-53 -232 -87 -366 -111 -438c40 0 76 -1 114 -3c9 -12 14 -31 14 -46c0 -64 -57 -83 -162 -83c-83 0 -142 7 -297 8c-6 6 -10 17 -10 30
c0 53 44 77 179 88c37 131 77 309 111 470c-45 8 -92 17 -136 22c-6 8 -9 19 -9 30zM377 914c138 8 155 14 214 40c20 -5 31 -21 31 -42c0 -53 -58 -80 -189 -80c-40 0 -81 2 -120 5c-7 6 -11 19 -11 26c0 27 22 48 75 51z" />
    <glyph glyph-name="imacron" unicode="&#x12b;" horiz-adv-x="254" 
d="M65 215c-8 19 -10 42 -10 62c0 59 89 164 151 164c46 0 50 -25 50 -64c0 -26 -17 -68 -35 -110c-28 -69 -41 -101 -41 -124c0 -11 5 -15 14 -15c14 0 59 32 126 127c19 0 39 -16 39 -36c0 -63 -159 -232 -251 -232c-59 0 -79 26 -79 81c0 44 11 85 36 147zM180 623
c138 8 155 14 214 40c20 -5 31 -21 31 -42c0 -53 -58 -80 -189 -80c-40 0 -81 2 -120 5c-7 6 -11 19 -11 26c0 27 22 48 75 51z" />
    <glyph glyph-name="Iogonek" unicode="&#x12e;" horiz-adv-x="503" 
d="M160 639c0 41 32 69 112 69c74 0 123 -2 171 -2c46 0 82 6 124 20c22 -11 38 -35 38 -63c0 -66 -56 -102 -138 -102c-53 -232 -87 -366 -111 -438c40 0 76 -1 114 -3c9 -12 14 -31 14 -46c0 -63 -55 -82 -156 -83c-26 -46 -42 -84 -42 -98c0 -18 18 -25 55 -39
c3 -5 4 -15 4 -20c0 -32 -40 -72 -97 -72c-53 0 -86 30 -86 71c0 29 14 66 61 128c8 11 16 22 25 32c-55 2 -116 6 -223 6c-6 6 -10 17 -10 30c0 53 44 77 179 88c37 131 77 309 111 470c-45 8 -92 17 -136 22c-6 8 -9 19 -9 30z" />
    <glyph glyph-name="iogonek" unicode="&#x12f;" horiz-adv-x="254" 
d="M65 215c-8 19 -10 42 -10 62c0 59 89 164 151 164c46 0 50 -25 50 -64c0 -26 -17 -68 -35 -110c-28 -69 -41 -101 -41 -124c0 -11 5 -15 14 -15c14 0 59 32 126 127c19 0 39 -16 39 -36c0 -37 -54 -110 -117 -164c-42 -65 -69 -123 -69 -142c0 -18 18 -25 55 -39
c3 -5 4 -15 4 -20c0 -32 -40 -72 -97 -72c-53 0 -86 30 -86 71c0 29 14 66 61 128c1 2 3 5 5 7c-3 0 -5 -1 -7 -1c-59 0 -79 26 -79 81c0 44 11 85 36 147zM189 595c0 81 17 110 49 110c40 0 85 -44 85 -75c0 -24 -19 -63 -67 -122c-39 0 -67 29 -67 87z" />
    <glyph glyph-name="Idotaccent" unicode="&#x130;" horiz-adv-x="503" 
d="M160 639c0 41 32 69 112 69c74 0 123 -2 171 -2c46 0 82 6 124 20c22 -11 38 -35 38 -63c0 -66 -56 -102 -138 -102c-53 -232 -87 -366 -111 -438c40 0 76 -1 114 -3c9 -12 14 -31 14 -46c0 -64 -57 -83 -162 -83c-83 0 -142 7 -297 8c-6 6 -10 17 -10 30
c0 53 44 77 179 88c37 131 77 309 111 470c-45 8 -92 17 -136 22c-6 8 -9 19 -9 30zM380 868c0 81 17 110 49 110c40 0 85 -44 85 -75c0 -24 -19 -63 -67 -122c-39 0 -67 29 -67 87z" />
    <glyph glyph-name="dotlessi" unicode="&#x131;" horiz-adv-x="254" 
d="M65 215c-8 19 -10 42 -10 62c0 59 89 164 151 164c46 0 50 -25 50 -64c0 -26 -17 -68 -35 -110c-28 -69 -41 -101 -41 -124c0 -11 5 -15 14 -15c14 0 59 32 126 127c19 0 39 -16 39 -36c0 -63 -159 -232 -251 -232c-59 0 -79 26 -79 81c0 44 11 85 36 147z" />
    <glyph glyph-name="IJ" unicode="&#x132;" horiz-adv-x="713" 
d="M561 570c-48 2 -101 6 -164 11c-19 -82 -55 -249 -78 -323c40 0 61 -1 95 -3c7 -9 12 -28 12 -42c0 -50 -48 -81 -157 -81c-56 0 -75 3 -230 4c-6 6 -11 22 -11 35c0 38 24 71 129 81c37 131 47 187 81 348l-101 16c-6 8 -8 19 -8 30c0 39 35 62 111 62
c89 0 256 -16 420 -16c63 0 122 13 164 27c22 -11 38 -35 38 -63c0 -66 -56 -94 -138 -94c-13 -113 -55 -339 -101 -456c55 27 109 74 155 146c19 0 36 -12 36 -32c0 -56 -87 -159 -228 -216c-71 -138 -191 -272 -319 -272c-111 0 -187 70 -187 199c0 71 41 125 126 125
c47 0 131 -5 169 -5c24 0 47 0 65 1c50 131 108 414 121 518zM293 -144c44 0 81 47 110 104c-62 -6 -98 -9 -135 -12c-23 -2 -32 -6 -32 -20c0 -45 25 -72 57 -72z" />
    <glyph glyph-name="ij" unicode="&#x133;" horiz-adv-x="520" 
d="M65 215c-8 19 -10 42 -10 62c0 59 89 164 151 164c46 0 50 -25 50 -64c0 -26 -17 -68 -35 -110c-28 -69 -41 -94 -41 -117c0 -11 5 -15 14 -15c13 0 64 33 127 120c-4 14 -6 33 -6 43c0 64 100 164 162 164c38 0 49 -15 49 -47c0 -29 -14 -70 -51 -133
c-7 -33 -23 -114 -31 -169c46 30 94 72 142 139c19 0 39 -18 39 -38c0 -49 -105 -151 -193 -208c-4 -32 -8 -64 -11 -83c-18 -135 -101 -197 -180 -197c-73 0 -141 55 -141 134c0 50 26 82 117 131l80 43c2 26 8 75 12 105c-54 -74 -143 -145 -201 -145c-59 0 -78 26 -78 81
c0 35 10 78 35 140zM194 595c0 81 17 110 49 110c40 0 85 -44 85 -75c0 -24 -19 -63 -67 -122c-39 0 -67 29 -67 87zM456 626c0 81 17 110 49 110c40 0 77 -24 77 -55c0 -24 -15 -78 -58 -141c-44 0 -68 34 -68 86zM293 -56l-44 -24c-21 -11 -39 -22 -39 -37
c0 -29 35 -48 55 -48c15 0 20 12 22 40c3 37 6 69 6 69z" />
    <glyph glyph-name="Jcircumflex" unicode="&#x134;" horiz-adv-x="718" 
d="M324 -71c43 0 77 29 102 78c-63 2 -174 24 -235 51c19 -77 71 -129 133 -129zM539 567c-61 0 -126 -169 -139 -255c-13 -5 -25 -7 -36 -7c-46 0 -74 39 -74 98c0 116 134 319 306 319c94 0 137 -51 137 -159c0 -109 -54 -335 -100 -452c55 27 104 69 150 141
c19 0 36 -12 36 -32c0 -56 -87 -159 -228 -216c-71 -138 -165 -202 -293 -202c-165 0 -278 116 -278 253c0 113 62 159 124 159c31 0 45 -25 45 -57c72 -32 206 -65 268 -69c50 131 99 368 99 446c0 20 -4 33 -17 33zM654 836c0 83 -2 104 -16 104c-20 0 -57 -48 -87 -145
c-7 -3 -13 -4 -20 -4c-20 0 -37 15 -37 44c0 62 93 217 191 217c68 0 81 -46 81 -186c0 -10 1 -27 2 -43c-12 -21 -41 -39 -72 -39s-42 17 -42 52z" />
    <glyph glyph-name="jcircumflex" unicode="&#x135;" horiz-adv-x="266" 
d="M178 6c-4 -32 -8 -64 -11 -83c-18 -135 -101 -197 -180 -197c-73 0 -121 55 -121 134c0 46 15 71 97 123l80 51c5 56 14 131 24 181c-8 19 -10 42 -10 62c0 59 99 164 161 164c38 0 49 -15 49 -47c0 -29 -13 -70 -50 -133c-8 -33 -20 -93 -27 -148c46 30 94 72 142 139
c19 0 39 -18 39 -38c0 -49 -105 -151 -193 -208zM39 -56l-35 -24c-20 -13 -28 -22 -28 -37c0 -29 15 -48 35 -48c15 0 20 12 22 40c3 37 6 69 6 69zM246 536c0 83 -2 104 -16 104c-20 0 -57 -48 -87 -145c-7 -3 -13 -4 -20 -4c-20 0 -37 15 -37 44c0 62 93 217 191 217
c68 0 81 -46 81 -186c0 -10 1 -27 2 -43c-12 -21 -41 -39 -72 -39s-42 17 -42 52z" />
    <glyph glyph-name="Kcommaaccent" unicode="&#x136;" horiz-adv-x="694" 
d="M229 403c30 103 47 182 47 208c0 18 -6 26 -18 26c-28 0 -116 -84 -116 -152c0 -42 27 -63 87 -82zM401 310c46 57 102 163 143 259c57 133 84 148 137 148c63 0 98 -52 98 -103c0 -16 -5 -36 -18 -50c-39 -3 -52 -13 -114 -102c-61 -88 -111 -147 -158 -188
c36 -24 71 -95 106 -165c12 -24 22 -30 37 -30c9 0 29 3 41 6c8 -9 12 -24 12 -36c0 -55 -76 -105 -147 -105c-38 0 -56 15 -81 69c-63 137 -85 184 -131 199l-46 -212c-9 -9 -24 -13 -42 -13c-54 0 -112 51 -112 106c0 37 24 98 66 158l13 61c-9 -1 -22 -2 -31 -2
c-87 0 -160 52 -160 139c0 143 190 318 313 318c70 0 102 -38 102 -91c0 -31 -30 -171 -78 -369c14 2 31 3 50 3zM280 -291c37 54 47 77 47 101c0 20 -6 40 -40 54c-6 10 -7 21 -7 31c0 44 32 77 83 77c58 0 91 -46 91 -102c0 -89 -70 -189 -136 -189c-18 0 -36 9 -38 28z
" />
    <glyph glyph-name="kcommaaccent" unicode="&#x137;" horiz-adv-x="463" 
d="M60 209c42 374 85 523 210 523c43 0 70 -20 70 -71c0 -44 -22 -100 -95 -242c-22 -44 -44 -109 -50 -152l67 28c10 21 22 43 35 61c45 62 74 82 101 82c49 0 72 -40 72 -78c0 -46 -12 -56 -115 -107c0 -108 10 -145 34 -145c26 0 66 43 136 144c19 0 39 -11 39 -31
c0 -58 -154 -245 -246 -245c-64 0 -89 43 -89 155c0 25 2 51 5 73l-45 -18c-4 -45 -6 -88 -7 -173c-11 -12 -30 -19 -53 -19c-58 0 -101 53 -102 105c0 31 8 67 33 110zM111 -302c37 54 47 77 47 101c0 20 -6 40 -40 54c-6 10 -7 21 -7 31c0 44 32 77 83 77
c58 0 91 -46 91 -102c0 -89 -70 -189 -136 -189c-18 0 -36 9 -38 28z" />
    <glyph glyph-name="Lacute" unicode="&#x139;" horiz-adv-x="627" 
d="M221 297c-57 8 -99 40 -99 80c0 30 16 53 42 69c29 -22 65 -39 96 -45c43 119 90 235 117 279c35 56 81 77 131 77c117 0 195 -80 195 -166c0 -100 -102 -220 -325 -290c-12 -35 -47 -95 -76 -137c268 -45 325 -126 325 -196c0 -50 -30 -90 -66 -100
c-73 63 -168 115 -366 160c-36 -34 -66 -55 -97 -55c-50 0 -96 79 -96 134c0 47 27 69 102 69c17 0 36 -1 58 -3c23 44 42 83 59 124zM463 570l-56 -167c105 42 171 106 171 164c0 31 -35 56 -75 56c-13 0 -27 -9 -40 -53zM729 1075c45 0 68 -26 68 -63
c0 -29 -26 -71 -77 -124c-41 -42 -92 -73 -123 -73c-14 0 -23 8 -23 26c69 100 105 158 105 207c11 17 28 27 50 27z" />
    <glyph glyph-name="lacute" unicode="&#x13a;" horiz-adv-x="260" 
d="M385 986c45 0 68 -26 68 -63c0 -29 -26 -71 -77 -124c-41 -42 -92 -73 -123 -73c-14 0 -23 8 -23 26c69 100 105 158 105 207c11 17 28 27 50 27zM50 242c12 65 30 159 39 227c18 135 89 216 168 216c43 0 70 -20 70 -71c0 -44 -22 -93 -97 -234
c-27 -97 -61 -224 -61 -249c0 -11 5 -15 14 -15c31 0 90 57 142 138c19 0 38 -14 38 -34c0 -76 -162 -233 -263 -233c-58 0 -79 25 -79 77c0 67 21 136 29 178z" />
    <glyph glyph-name="Lcommaaccent" unicode="&#x13b;" horiz-adv-x="627" 
d="M221 297c-57 8 -99 40 -99 80c0 30 16 53 42 69c29 -22 65 -39 96 -45c43 119 90 235 117 279c35 56 81 77 131 77c117 0 195 -80 195 -166c0 -100 -102 -220 -325 -290c-12 -35 -47 -95 -76 -137c268 -45 325 -126 325 -196c0 -50 -30 -90 -66 -100
c-73 63 -168 115 -366 160c-36 -34 -66 -55 -97 -55c-50 0 -96 79 -96 134c0 47 27 69 102 69c17 0 36 -1 58 -3c23 44 42 83 59 124zM463 570l-56 -167c105 42 171 106 171 164c0 31 -35 56 -75 56c-13 0 -27 -9 -40 -53zM224 -329c37 54 47 77 47 101c0 20 -6 40 -40 54
c-6 10 -7 21 -7 31c0 44 32 77 83 77c58 0 91 -46 91 -102c0 -89 -70 -189 -136 -189c-18 0 -36 9 -38 28z" />
    <glyph glyph-name="lcommaaccent" unicode="&#x13c;" horiz-adv-x="260" 
d="M61 289c12 65 30 159 39 227c18 135 89 216 168 216c43 0 70 -20 70 -71c0 -44 -20 -93 -95 -234c-27 -97 -74 -271 -74 -296c0 -11 5 -15 14 -15c31 0 90 57 142 138c19 0 38 -14 38 -34c0 -76 -162 -233 -263 -233c-58 0 -79 25 -79 77c0 67 32 183 40 225zM-21 -307
c37 54 47 77 47 101c0 20 -6 40 -40 54c-6 10 -7 21 -7 31c0 44 32 77 83 77c58 0 91 -46 91 -102c0 -89 -70 -189 -136 -189c-18 0 -36 9 -38 28z" />
    <glyph glyph-name="Lcaron" unicode="&#x13d;" horiz-adv-x="627" 
d="M221 297c-57 8 -99 40 -99 80c0 30 16 53 42 69c29 -22 65 -39 96 -45c43 119 90 235 117 279c35 56 81 77 131 77c117 0 195 -80 195 -166c0 -100 -102 -220 -325 -290c-12 -35 -47 -95 -76 -137c268 -45 325 -126 325 -196c0 -50 -30 -90 -66 -100
c-73 63 -168 115 -366 160c-36 -34 -66 -55 -97 -55c-50 0 -96 79 -96 134c0 47 27 69 102 69c17 0 36 -1 58 -3c23 44 42 83 59 124zM463 570l-56 -167c105 42 171 106 171 164c0 31 -35 56 -75 56c-13 0 -27 -9 -40 -53zM619 1028c0 -83 2 -104 16 -104c20 0 57 48 87 145
c7 3 13 4 20 4c20 0 37 -15 37 -44c0 -62 -93 -217 -191 -217c-68 0 -81 46 -81 186c0 10 -1 27 -2 43c12 21 41 39 72 39s42 -17 42 -52z" />
    <glyph glyph-name="lcaron" unicode="&#x13e;" horiz-adv-x="441" 
d="M61 289c12 65 30 159 39 227c18 135 89 216 168 216c30 0 50 -19 50 -51c0 -44 -19 -107 -73 -230c-27 -97 -76 -295 -76 -320c0 -11 5 -15 14 -15c31 0 90 57 142 138c19 0 38 -14 38 -34c0 -76 -162 -233 -263 -233c-58 0 -79 25 -79 77c0 67 32 183 40 225zM357 484
c37 54 47 77 47 101c0 20 -6 40 -40 54c-6 10 -7 21 -7 31c0 44 32 77 83 77c58 0 91 -46 91 -102c0 -89 -70 -189 -136 -189c-18 0 -36 9 -38 28z" />
    <glyph glyph-name="Ldot" unicode="&#x13f;" horiz-adv-x="784" 
d="M221 297c-57 8 -99 40 -99 80c0 30 16 53 42 69c29 -22 65 -39 96 -45c43 119 90 235 117 279c35 56 81 77 131 77c117 0 195 -80 195 -166c0 -100 -102 -220 -325 -290c-12 -35 -47 -95 -76 -137c268 -45 325 -126 325 -196c0 -50 -30 -90 -66 -100
c-73 63 -168 115 -366 160c-36 -34 -66 -55 -97 -55c-50 0 -96 79 -96 134c0 47 27 69 102 69c17 0 36 -1 58 -3c23 44 42 83 59 124zM463 570l-56 -167c105 42 171 106 171 164c0 31 -35 56 -75 56c-13 0 -27 -9 -40 -53zM664 130c-48 0 -81 47 -81 100c0 49 51 83 106 83
c46 0 70 -18 70 -43c0 -58 -41 -140 -95 -140z" />
    <glyph glyph-name="ldot" unicode="&#x140;" horiz-adv-x="467" 
d="M61 289c12 65 30 159 39 227c18 135 89 216 168 216c43 0 70 -20 70 -71c0 -44 -20 -93 -95 -234c-27 -97 -74 -271 -74 -296c0 -11 3 -18 15 -18c21 0 58 23 80 53c19 0 38 -14 38 -34c0 -56 -121 -145 -202 -145c-58 0 -79 25 -79 77c0 67 32 183 40 225zM313 239
c0 81 17 110 49 110c40 0 85 -44 85 -75c0 -24 -19 -63 -67 -122c-39 0 -67 29 -67 87z" />
    <glyph glyph-name="Lslash" unicode="&#x141;" horiz-adv-x="627" 
d="M508 757c71 0 128 -42 128 -110c0 -31 -13 -60 -44 -78c-30 27 -69 43 -95 43c-15 0 -23 -5 -30 -24l-67 -188c61 19 129 43 160 67c28 -7 45 -30 45 -60c0 -20 -10 -43 -26 -56c-36 -30 -104 -51 -208 -63c-12 -35 -40 -82 -69 -124c268 -45 332 -127 332 -204
c0 -50 -29 -93 -63 -98c-70 73 -178 121 -376 166c-36 -34 -66 -55 -97 -55c-50 0 -96 79 -96 134c0 47 27 69 102 69c17 0 36 -1 58 -3c21 38 40 78 50 103c-48 0 -83 23 -83 63c0 18 7 29 18 38c31 0 68 1 106 6c43 119 97 253 124 297c35 56 81 77 131 77z" />
    <glyph glyph-name="lslash" unicode="&#x142;" horiz-adv-x="259" 
d="M101 491c18 151 81 241 167 241c27 0 45 -15 45 -48c0 -25 -12 -65 -28 -116c27 13 51 27 68 39c27 -6 43 -28 43 -57c0 -42 -54 -77 -149 -108c-2 -5 -3 -10 -4 -15c-26 -97 -74 -271 -74 -296c0 -11 5 -15 14 -15c31 0 90 57 142 138c19 0 38 -14 38 -34
c0 -76 -162 -233 -263 -233c-58 0 -79 25 -79 77c0 67 32 183 40 225c6 32 14 71 23 111c-16 -3 -20 -4 -37 -7c-12 6 -18 19 -18 33c0 30 25 50 72 65z" />
    <glyph glyph-name="Nacute" unicode="&#x143;" horiz-adv-x="862" 
d="M876 1045c45 0 68 -26 68 -63c0 -29 -26 -71 -77 -124c-41 -42 -92 -73 -123 -73c-14 0 -23 8 -23 26c69 100 105 158 105 207c11 17 28 27 50 27zM724 321c70 348 98 419 196 419c54 0 87 -34 87 -84c0 -17 -9 -37 -20 -48c-87 -9 -98 -30 -196 -400
c5 -28 10 -76 10 -111c0 -77 -53 -125 -117 -125c-52 0 -80 19 -80 48c0 23 9 54 33 119c-19 50 -78 162 -125 239c-131 -344 -232 -455 -348 -455c-98 0 -139 50 -139 142c0 108 58 179 128 179c28 0 47 -12 55 -30c-19 -42 -29 -85 -29 -108c0 -36 6 -48 27 -48
c37 0 97 80 242 422c-14 44 -20 74 -20 113c0 82 62 157 153 157c54 0 77 -28 77 -52c0 -27 -17 -63 -65 -142c30 -63 106 -176 131 -235z" />
    <glyph glyph-name="nacute" unicode="&#x144;" horiz-adv-x="473" 
d="M70 235c-8 19 -10 42 -10 62c0 59 89 164 151 164c34 0 43 -12 43 -42c0 -25 -13 -95 -40 -144c73 126 142 171 186 171c46 0 69 -30 69 -69c0 -27 -8 -62 -29 -110c-18 -44 -50 -115 -50 -140c0 -11 5 -15 14 -15c20 0 83 51 145 140c19 0 39 -13 39 -33
c0 -63 -169 -232 -261 -232c-59 0 -79 26 -79 81c0 66 51 167 51 189c0 8 -4 12 -12 12c-9 0 -42 -15 -81 -69c-14 -77 -20 -122 -23 -190c-10 -10 -17 -13 -40 -13c-56 0 -97 53 -98 113c0 38 8 79 25 125zM431 755c45 0 68 -26 68 -63c0 -29 -26 -71 -77 -124
c-41 -42 -92 -73 -123 -73c-14 0 -23 8 -23 26c69 100 105 158 105 207c11 17 28 27 50 27z" />
    <glyph glyph-name="Ncommaaccent" unicode="&#x145;" horiz-adv-x="862" 
d="M724 321c70 348 98 419 196 419c54 0 87 -34 87 -84c0 -17 -9 -37 -20 -48c-87 -9 -98 -30 -196 -400c5 -28 10 -76 10 -111c0 -77 -53 -125 -117 -125c-52 0 -80 19 -80 48c0 23 9 54 33 119c-19 50 -78 162 -125 239c-131 -344 -232 -455 -348 -455
c-98 0 -139 50 -139 142c0 108 58 179 128 179c28 0 47 -12 55 -30c-19 -42 -29 -85 -29 -108c0 -36 6 -48 27 -48c37 0 97 80 242 422c-14 44 -20 74 -20 113c0 82 62 157 153 157c54 0 77 -28 77 -52c0 -27 -17 -63 -65 -142c30 -63 106 -176 131 -235zM389 -245
c37 54 47 77 47 101c0 20 -6 40 -40 54c-6 10 -7 21 -7 31c0 44 32 77 83 77c58 0 91 -46 91 -102c0 -89 -70 -189 -136 -189c-18 0 -36 9 -38 28z" />
    <glyph glyph-name="ncommaaccent" unicode="&#x146;" horiz-adv-x="473" 
d="M70 235c-8 19 -10 42 -10 62c0 59 89 164 151 164c34 0 43 -12 43 -42c0 -25 -13 -95 -40 -144c73 126 142 171 186 171c46 0 69 -30 69 -69c0 -27 -8 -62 -29 -110c-18 -44 -50 -115 -50 -140c0 -11 5 -15 14 -15c20 0 83 51 145 140c19 0 39 -13 39 -33
c0 -63 -169 -232 -261 -232c-59 0 -79 26 -79 81c0 66 51 167 51 189c0 8 -4 12 -12 12c-9 0 -42 -15 -81 -69c-14 -77 -20 -122 -23 -190c-10 -10 -17 -13 -40 -13c-56 0 -97 53 -98 113c0 38 8 79 25 125zM81 -303c37 54 47 77 47 101c0 20 -6 40 -40 54
c-6 10 -7 21 -7 31c0 44 32 77 83 77c58 0 91 -46 91 -102c0 -89 -70 -189 -136 -189c-18 0 -36 9 -38 28z" />
    <glyph glyph-name="Ncaron" unicode="&#x147;" horiz-adv-x="862" 
d="M793 998c0 -83 2 -104 16 -104c20 0 57 48 87 145c7 3 13 4 20 4c20 0 37 -15 37 -44c0 -62 -93 -217 -191 -217c-68 0 -81 46 -81 186c0 10 -1 27 -2 43c12 21 41 39 72 39s42 -17 42 -52zM724 321c70 348 98 419 196 419c54 0 87 -34 87 -84c0 -17 -9 -37 -20 -48
c-87 -9 -98 -30 -196 -400c5 -28 10 -76 10 -111c0 -77 -53 -125 -117 -125c-52 0 -80 19 -80 48c0 23 9 54 33 119c-19 50 -78 162 -125 239c-131 -344 -232 -455 -348 -455c-98 0 -139 50 -139 142c0 108 58 179 128 179c28 0 47 -12 55 -30c-19 -42 -29 -85 -29 -108
c0 -36 6 -48 27 -48c37 0 97 80 242 422c-14 44 -20 74 -20 113c0 82 62 157 153 157c54 0 77 -28 77 -52c0 -27 -17 -63 -65 -142c30 -63 106 -176 131 -235z" />
    <glyph glyph-name="ncaron" unicode="&#x148;" horiz-adv-x="473" 
d="M70 235c-8 19 -10 42 -10 62c0 59 89 164 151 164c34 0 43 -12 43 -42c0 -25 -13 -95 -40 -144c73 126 142 171 186 171c46 0 69 -30 69 -69c0 -27 -8 -62 -29 -110c-18 -44 -50 -115 -50 -140c0 -11 5 -15 14 -15c20 0 83 51 145 140c19 0 39 -13 39 -33
c0 -63 -169 -232 -261 -232c-59 0 -79 26 -79 81c0 66 51 167 51 189c0 8 -4 12 -12 12c-9 0 -42 -15 -81 -69c-14 -77 -20 -122 -23 -190c-10 -10 -17 -13 -40 -13c-56 0 -97 53 -98 113c0 38 8 79 25 125zM337 717c0 -83 2 -104 16 -104c20 0 57 48 87 145c7 3 13 4 20 4
c20 0 37 -15 37 -44c0 -62 -93 -217 -191 -217c-68 0 -81 46 -81 186c0 10 -1 27 -2 43c12 21 41 39 72 39s42 -17 42 -52z" />
    <glyph glyph-name="napostrophe" unicode="&#x149;" horiz-adv-x="584" 
d="M181 235c-8 19 -10 42 -10 62c0 59 89 164 151 164c34 0 43 -12 43 -42c0 -25 -13 -95 -40 -144c73 126 142 171 186 171c46 0 69 -30 69 -69c0 -27 -8 -62 -29 -110c-18 -44 -50 -115 -50 -140c0 -11 5 -15 14 -15c20 0 83 51 145 140c19 0 39 -13 39 -33
c0 -63 -169 -232 -261 -232c-59 0 -79 26 -79 81c0 66 51 167 51 189c0 8 -4 12 -12 12c-9 0 -42 -15 -81 -69c-14 -77 -20 -122 -23 -190c-10 -10 -17 -13 -40 -13c-56 0 -97 53 -98 113c0 38 8 79 25 125zM60 442c37 54 47 77 47 101c0 20 -6 40 -40 54c-6 10 -7 21 -7 31
c0 44 32 77 83 77c58 0 91 -46 91 -102c0 -89 -70 -189 -136 -189c-18 0 -36 9 -38 28z" />
    <glyph glyph-name="Omacron" unicode="&#x14c;" horiz-adv-x="655" 
d="M516 94c-56 -75 -141 -126 -245 -126c-145 0 -224 86 -224 263c0 236 208 498 363 498c33 0 55 -25 57 -58c20 13 46 22 76 22c88 0 133 -78 133 -160s-32 -233 -103 -350c10 -8 29 -13 45 -13c31 0 70 29 105 86c18 -1 39 -14 39 -36c0 -45 -77 -149 -168 -149
c-28 0 -58 8 -78 23zM226 266c0 -90 34 -151 99 -151c39 0 78 17 102 52c-42 51 -68 121 -68 213c0 95 20 168 58 240c-96 -63 -191 -195 -191 -354zM496 271c34 68 51 171 51 202c0 45 -9 72 -57 77c-8 -43 -16 -95 -16 -147c0 -47 6 -93 22 -132zM462 894
c138 8 155 14 214 40c20 -5 31 -21 31 -42c0 -53 -58 -80 -189 -80c-40 0 -81 2 -120 5c-7 6 -11 19 -11 26c0 27 22 48 75 51z" />
    <glyph glyph-name="omacron" unicode="&#x14d;" horiz-adv-x="412" 
d="M245 623c138 8 155 14 214 40c20 -5 31 -21 31 -42c0 -53 -58 -80 -189 -80c-40 0 -81 2 -120 5c-7 6 -11 19 -11 26c0 27 22 48 75 51zM338 428c41 0 61 -54 61 -99c0 -48 -10 -87 -31 -142c3 -3 10 -7 20 -7c29 0 58 23 91 76c18 0 39 -15 39 -36
c0 -42 -67 -136 -152 -136c-18 0 -29 3 -40 10c-48 -65 -101 -101 -171 -101c-71 0 -127 47 -127 145c0 166 110 320 216 320c26 0 58 -11 59 -44c10 10 19 14 35 14zM170 175c0 -49 18 -63 36 -63c24 0 48 23 66 68c-8 31 -11 60 -11 87c0 34 7 87 22 116
c-62 -29 -113 -126 -113 -208z" />
    <glyph glyph-name="Obreve" unicode="&#x14e;" horiz-adv-x="655" 
d="M516 94c-56 -75 -141 -126 -245 -126c-145 0 -224 86 -224 263c0 236 208 498 363 498c33 0 55 -25 57 -58c20 13 46 22 76 22c88 0 133 -78 133 -160s-32 -233 -103 -350c10 -8 29 -13 45 -13c31 0 70 29 105 86c18 -1 39 -14 39 -36c0 -45 -77 -149 -168 -149
c-28 0 -58 8 -78 23zM226 266c0 -90 34 -151 99 -151c39 0 78 17 102 52c-42 51 -68 121 -68 213c0 95 20 168 58 240c-96 -63 -191 -195 -191 -354zM496 271c34 68 51 171 51 202c0 45 -9 72 -57 77c-8 -43 -16 -95 -16 -147c0 -47 6 -93 22 -132zM530 998
c-13 -31 -20 -57 -20 -78c0 -20 19 -39 54 -39c36 0 64 30 88 123c7 3 13 4 20 4c20 0 37 -15 37 -44c0 -87 -78 -185 -173 -185c-81 0 -118 46 -118 96c0 70 35 146 83 146c15 0 29 -7 29 -23z" />
    <glyph glyph-name="obreve" unicode="&#x14f;" horiz-adv-x="412" 
d="M302 733c-13 -31 -20 -57 -20 -78c0 -20 19 -39 54 -39c36 0 64 30 88 123c7 3 13 4 20 4c20 0 37 -15 37 -44c0 -87 -78 -185 -173 -185c-81 0 -118 46 -118 96c0 70 35 146 83 146c15 0 29 -7 29 -23zM338 428c41 0 61 -54 61 -99c0 -48 -10 -87 -31 -142
c3 -3 10 -7 20 -7c29 0 58 23 91 76c18 0 39 -15 39 -36c0 -42 -67 -136 -152 -136c-18 0 -29 3 -40 10c-48 -65 -101 -101 -171 -101c-71 0 -127 47 -127 145c0 166 110 320 216 320c26 0 58 -11 59 -44c10 10 19 14 35 14zM170 175c0 -49 18 -63 36 -63c24 0 48 23 66 68
c-8 31 -11 60 -11 87c0 34 7 87 22 116c-62 -29 -113 -126 -113 -208z" />
    <glyph glyph-name="Ohungarumlaut" unicode="&#x150;" horiz-adv-x="655" 
d="M516 94c-56 -75 -141 -126 -245 -126c-145 0 -224 86 -224 263c0 236 208 498 363 498c33 0 55 -25 57 -58c20 13 46 22 76 22c88 0 133 -78 133 -160s-32 -233 -103 -350c10 -8 29 -13 45 -13c31 0 70 29 105 86c18 -1 39 -14 39 -36c0 -45 -77 -149 -168 -149
c-28 0 -58 8 -78 23zM226 266c0 -90 34 -151 99 -151c39 0 78 17 102 52c-42 51 -68 121 -68 213c0 95 20 168 58 240c-96 -63 -191 -195 -191 -354zM496 271c34 68 51 171 51 202c0 45 -9 72 -57 77c-8 -43 -16 -95 -16 -147c0 -47 6 -93 22 -132zM479 1029
c41 0 62 -24 62 -57c0 -27 -14 -65 -60 -113c-38 -39 -84 -67 -112 -67c-13 0 -21 7 -21 24c63 91 85 144 85 188c10 16 26 25 46 25zM687 1055c45 0 68 -26 68 -63c0 -29 -16 -71 -67 -124c-41 -42 -92 -73 -123 -73c-14 0 -23 8 -23 26c69 100 95 158 95 207
c11 17 28 27 50 27z" />
    <glyph glyph-name="ohungarumlaut" unicode="&#x151;" horiz-adv-x="412" 
d="M280 746c41 0 62 -24 62 -57c0 -27 -14 -65 -60 -113c-38 -39 -84 -67 -112 -67c-13 0 -21 7 -21 24c63 91 85 144 85 188c10 16 26 25 46 25zM488 772c45 0 68 -26 68 -63c0 -29 -16 -71 -67 -124c-41 -42 -92 -73 -123 -73c-14 0 -23 8 -23 26c69 100 95 158 95 207
c11 17 28 27 50 27zM338 428c41 0 61 -54 61 -99c0 -48 -10 -87 -31 -142c3 -3 10 -7 20 -7c29 0 58 23 91 76c18 0 39 -15 39 -36c0 -42 -67 -136 -152 -136c-18 0 -29 3 -40 10c-48 -65 -101 -101 -171 -101c-71 0 -127 47 -127 145c0 166 110 320 216 320
c26 0 58 -11 59 -44c10 10 19 14 35 14zM170 175c0 -49 18 -63 36 -63c24 0 48 23 66 68c-8 31 -11 60 -11 87c0 34 7 87 22 116c-62 -29 -113 -126 -113 -208z" />
    <glyph glyph-name="OE" unicode="&#x152;" horiz-adv-x="837" 
d="M559 -54c-59 0 -107 16 -141 43c-44 -26 -89 -41 -149 -41c-128 0 -222 86 -222 253c0 256 176 525 389 525c54 0 98 -23 126 -59c43 36 96 60 154 60c93 0 134 -44 134 -119c0 -99 -61 -146 -117 -146c-22 0 -32 8 -36 18c13 27 20 54 20 80c0 38 -13 51 -29 51
c-36 0 -77 -71 -77 -148c0 -35 8 -74 18 -100c22 5 55 8 74 8c38 0 48 -11 48 -25c0 -57 -47 -113 -96 -113c-19 0 -46 11 -67 27c-27 -28 -45 -71 -45 -99c0 -50 27 -82 86 -82c94 0 219 90 277 178c21 0 38 -8 38 -32c0 -64 -175 -279 -385 -279zM314 87c14 0 29 4 44 11
c-1 8 -1 15 -1 22c0 71 50 155 156 206c-29 31 -50 80 -50 139c0 29 6 58 17 86c-22 24 -59 41 -94 41c-92 0 -160 -150 -160 -356c0 -103 37 -149 88 -149z" />
    <glyph glyph-name="oe" unicode="&#x153;" horiz-adv-x="599" 
d="M264 463c56 0 86 -23 107 -56c36 36 77 58 114 58c69 0 107 -33 107 -103c0 -84 -49 -149 -186 -180c0 -45 9 -70 48 -70c68 0 156 58 213 145c24 -1 38 -17 38 -33c0 -74 -167 -233 -297 -233c-58 0 -97 21 -119 60c-39 -38 -82 -58 -134 -58c-71 0 -127 47 -127 145
c0 177 120 325 236 325zM265 160c0 44 14 108 41 158c-9 16 -31 34 -53 34c-36 0 -86 -80 -86 -177c0 -49 18 -70 41 -70c21 0 43 12 57 29v26zM480 327c0 21 -8 33 -20 33c-14 0 -41 -34 -48 -104c56 10 68 41 68 71z" />
    <glyph glyph-name="Racute" unicode="&#x154;" horiz-adv-x="680" 
d="M410 289c64 86 83 135 83 195c0 53 -31 96 -117 102c-2 -63 -20 -165 -51 -293c10 2 21 3 33 3c19 0 38 -3 52 -7zM656 79c8 -9 12 -24 12 -36c0 -55 -70 -114 -152 -114c-38 0 -56 15 -81 69c-63 137 -89 185 -135 200c-18 -73 -32 -158 -34 -192
c-8 -11 -25 -18 -50 -18c-57 0 -95 59 -95 98c0 27 7 67 50 193c29 86 63 185 99 303c-83 -10 -158 -83 -192 -150c-6 -3 -15 -5 -23 -5c-27 0 -43 23 -43 59c0 102 171 253 384 253c172 0 258 -84 258 -202c0 -99 -59 -187 -172 -292c21 -20 61 -72 96 -142
c12 -24 22 -30 37 -30c9 0 29 3 41 6zM589 1054c45 0 68 -26 68 -63c0 -29 -26 -71 -77 -124c-41 -42 -92 -73 -123 -73c-14 0 -23 8 -23 26c69 100 105 158 105 207c11 17 28 27 50 27z" />
    <glyph glyph-name="racute" unicode="&#x155;" horiz-adv-x="383" 
d="M279 382c59 -17 71 -31 71 -55c0 -20 -11 -44 -27 -76c-23 -46 -43 -95 -43 -120c0 -14 4 -24 17 -24c28 0 98 62 151 145c25 0 42 -16 42 -31c0 -63 -171 -241 -263 -241c-61 0 -95 27 -95 84c0 66 49 151 49 177c0 12 -11 18 -33 27c-31 -59 -54 -94 -87 -131
c-25 0 -40 18 -40 39c0 8 2 17 7 24c26 37 45 62 62 103c-8 9 -15 22 -15 41c0 70 105 169 161 169c34 0 57 -16 57 -43c0 -7 -1 -14 -3 -20c-24 -13 -45 -28 -58 -50c11 -6 30 -13 47 -18zM383 824c45 0 68 -26 68 -63c0 -29 -26 -71 -77 -124c-41 -42 -92 -73 -123 -73
c-14 0 -23 8 -23 26c69 100 105 158 105 207c11 17 28 27 50 27z" />
    <glyph glyph-name="Rcommaaccent" unicode="&#x156;" horiz-adv-x="680" 
d="M410 289c64 86 83 135 83 195c0 53 -31 96 -117 102c-2 -63 -20 -165 -51 -293c10 2 21 3 33 3c19 0 38 -3 52 -7zM656 79c8 -9 12 -24 12 -36c0 -55 -70 -114 -152 -114c-38 0 -56 15 -81 69c-63 137 -89 185 -135 200c-18 -73 -32 -158 -34 -192
c-8 -11 -25 -18 -50 -18c-57 0 -95 59 -95 98c0 27 7 67 50 193c29 86 63 185 99 303c-83 -10 -158 -83 -192 -150c-6 -3 -15 -5 -23 -5c-27 0 -43 23 -43 59c0 102 171 253 384 253c172 0 258 -84 258 -202c0 -99 -59 -187 -172 -292c21 -20 61 -72 96 -142
c12 -24 22 -30 37 -30c9 0 29 3 41 6zM227 -295c37 54 47 77 47 101c0 20 -6 40 -40 54c-6 10 -7 21 -7 31c0 44 32 77 83 77c58 0 91 -46 91 -102c0 -89 -70 -189 -136 -189c-18 0 -36 9 -38 28z" />
    </font>
</defs>
</svg>
